<?xml version="1.0" encoding="UTF-8" standalone="no"?>
<!-- Generator: Adobe Illustrator 19.0.0, SVG Export Plug-In . SVG Version: 6.00 Build 0)  -->

<svg
   version="1.1"
   id="Capa_1"
   x="0px"
   y="0px"
   viewBox="0 0 469.803 469.803"
   style="enable-background:new 0 0 469.803 469.803;"
   xml:space="preserve"
   sodipodi:docname="merge-plant.svg"
   inkscape:version="1.3.2 (091e20e, 2023-11-25, custom)"
   xmlns:inkscape="http://www.inkscape.org/namespaces/inkscape"
   xmlns:sodipodi="http://sodipodi.sourceforge.net/DTD/sodipodi-0.dtd"
   xmlns="http://www.w3.org/2000/svg"
   xmlns:svg="http://www.w3.org/2000/svg"><defs
   id="defs17"><marker
   style="overflow:visible"
   id="marker36"
   refX="0"
   refY="0"
   orient="auto-start-reverse"
   inkscape:stockid="Triangle arrow"
   markerWidth="1"
   markerHeight="1"
   viewBox="0 0 1 1"
   inkscape:isstock="true"
   inkscape:collect="always"
   preserveAspectRatio="xMidYMid"><path
     transform="scale(0.5)"
     style="fill:context-stroke;fill-rule:evenodd;stroke:context-stroke;stroke-width:1pt"
     d="M 5.77,0 -2.88,5 V -5 Z"
     id="path36" /></marker><marker
   style="overflow:visible"
   id="Triangle"
   refX="0"
   refY="0"
   orient="auto-start-reverse"
   inkscape:stockid="Triangle arrow"
   markerWidth="1"
   markerHeight="1"
   viewBox="0 0 1 1"
   inkscape:isstock="true"
   inkscape:collect="always"
   preserveAspectRatio="xMidYMid"><path
     transform="scale(0.5)"
     style="fill:context-stroke;fill-rule:evenodd;stroke:context-stroke;stroke-width:1pt"
     d="M 5.77,0 -2.88,5 V -5 Z"
     id="path135" /></marker>
	
	
</defs><sodipodi:namedview
   id="namedview17"
   pagecolor="#ffffff"
   bordercolor="#666666"
   borderopacity="1.0"
   inkscape:showpageshadow="2"
   inkscape:pageopacity="0.0"
   inkscape:pagecheckerboard="0"
   inkscape:deskcolor="#d1d1d1"
   inkscape:zoom="0.88441324"
   inkscape:cx="342.03468"
   inkscape:cy="451.71192"
   inkscape:window-width="1920"
   inkscape:window-height="1009"
   inkscape:window-x="-8"
   inkscape:window-y="-8"
   inkscape:window-maximized="1"
   inkscape:current-layer="Capa_1" />
















<path
   style="fill:#76e67a;stroke-width:0.7;fill-opacity:1"
   d="m 269.386,195.63258 c -28.7315,-28.7168 -84.9555,-32.0467 -124.7379,-32.0467 -4.1237,0 -7.4669,3.3432 -7.4669,7.4669 0,39.7971 3.3299,96.0211 32.0467,124.7533 13.4827,12.0078 31.1066,18.3001 49.1456,17.5469 18.5997,0.7329 36.799,-5.5272 51.0125,-17.5469 21.3997,-21.4151 25.3267,-74.8461 0,-100.1735 z"
   id="path18" /><path
   style="fill:#76e67a;stroke-width:0.7;fill-opacity:1"
   d="m 458.5764,193.12378 c -39.7971,0 -96.0211,3.3299 -124.7533,32.0467 -25.3869,25.3869 -21.3997,78.7437 0,100.1581 14.2177,12.0218 32.4226,18.2819 51.0272,17.5469 18.0383,0.7518 35.6622,-5.5405 49.1456,-17.5469 28.7315,-28.7315 32.0467,-84.9555 32.0467,-124.7533 -0.008,-4.1174 -3.3481,-7.4515 -7.4662,-7.4515 z"
   id="path19" /><path
   style="fill:#74ad77;stroke-width:0.7;fill-opacity:1"
   d="m 293.9812,462.25278 c -4.1237,0 -7.4669,-3.3432 -7.4669,-7.4669 0,-158.368 -58.0755,-198.1056 -79.9379,-213.0541 -2.6369,-1.6835 -5.1338,-3.5763 -7.4669,-5.6595 -2.8651,-2.9659 -2.7825,-7.693 0.1834,-10.5581 2.8938,-2.7951 7.4809,-2.7951 10.3747,0 1.6863,1.4259 3.4727,2.7286 5.3459,3.8976 19.4131,13.2755 65.1392,44.5613 80.9536,147.1827 12.2213,-53.6515 48.4491,-98.6965 98.2317,-122.1395 3.8122,-1.7934 8.3622,-0.357 10.4531,3.3005 1.8886,3.3285 0.7224,7.5572 -2.6061,9.4465 -0.1246,0.0707 -0.252,0.1379 -0.3808,0.2009 l -1.2096,0.5677 c -81.8643,38.4832 -99.0528,122.8269 -99.0528,186.816 7e-4,4.1055 -3.3152,7.441 -7.4214,7.4662 z"
   id="path20" /><g
   id="g20"
   transform="matrix(0.7,0,0,0.7,137.1812,148.48828)">
</g><g
   id="g21"
   transform="matrix(0.7,0,0,0.7,137.1812,148.48828)">
</g><g
   id="g22"
   transform="matrix(0.7,0,0,0.7,137.1812,148.48828)">
</g><g
   id="g23"
   transform="matrix(0.7,0,0,0.7,137.1812,148.48828)">
</g><g
   id="g24"
   transform="matrix(0.7,0,0,0.7,137.1812,148.48828)">
</g><g
   id="g25"
   transform="matrix(0.7,0,0,0.7,137.1812,148.48828)">
</g><g
   id="g26"
   transform="matrix(0.7,0,0,0.7,137.1812,148.48828)">
</g><g
   id="g27"
   transform="matrix(0.7,0,0,0.7,137.1812,148.48828)">
</g><g
   id="g28"
   transform="matrix(0.7,0,0,0.7,137.1812,148.48828)">
</g><g
   id="g29"
   transform="matrix(0.7,0,0,0.7,137.1812,148.48828)">
</g><g
   id="g30"
   transform="matrix(0.7,0,0,0.7,137.1812,148.48828)">
</g><g
   id="g31"
   transform="matrix(0.7,0,0,0.7,137.1812,148.48828)">
</g><g
   id="g32"
   transform="matrix(0.7,0,0,0.7,137.1812,148.48828)">
</g><g
   id="g33"
   transform="matrix(0.7,0,0,0.7,137.1812,148.48828)">
</g><g
   id="g34"
   transform="matrix(0.7,0,0,0.7,137.1812,148.48828)">
</g><g
   id="g18"
   transform="matrix(0.7,0,0,0.7,3.7594034,-14.331537)"><g
     id="g2">
	<path
   style="fill:#4caf50"
   d="M 188.864,67.349 C 147.819,26.325 67.499,21.568 10.667,21.568 4.776,21.568 0,26.344 0,32.235 c 0,56.853 4.757,137.173 45.781,178.219 19.261,17.154 44.438,26.143 70.208,25.067 26.571,1.047 52.57,-7.896 72.875,-25.067 30.571,-30.593 36.181,-106.923 0,-143.105 z"
   id="path1" />
	<path
   style="fill:#4caf50"
   d="m 459.136,63.765 c -56.853,0 -137.173,4.757 -178.219,45.781 -36.267,36.267 -30.571,112.491 0,143.083 20.311,17.174 46.318,26.117 72.896,25.067 25.769,1.074 50.946,-7.915 70.208,-25.067 41.045,-41.045 45.781,-121.365 45.781,-178.219 -0.011,-5.882 -4.783,-10.645 -10.666,-10.645 z"
   id="path2" />
</g><path
     style="fill:#388e3c"
     d="m 224,448.235 c -5.891,0 -10.667,-4.776 -10.667,-10.667 0,-226.24 -82.965,-283.008 -114.197,-304.363 -3.767,-2.405 -7.334,-5.109 -10.667,-8.085 -4.093,-4.237 -3.975,-10.99 0.262,-15.083 4.134,-3.993 10.687,-3.993 14.821,0 2.409,2.037 4.961,3.898 7.637,5.568 27.733,18.965 93.056,63.659 115.648,210.261 17.459,-76.645 69.213,-140.995 140.331,-174.485 5.446,-2.562 11.946,-0.51 14.933,4.715 2.698,4.755 1.032,10.796 -3.723,13.495 -0.178,0.101 -0.36,0.197 -0.544,0.287 l -1.728,0.811 c -116.949,54.976 -141.504,175.467 -141.504,266.88 0.001,5.865 -4.736,10.63 -10.602,10.666 z"
     id="path3" /><g
     id="g3">
</g><g
     id="g4">
</g><g
     id="g5">
</g><g
     id="g6">
</g><g
     id="g7">
</g><g
     id="g8">
</g><g
     id="g9">
</g><g
     id="g10">
</g><g
     id="g11">
</g><g
     id="g12">
</g><g
     id="g13">
</g><g
     id="g14">
</g><g
     id="g15">
</g><g
     id="g16">
</g><g
     id="g17">
</g></g>
<path
   style="fill:none;stroke:#ffae30;stroke-width:20;stroke-linecap:butt;stroke-linejoin:miter;stroke-opacity:1;stroke-dasharray:none;marker-start:url(#Triangle);marker-end:url(#marker36)"
   d="m 75.756442,246.49111 2.261386,156.03566 151.512882,-2.26139"
   id="path35" /></svg>
