<?xml version="1.0" encoding="UTF-8" standalone="no"?>
<!-- Generator: Adobe Illustrator 17.1.0, SVG Export Plug-In . SVG Version: 6.00 Build 0)  -->

<svg
   version="1.1"
   id="Capa_1"
   x="0px"
   y="0px"
   viewBox="0 0 411.743 411.743"
   style="enable-background:new 0 0 411.743 411.743;"
   xml:space="preserve"
   sodipodi:docname="move-to-zone.svg"
   inkscape:version="1.3.2 (091e20e, 2023-11-25, custom)"
   inkscape:export-filename=".\move-to-zone.png"
   inkscape:export-xdpi="3.9001315"
   inkscape:export-ydpi="3.9001315"
   xmlns:inkscape="http://www.inkscape.org/namespaces/inkscape"
   xmlns:sodipodi="http://sodipodi.sourceforge.net/DTD/sodipodi-0.dtd"
   xmlns="http://www.w3.org/2000/svg"
   xmlns:svg="http://www.w3.org/2000/svg"><defs
   id="defs15"><marker
     style="overflow:visible"
     id="Triangle"
     refX="0"
     refY="0"
     orient="auto-start-reverse"
     inkscape:stockid="Triangle arrow"
     markerWidth="1"
     markerHeight="1"
     viewBox="0 0 1 1"
     inkscape:isstock="true"
     inkscape:collect="always"
     preserveAspectRatio="xMidYMid"><path
       transform="scale(0.5)"
       style="fill:context-stroke;fill-rule:evenodd;stroke:context-stroke;stroke-width:1pt"
       d="M 5.77,0 -2.88,5 V -5 Z"
       id="path135" /></marker></defs><sodipodi:namedview
   id="namedview15"
   pagecolor="#ffffff"
   bordercolor="#666666"
   borderopacity="1.0"
   inkscape:showpageshadow="2"
   inkscape:pageopacity="0.0"
   inkscape:pagecheckerboard="0"
   inkscape:deskcolor="#d1d1d1"
   inkscape:zoom="0.71355885"
   inkscape:cx="167.47042"
   inkscape:cy="559.86973"
   inkscape:window-width="1920"
   inkscape:window-height="1009"
   inkscape:window-x="-8"
   inkscape:window-y="-8"
   inkscape:window-maximized="1"
   inkscape:current-layer="Capa_1" />
<path
   id="XMLID_45_"
   d="m 286.02064,106.64372 c 0,-4.02651 3.26349,-7.290004 7.29,-7.290004 h 1.73583 c 4.02651,0 7.29,3.263494 7.29,7.290004 0,4.02651 -3.26349,7.29 -7.29,7.29 h -1.73583 c -4.0257,0 -7.29,-3.26349 -7.29,-7.29 z m 10.05939,169.46496 c 0,4.02651 3.26349,7.29 7.29,7.29 h 1.73583 c 4.02651,0 7.29,-3.2635 7.29,-7.29 0,-4.02652 -3.26349,-7.29 -7.29,-7.29 h -1.73583 c -4.0257,0 -7.29,3.26349 -7.29,7.29 z m 8.15832,-33.41655 c 18.42507,0 33.41574,14.99066 33.41574,33.41655 0,15.92216 -11.1942,29.27988 -26.12574,32.61546 v 22.13649 c 0,4.0265 -3.26349,7.29 -7.29,7.29 -4.02651,0 -7.29,-3.2635 -7.29,-7.29 v -22.13649 c -14.93235,-3.33478 -26.12736,-16.69249 -26.12736,-32.61546 0,-18.42588 14.99067,-33.41655 33.41736,-33.41655 z m 0,14.58 c -10.38663,0 -18.83736,8.45072 -18.83736,18.83654 0,10.38582 8.45073,18.83655 18.83736,18.83655 10.38582,0 18.83574,-8.45073 18.83574,-18.83655 0,-10.38582 -8.44992,-18.83654 -18.83574,-18.83654 z m -117.40951,-78.1488 c 0,-18.42588 14.99148,-33.41655 33.41818,-33.41655 18.42669,0 33.41736,14.99066 33.41736,33.41655 0,15.92217 -11.19501,29.27987 -26.12736,32.61626 v 22.13569 c 0,4.0265 -3.26349,7.28999 -7.29,7.28999 -4.02651,0 -7.29,-3.26349 -7.29,-7.28999 v -22.13569 c -14.93155,-3.33558 -26.12818,-16.69329 -26.12818,-32.61626 z m 14.58,0 c 0,10.38662 8.45073,18.83654 18.83818,18.83654 10.38663,0 18.83736,-8.44992 18.83736,-18.83654 0,-10.38664 -8.45073,-18.83655 -18.83736,-18.83655 -10.38745,0 -18.83818,8.44991 -18.83818,18.83655 z m 59.35276,-72.47961 c 0,-18.425884 14.99067,-33.416554 33.41655,-33.416554 18.42669,0 33.41736,14.99067 33.41736,33.416554 0,15.92217 -11.19501,29.27988 -26.12736,32.61627 v 22.13568 c 0,4.02651 -3.26349,7.29 -7.29,7.29 -4.02651,0 -7.29,-3.26349 -7.29,-7.29 V 139.25918 C 271.95661,135.9236 260.7616,122.56589 260.7616,106.64372 Z m 14.58,0 c 0,10.38663 8.44992,18.83655 18.83655,18.83655 10.38663,0 18.83736,-8.44992 18.83736,-18.83655 0,-10.386634 -8.45073,-18.836554 -18.83736,-18.836554 -10.38663,0 -18.83655,8.44992 -18.83655,18.836554 z m 108.7101,92.59514 -12.20508,-4.41774 -10.05534,-68.85404 c -1.19637,-8.19882 -5.73804,-14.98986 -12.7899,-19.12167 -3.4749,-2.03715 -7.94043,-0.86751 -9.97434,2.60496 -2.03634,3.47328 -0.86994,7.93962 2.60415,9.97434 3.29022,1.92861 5.16537,4.75632 5.73318,8.64837 l 10.68633,73.17216 c 0.38799,2.6576 2.20644,4.88672 4.73202,5.80121 l 16.30692,5.90248 c 11.178,4.04594 12.27879,6.83559 11.99043,8.81441 L 373.53709,341.8831 c -0.82458,5.64733 -4.54572,9.23077 -11.06217,10.65231 L 251.90263,376.6564 c -0.98334,0.21384 -1.74798,0.0518 -2.6487,-0.55809 -2.40246,-1.62648 -4.5927,-5.83847 -5.32737,-10.24001 l -0.58887,-3.53079 c -0.35559,-2.13516 -1.64187,-4.0014 -3.51054,-5.09409 -1.87029,-1.09512 -4.12614,-1.29843 -6.16167,-0.56214 l -97.69654,35.35974 c -1.39077,0.50544 -3.1428,-0.82701 -3.64743,-1.24659 -2.32146,-1.93428 -3.78432,-5.12325 -3.40119,-7.4188 l 33.87339,-202.87584 c 0.82458,-4.94262 3.51945,-9.6317 6.13494,-10.67579 3.73977,-1.49202 5.56065,-5.73318 4.06782,-9.47214 -1.49283,-3.73977 -5.7348,-5.5647 -9.47214,-4.06782 -9.06228,3.61665 -13.74894,13.64202 -15.11136,21.81654 L 114.53958,380.9648 c -1.24497,7.45928 2.0736,15.71076 8.45316,21.02355 3.75759,3.12903 8.03115,4.75065 12.27393,4.75065 1.91079,0 3.81672,-0.32886 5.66514,-0.99792 l 89.8039,-32.50449 c 2.01933,6.40386 5.70564,11.79522 10.34127,14.93478 4.21686,2.85525 9.03474,3.79809 13.93119,2.73051 l 110.57229,-24.12099 c 12.50802,-2.72808 20.66715,-11.03544 22.38192,-22.79097 l 17.54298,-120.11895 c 2.3409,-16.01856 -14.94612,-22.27581 -21.45366,-24.63211 z M 219.38194,186.41332 h 1.73421 c 4.02651,0 7.29,-3.26349 7.29,-7.28999 0,-4.02652 -3.26349,-7.29001 -7.29,-7.29001 h -1.73421 c -4.02651,0 -7.29,3.2635 -7.29,7.29001 0,4.02651 3.26349,7.28999 7.29,7.28999 z m -13.7206,-54.15821 c 0.40662,0.068 0.81081,0.10044 1.20933,0.10044 3.4984,0 6.58693,-2.52558 7.18147,-6.09039 l 3.70089,-22.16565 c 0.73548,-4.403974 2.92572,-8.615164 5.32818,-10.242454 0.90153,-0.60912 1.66941,-0.77112 2.64951,-0.55728 l 18.05733,3.93903 c 3.93498,0.86103 7.81812,-1.63539 8.67591,-5.56875 0.8586,-3.93336 -1.63539,-7.81731 -5.56875,-8.67591 l -18.05652,-3.93903 c -4.89726,-1.06758 -9.71595,-0.12474 -13.932,2.73051 -5.79556,3.92445 -10.108,11.36835 -11.5336,19.912234 l -3.70089,22.16565 c -0.66339,3.97143 2.01771,7.72902 5.98914,8.3916 z"
   style="stroke-width:0.81" />
<g
   id="g1">
</g>
<g
   id="g2">
</g>
<g
   id="g3">
</g>
<g
   id="g4">
</g>
<g
   id="g5">
</g>
<g
   id="g6">
</g>
<g
   id="g7">
</g>
<g
   id="g8">
</g>
<g
   id="g9">
</g>
<g
   id="g10">
</g>
<g
   id="g11">
</g>
<g
   id="g12">
</g>
<g
   id="g13">
</g>
<g
   id="g14">
</g>
<g
   id="g15">
</g>
<path
   style="fill:none;stroke:#bd9827;stroke-width:20;stroke-linecap:butt;stroke-linejoin:miter;stroke-dasharray:none;stroke-opacity:1;marker-end:url(#Triangle)"
   d="M 21.89066,18.144725 C 21.42352,130.95952 101.53837,126.75524 169.74111,125.35381"
   id="path15"
   sodipodi:nodetypes="cc" /></svg>
