<?xml version="1.0" encoding="UTF-8" standalone="no"?>
<!-- Created with Inkscape (http://www.inkscape.org/) -->

<svg
   width="124.58678mm"
   height="75mm"
   viewBox="0 0 124.58678 75"
   version="1.1"
   id="svg1"
   xml:space="preserve"
   inkscape:version="1.3.2 (091e20e, 2023-11-25, custom)"
   sodipodi:docname="BaseSign.svg"
   xmlns:inkscape="http://www.inkscape.org/namespaces/inkscape"
   xmlns:sodipodi="http://sodipodi.sourceforge.net/DTD/sodipodi-0.dtd"
   xmlns="http://www.w3.org/2000/svg"
   xmlns:svg="http://www.w3.org/2000/svg"><sodipodi:namedview
     id="namedview1"
     pagecolor="#ffffff"
     bordercolor="#666666"
     borderopacity="1.0"
     inkscape:showpageshadow="2"
     inkscape:pageopacity="0.0"
     inkscape:pagecheckerboard="0"
     inkscape:deskcolor="#d1d1d1"
     inkscape:document-units="mm"
     inkscape:zoom="1.4164562"
     inkscape:cx="-79.776558"
     inkscape:cy="306.39846"
     inkscape:window-width="3200"
     inkscape:window-height="1711"
     inkscape:window-x="-9"
     inkscape:window-y="-9"
     inkscape:window-maximized="1"
     inkscape:current-layer="layer1" /><defs
     id="defs1" /><g
     inkscape:label="Calque 1"
     inkscape:groupmode="layer"
     id="layer1"
     transform="translate(-18.359876,-199.95339)"><text
       xml:space="preserve"
       style="font-style:normal;font-variant:normal;font-weight:normal;font-stretch:normal;font-size:12.2452px;line-height:1.25;font-family:'Matura MT Script Capitals';-inkscape-font-specification:'Matura MT Script Capitals';stroke-width:0.327996"
       x="22.994308"
       y="212.11923"
       id="mainLabel"><tspan
         sodipodi:role="line"
         id="mainLabelTextSpan"
         style="font-style:normal;font-variant:normal;font-weight:normal;font-stretch:normal;font-size:12.2452px;font-family:Elephant;-inkscape-font-specification:Elephant;stroke-width:0.327996"
         x="22.994308"
         y="212.11923">Genus</tspan></text><text
       xml:space="preserve"
       style="font-style:normal;font-variant:normal;font-weight:normal;font-stretch:normal;font-size:6.06575px;line-height:1.25;font-family:'Matura MT Script Capitals';-inkscape-font-specification:'Matura MT Script Capitals';stroke-width:0.227465"
       x="23.120968"
       y="221.99376"
       id="latinLabel"><tspan
         sodipodi:role="line"
         id="latinLabelTextSpan"
         style="font-style:italic;font-variant:normal;font-weight:normal;font-stretch:normal;font-family:Elephant;-inkscape-font-specification:'Elephant Italic';stroke-width:0.227465"
         x="23.120968"
         y="221.99376">Transparente Blanche de Juillet</tspan></text><text
       xml:space="preserve"
       style="font-style:normal;font-variant:normal;font-weight:normal;font-stretch:normal;font-size:6.12259px;line-height:1.25;font-family:'Matura MT Script Capitals';-inkscape-font-specification:'Matura MT Script Capitals';stroke-width:0.327996"
       x="23.888208"
       y="233.10944"
       id="yearLabel"><tspan
         sodipodi:role="line"
         id="yearLabelTextSpan"
         style="font-style:italic;font-variant:normal;font-weight:normal;font-stretch:normal;font-size:6.12259px;font-family:Elephant;-inkscape-font-specification:'Elephant Italic';stroke-width:0.327996"
         x="23.888208"
         y="233.10944">2023</tspan></text><path
       style="fill:#000000;stroke-width:1.96965"
       d="m 33.765751,253.5125 c -0.406896,-0.0369 -0.754849,-0.13441 -1.078252,-0.30173 -0.435583,-0.22544 -0.606162,-0.38905 -1.19357,-1.1448 -0.327532,-0.42138 -0.5317,-0.66633 -0.555408,-0.66633 -0.0039,0 -0.02989,0.06 -0.05778,0.13361 -0.460851,1.21456 -1.32683,1.87738 -2.514335,1.92452 l -0.149984,0.006 -0.127253,-0.01 c -0.953749,-0.079 -1.456972,-0.57802 -1.644195,-1.63065 l -0.02233,-0.12561 -0.01202,-0.007 c -0.0066,-0.004 -0.10821,-0.007 -0.225698,-0.007 l -0.213611,1.5e-4 -0.117571,-0.014 c -0.988652,-0.12322 -1.698187,-0.88268 -1.746545,-1.86942 l -0.0058,-0.11826 0.01029,-0.11244 c 0.03394,-0.36893 0.14886,-0.68112 0.386471,-1.0499 0.09004,-0.13983 0.158614,-0.23791 0.43222,-0.61872 0.144476,-0.20107 0.27268,-0.39407 0.272754,-0.41061 1.22e-4,-0.027 -0.220377,-0.0798 -0.555436,-0.13301 -0.418707,-0.0666 -0.535916,-0.10327 -0.703466,-0.22086 -0.336187,-0.23589 -0.580238,-0.74117 -0.701627,-1.45262 l -0.02479,-0.14522 -2.24e-4,-0.29529 -2.23e-4,-0.29527 0.01165,-0.0844 c 0.05882,-0.4235 0.143932,-0.59492 0.465358,-0.93742 0.178399,-0.19002 0.238352,-0.25817 0.272703,-0.30965 l 0.02904,-0.0437 -0.04178,-0.14682 c -0.07434,-0.26124 -0.10252,-0.41969 -0.111557,-0.62709 l -0.0056,-0.12902 0.01041,-0.10946 c 0.137104,-1.43784 1.963631,-2.24826 3.9775,-1.76475 l 0.172288,0.0414 0.0073,-0.007 c 0.0041,-0.004 0.01128,-0.096 0.0161,-0.20384 0.05019,-1.13729 0.258439,-1.50098 1.159137,-2.02441 0.550001,-0.31964 1.000792,-0.50471 1.370227,-0.56251 l 0.08856,-0.014 0.125041,8e-5 c 0.273397,1.8e-4 0.522328,0.0687 0.68568,0.18863 l 0.02818,0.0206 0.02828,-0.0124 c 0.01552,-0.006 0.05811,-0.0221 0.09455,-0.0348 l 0.06627,-0.0234 0.124615,-0.01 0.124615,-0.01 0.404496,0.01 0.404495,0.01 0.09231,-0.014 0.09231,-0.014 0.08138,-0.0332 c 0.04476,-0.018 0.08644,-0.0332 0.09263,-0.0332 0.01474,0 0.364588,0.24474 0.554916,0.38823 0.814846,0.61435 1.163851,1.18541 1.209326,1.97877 0.0079,0.13862 0.0072,0.19243 -0.0052,0.39139 l -0.0047,0.0726 h 0.223506 0.223506 l 0.174384,-0.016 0.174383,-0.016 0.254515,-7.1e-4 0.254513,-7.2e-4 0.0909,0.018 c 0.197648,0.038 0.355934,0.10785 0.520911,0.22963 0.467567,0.34518 0.932832,0.94222 1.074785,1.37916 l 0.02683,0.0826 v 0.17822 0.17823 l -0.01357,0.0731 c -0.0073,0.0402 -0.03013,0.13142 -0.05035,0.20248 l -0.03677,0.12921 0.03775,0.0666 0.03775,0.0666 0.05476,0.0557 c 0.03013,0.0306 0.102248,0.0874 0.160322,0.1262 0.239158,0.16002 0.280847,0.19463 0.354598,0.29483 0.163289,0.22169 0.26958,0.53369 0.301643,0.88538 l 0.01066,0.11764 -0.0052,0.20359 -0.0052,0.20358 -0.01416,0.10302 c -0.09616,0.7025 -0.468373,1.59817 -0.746041,1.79519 -0.150004,0.10636 -0.688794,0.3752 -0.892379,0.44515 l -0.01066,0.004 0.01281,0.0568 c 0.02566,0.11344 0.08105,0.20505 0.226188,0.37398 0.333347,0.38791 0.384569,0.49061 0.437882,0.87796 l 0.01552,0.11243 1.75e-4,0.19683 1.72e-4,0.19682 -0.01128,0.0938 c -0.120409,1.00012 -0.685481,1.79733 -1.404987,1.98214 l -0.09948,0.0256 -0.06506,0.11157 c -0.03579,0.0613 -0.120472,0.21102 -0.188194,0.33243 -0.450598,0.80773 -0.656178,1.05454 -1.038491,1.24675 -0.309918,0.15581 -0.770834,0.23539 -1.158948,0.20009 z m -5.208106,-0.31699 c 1.133145,-0.14542 2.00763,-1.02583 2.18781,-2.20265 l 0.01591,-0.10425 -1.2e-4,-0.34217 -1.21e-4,-0.34215 -0.02452,-0.23905 c -0.02552,-0.2488 -0.03824,-0.40167 -0.04796,-0.57651 l -0.0058,-0.10301 0.01004,-0.14062 c 0.01707,-0.23669 0.04507,-0.39768 0.108881,-0.62622 l 0.01784,-0.0639 -0.01415,-0.006 c -0.0078,-0.004 -0.03302,0.002 -0.05615,0.0124 l -0.04206,0.018 -0.03205,0.0437 c -0.01765,0.0241 -0.05184,0.0814 -0.07606,0.12741 -0.02422,0.046 -0.06238,0.10537 -0.08478,0.13182 l -0.04075,0.048 h -0.01779 c -0.0097,0 -0.04868,-0.016 -0.08643,-0.0376 l -0.06861,-0.0374 h -0.05089 -0.05089 l -0.0382,0.02 c -0.0405,0.0202 -0.08523,0.0666 -0.192926,0.19962 l -0.06633,0.0821 -0.06092,0.0466 -0.06092,0.0466 -0.04435,0.014 -0.04435,0.014 -0.03013,-0.014 c -0.04168,-0.0204 -0.110406,-0.0985 -0.133287,-0.15161 l -0.019,-0.0443 -2.03e-4,-0.0702 -2.06e-4,-0.0704 0.0308,-0.075 0.0308,-0.075 0.130201,-0.19943 c 0.294644,-0.45119 0.457814,-0.76448 0.506494,-0.9725 l 0.01532,-0.0656 -0.0028,-0.0656 -0.0028,-0.0656 -0.0904,0.13582 c -0.29728,0.44697 -0.523434,0.74045 -0.733691,0.95211 l -0.121686,0.12236 -0.07119,0.0496 c -0.03916,0.0272 -0.09807,0.0624 -0.13088,0.0783 l -0.0597,0.0287 -0.0713,0.004 -0.07129,0.004 -0.04236,-0.016 -0.04236,-0.0159 -0.03809,-0.0392 -0.03809,-0.0392 -0.03302,-0.0694 c -0.01824,-0.0382 -0.03542,-0.0824 -0.03834,-0.0981 l -0.0052,-0.0287 0.0373,-0.0486 c 0.02052,-0.0268 0.127467,-0.14041 0.237677,-0.25263 0.237905,-0.24215 0.371948,-0.41135 0.371948,-0.46949 v -0.014 l -0.02917,0.006 c -0.02944,0.006 -0.175722,0.074 -0.494964,0.22985 -0.09579,0.0469 -0.212369,0.0984 -0.25906,0.11467 l -0.08489,0.0296 -0.09544,0.004 -0.09544,0.004 -0.05195,-0.0202 -0.05195,-0.0202 -0.05459,-0.0613 -0.05458,-0.0614 -0.01842,-0.0508 c -0.02402,-0.0662 -0.02341,-0.076 0.0078,-0.1256 0.094,-0.15002 0.232926,-0.21706 0.706354,-0.34095 0.394248,-0.10326 0.521765,-0.16402 0.663761,-0.31647 0.06191,-0.0665 0.07633,-0.0904 0.07633,-0.12662 v -0.0306 l -0.02177,-0.014 -0.02176,-0.014 -0.02595,0.006 c -0.01435,0.004 -0.0663,0.018 -0.115575,0.034 -1.035609,0.32205 -2.140172,0.52138 -3.15998,0.57025 -0.117472,0.006 -0.231253,0.0124 -0.252817,0.016 l -0.03922,0.004 -0.09713,0.0858 c -0.787082,0.69545 -1.200543,1.41397 -1.226044,2.13063 l -0.0054,0.15082 0.01091,0.121 c 0.08564,0.95365 0.802917,1.54871 1.868835,1.5504 l 0.172793,2.7e-4 0.06668,0.21327 c 0.304439,0.97378 0.709302,1.42408 1.36311,1.51602 l 0.08805,0.0124 0.204866,7.9e-4 0.204865,7.9e-4 z m 5.564958,-0.014 c 0.899748,-0.14482 1.587535,-0.79407 1.743991,-1.64645 l 0.0205,-0.11157 0.01416,-0.018 c 0.053,-0.0652 0.280487,-0.14481 0.58,-0.20299 l 0.142419,-0.0276 0.04639,-0.0234 0.0464,-0.0234 0.113517,-0.11987 c 0.407222,-0.42939 0.625698,-0.91776 0.662668,-1.4813 l 0.0087,-0.13361 -0.0089,-0.13642 c -0.02704,-0.41374 -0.110665,-0.59219 -0.5398,-1.15182 -0.05902,-0.077 -0.136135,-0.18463 -0.171376,-0.23907 -0.03524,-0.0544 -0.06463,-0.10004 -0.0653,-0.10102 -6.83e-4,-7.9e-4 -0.06246,-0.0124 -0.1373,-0.0267 -0.250155,-0.0454 -0.535627,-0.0991 -0.57237,-0.1076 -0.02,-0.004 -0.07521,-0.016 -0.122715,-0.0272 -0.321592,-0.0698 -0.418288,-0.0939 -1.556461,-0.38461 l -0.324791,-0.0831 -0.03264,0.007 c -0.07311,0.016 -0.07944,0.046 -0.01669,0.0763 l 0.04048,0.02 0.02335,0.041 c 0.01281,0.0226 0.0288,0.0598 0.03545,0.0826 l 0.01202,0.0414 0.0065,0.14582 0.0065,0.14581 -0.04448,0.0206 -0.04448,0.0206 -0.0909,0.004 -0.0909,0.004 -0.107976,-0.02 c -0.05939,-0.01 -0.123818,-0.02 -0.143157,-0.02 h -0.03518 v 0.014 c 0,0.007 0.03022,0.0831 0.06717,0.16641 0.03693,0.0832 0.07219,0.16783 0.07833,0.18783 l 0.01128,0.0365 -0.0054,0.041 c -0.0076,0.0567 -0.03587,0.10996 -0.07459,0.14061 l -0.03263,0.0255 -0.04246,6.5e-4 -0.04246,6.3e-4 -0.09946,-0.0515 -0.09946,-0.0515 -0.03272,7.9e-4 c -0.04143,7.9e-4 -0.08248,0.0231 -0.132528,0.0707 l -0.03941,0.0374 -0.01091,0.0339 -0.01091,0.0339 0.01165,0.18422 c 0.0157,0.25137 0.0051,0.30391 -0.07172,0.35012 l -0.03074,0.018 -0.05722,-7.9e-4 c -0.07832,-0.002 -0.157878,-0.0234 -0.248179,-0.0691 l -0.07606,-0.0384 -0.09315,-0.095 -0.09316,-0.095 -0.105434,-0.14662 c -0.197608,-0.27464 -0.362507,-0.42298 -0.494378,-0.44472 l -0.03522,-0.006 -0.0097,0.0124 c -0.01611,0.0209 -0.02161,0.10178 -0.01241,0.18443 l 0.0087,0.078 0.06812,0.2079 c 0.08277,0.25263 0.09584,0.30787 0.09601,0.40603 l 1.34e-4,0.0763 -0.03594,0.0333 c -0.01976,0.018 -0.05352,0.0428 -0.07498,0.0544 l -0.03904,0.0208 -0.06363,2.7e-4 -0.06363,2.9e-4 -0.05908,-0.0287 c -0.03249,-0.016 -0.10138,-0.062 -0.153068,-0.10277 -0.0517,-0.0408 -0.119132,-0.0922 -0.149847,-0.11404 l -0.05586,-0.0398 h -0.03772 -0.03772 l -0.05652,0.0391 c -0.08877,0.0613 -0.145038,0.15442 -0.183073,0.30323 l -0.02154,0.0844 v 0.25312 0.2531 l 0.01648,0.10302 c 0.01745,0.10896 0.0683,0.32846 0.09193,0.39694 0.01648,0.048 0.08037,0.28839 0.163385,0.61548 0.08753,0.34488 0.09093,0.35567 0.150159,0.47809 0.148569,0.30699 0.428495,0.6884 0.806653,1.0991 0.219433,0.23828 0.392193,0.37344 0.64519,0.50474 l 0.12863,0.0668 0.140364,0.0482 c 0.184062,0.0632 0.333006,0.0942 0.5659,0.11763 0.02,0.002 0.12021,0.002 0.222699,7.9e-4 l 0.186351,-0.002 z m -4.171674,-4.4245 0.07106,-0.07 0.05054,-0.0785 c 0.02779,-0.043 0.06264,-0.11045 0.07744,-0.14982 l 0.0269,-0.0714 -0.0031,-0.0897 -0.0031,-0.0899 -0.02087,-0.0437 c -0.01141,-0.0241 -0.02674,-0.046 -0.03391,-0.0489 l -0.01299,-0.006 -0.02463,0.0443 c -0.01358,0.0242 -0.07565,0.12223 -0.137998,0.21756 -0.123062,0.18823 -0.18381,0.30704 -0.206951,0.40478 l -0.01474,0.0626 0.0062,0.0339 0.0062,0.0339 0.07454,-0.04 0.07454,-0.04 z m 1.689529,0.13941 c 0.0056,-0.018 -0.0097,-0.19422 -0.03392,-0.39308 -0.0573,-0.4691 -0.126457,-0.76927 -0.2229,-0.96753 -0.0602,-0.12384 -0.07712,-0.14142 -0.06819,-0.0707 0.0028,0.0218 0.01141,0.16222 0.019,0.31169 0.03047,0.58948 0.06554,0.8354 0.141179,0.99009 l 0.02576,0.0526 0.04202,0.0382 c 0.02312,0.0209 0.05094,0.04 0.06181,0.0422 0.01091,0.002 0.02252,0.004 0.02586,0.006 0.0033,7.1e-4 0.0076,-0.004 0.0093,-0.007 z m 1.20115,-0.23058 c 0.01765,-0.018 -0.260606,-0.42838 -0.400163,-0.59015 -0.05891,-0.0682 -0.182277,-0.17883 -0.265394,-0.23793 l -0.0308,-0.0218 0.0066,0.0454 c 0.05765,0.39661 0.300575,0.70619 0.624672,0.79612 0.05878,0.016 0.05761,0.016 0.06509,0.007 z m -2.47372,-0.029 c 0.07111,-0.0786 0.156813,-0.24825 0.206439,-0.40845 l 0.02852,-0.092 0.0056,-0.0692 0.0056,-0.0692 -0.01104,-0.0402 c -0.0061,-0.0222 -0.01707,-0.0486 -0.02459,-0.059 l -0.01357,-0.018 -0.01178,0.016 c -0.0066,0.01 -0.01474,0.0378 -0.01804,0.0639 l -0.0061,0.0472 -0.103302,0.20828 c -0.05683,0.11467 -0.110305,0.23305 -0.118835,0.26333 l -0.01552,0.055 0.0052,0.0391 c 0.01202,0.0906 0.03137,0.10785 0.07133,0.0636 z m 0.784278,-0.10302 c 0.0035,-0.01 0.01029,-0.0867 0.01552,-0.17241 l 0.0093,-0.15603 -0.0095,-0.18141 -0.0095,-0.18143 -0.01882,-0.0688 c -0.0235,-0.0858 -0.05726,-0.15642 -0.09378,-0.19603 -0.05504,-0.0596 -0.05975,-0.0485 -0.07126,0.17062 l -0.0089,0.16822 0.0097,0.15042 c 0.0157,0.24427 0.04611,0.36131 0.115265,0.44464 0.03456,0.0417 0.05235,0.048 0.06215,0.0222 z m -2.101565,-0.0818 c 0.03384,-0.007 0.08703,-0.0272 0.118178,-0.0443 l 0.05664,-0.0309 0.07727,-0.0798 0.07727,-0.0798 0.03432,-0.061 c 0.03885,-0.0691 0.0793,-0.19122 0.0793,-0.23952 v -0.0324 h -0.01454 c -0.06322,0 -0.292871,0.14902 -0.411475,0.26685 -0.07311,0.0728 -0.228425,0.26825 -0.228425,0.28762 0,0.026 0.11886,0.0332 0.211518,0.0124 z m 3.642555,-0.58273 c 0,-0.0574 -0.177079,-0.23643 -0.271967,-0.27501 -0.139666,-0.0568 -0.135904,0.016 0.0069,0.13282 l 0.0667,0.0548 0.09231,0.0466 c 0.09208,0.0466 0.106053,0.052 0.106053,0.0408 z m -4.287381,-0.0731 c 0.260311,-0.058 0.462383,-0.17282 0.673157,-0.38213 l 0.101009,-0.10041 -0.08973,-4.4e-4 c -0.185556,-7.9e-4 -0.381662,0.0463 -0.537464,0.12941 l -0.08181,0.0437 -0.07765,0.0796 -0.07765,0.0796 -0.04322,0.0868 -0.04322,0.0868 h 0.03694 c 0.02033,0 0.08314,-0.01 0.139628,-0.0228 z m 1.454059,-0.26267 c 0.04397,-0.0518 0.09451,-0.11666 0.112313,-0.14402 l 0.03235,-0.05 0.0048,-0.0366 0.0048,-0.0366 -0.01552,-0.006 c -0.04322,-0.018 -0.247477,0.15882 -0.299326,0.25785 l -0.02607,0.0498 0.0045,0.0342 c 0.0024,0.018 0.01141,0.0509 0.01975,0.0717 l 0.01532,0.0374 0.03359,-0.0418 c 0.01842,-0.0231 0.06959,-0.0842 0.113567,-0.13601 z m 2.006152,0.16262 c 0,-0.10339 -0.148646,-0.37382 -0.205559,-0.37382 h -0.01397 l 0.0058,0.0304 c 0.01804,0.0924 0.03534,0.14982 0.06339,0.20902 l 0.03133,0.0659 0.05153,0.0394 c 0.05339,0.0408 0.06744,0.0469 0.06744,0.0287 z m 1.981575,-0.18202 c 0,-0.12782 -0.263199,-0.26346 -0.372662,-0.19203 l -0.01357,0.007 0.01765,0.0336 c 0.04689,0.0899 0.203471,0.16643 0.352804,0.17263 l 0.01591,6.6e-4 z m 3.026875,-0.12662 c 0.240072,-0.0261 0.575401,-0.11901 0.744847,-0.20655 l 0.09103,-0.047 0.05813,-0.077 c 0.3885,-0.51439 0.664676,-1.25093 0.69319,-1.8487 l 0.0058,-0.12186 -0.01067,-0.12186 c -0.04507,-0.51597 -0.180957,-0.7791 -0.550633,-1.06632 -0.228126,-0.17723 -0.31788,-0.26708 -0.384591,-0.38478 l -0.03474,-0.0614 0.02466,-0.10165 c 0.01357,-0.0558 0.03209,-0.14363 0.04119,-0.19522 l 0.01649,-0.0939 3.11e-4,-0.27653 3.08e-4,-0.27653 -0.01629,-0.0711 -0.01629,-0.0711 -0.04219,-0.06 c -0.258059,-0.36716 -0.55727,-0.69338 -0.807087,-0.87994 l -0.0909,-0.0678 -0.123434,-0.063 c -0.193429,-0.0988 -0.345262,-0.14361 -0.544673,-0.16102 l -0.122715,-0.01 -0.109079,0.004 -0.109078,0.004 -0.204523,0.0606 c -0.256122,0.076 -0.269416,0.0792 -0.363591,0.0868 -0.136174,0.01 -0.169592,0.0283 -0.354502,0.18282 -0.466729,0.3903 -0.812932,0.8451 -1.427002,1.87467 -0.435409,0.73 -0.593422,0.97342 -0.800166,1.2327 -0.138948,0.17422 -0.181636,0.24839 -0.181636,0.31544 v 0.0268 h 0.01319 c 0.04443,0 0.175973,-0.13722 0.327004,-0.34116 0.366931,-0.49549 0.446765,-0.55877 0.705081,-0.55877 0.13216,0 0.145543,-0.01 0.234002,-0.17181 l 0.06156,-0.11282 0.04091,-0.043 0.04091,-0.043 0.03741,-0.0124 c 0.125739,-0.0384 0.326355,0.014 0.37648,0.0971 l 0.02007,0.0333 -0.0041,0.0442 -0.0041,0.0443 -0.04086,0.0888 c -0.09227,0.20043 -0.136931,0.26173 -0.440439,0.60435 -0.190967,0.21559 -0.25802,0.2974 -0.25802,0.31478 v 0.0124 l 0.05681,-0.006 c 0.08988,-0.007 0.191704,-0.05 0.502211,-0.20315 0.065,-0.032 0.147289,-0.0704 0.18288,-0.0852 l 0.0647,-0.027 0.06342,-0.006 0.06342,-0.006 0.0627,0.0124 0.0627,0.0124 0.05181,0.0284 c 0.02848,0.016 0.05896,0.0366 0.06771,0.0466 l 0.01591,0.018 -0.02999,0.0628 c -0.01648,0.0346 -0.08784,0.16422 -0.158557,0.28786 -0.07071,0.12384 -0.159236,0.28812 -0.196737,0.36527 l -0.06817,0.14022 -0.03815,0.0298 c -0.0505,0.0396 -0.119665,0.0622 -0.326282,0.10699 -0.280828,0.061 -0.377252,0.10785 -0.42749,0.2081 l -0.01416,0.0283 0.01281,0.014 c 0.0069,0.007 0.03761,0.018 0.06802,0.0238 l 0.05528,0.01 0.121314,-0.016 c 0.06672,-0.007 0.20726,-0.0365 0.312304,-0.0616 0.246936,-0.0594 0.322617,-0.0737 0.425108,-0.0812 l 0.08402,-0.006 0.06569,0.01 c 0.122542,0.02 0.209566,0.0691 0.266388,0.15162 l 0.01882,0.0272 -0.02477,0.0448 c -0.08352,0.15083 -0.218017,0.23771 -0.437638,0.28296 l -0.0885,0.018 -0.16362,0.01 c -0.08999,0.006 -0.269965,0.0124 -0.399949,0.016 -0.608954,0.014 -0.779745,0.0486 -0.919592,0.18502 -0.07504,0.0733 -0.06683,0.078 0.06276,0.0362 0.0463,-0.014 0.09743,-0.0296 0.113603,-0.0326 l 0.02941,-0.006 0.07513,0.0226 c 0.07149,0.0215 0.162397,0.0518 0.806857,0.26904 1.052055,0.35475 1.509615,0.47704 2.099743,0.56129 0.245991,0.0352 0.783148,0.05 0.990761,0.0274 z m -5.892516,-0.22396 0.03674,-0.0274 0.02541,-0.0535 0.02541,-0.0535 -5.42e-4,-0.0572 -5.46e-4,-0.0572 -0.02027,-0.0444 c -0.02122,-0.0463 -0.08514,-0.11963 -0.104541,-0.11963 -0.01552,0 -0.06267,0.0946 -0.08567,0.17202 -0.0517,0.17423 0.02192,0.31737 0.124015,0.2411 z m -4.974307,-0.0235 c 0.09998,-0.007 0.402678,-0.038 0.672646,-0.0659 0.545768,-0.0561 0.730107,-0.0726 1.063505,-0.0942 0.333513,-0.0216 0.295682,0.018 0.340592,-0.35602 l 0.01004,-0.0844 0.0225,-0.0482 0.0225,-0.0482 0.04302,-0.018 c 0.09938,-0.0434 0.189376,-0.0486 0.436008,-0.025 0.08383,0.007 0.211713,0.014 0.284205,0.016 l 0.131811,5.6e-4 0.06154,-0.016 c 0.08949,-0.0218 0.17933,-0.0763 0.17933,-0.10835 v -0.01 l -0.474943,-6.5e-4 c -0.261218,-3.7e-4 -0.482615,-0.004 -0.491998,-0.007 l -0.01707,-0.006 -0.02153,-0.059 c -0.04132,-0.11318 -0.0963,-0.17221 -0.29431,-0.31504 -0.141625,-0.10215 -0.222818,-0.17481 -0.256066,-0.22878 l -0.02572,-0.0418 2e-4,-0.0381 c 8.68e-4,-0.16601 0.122132,-0.22961 0.475287,-0.24904 0.219578,-0.0124 0.3313,-0.025 0.396169,-0.046 l 0.05095,-0.016 -0.04091,-0.01 c -0.0225,-0.006 -0.05522,-0.016 -0.07272,-0.02 -0.04195,-0.0124 -0.09465,-0.0576 -0.122194,-0.10624 l -0.02219,-0.0392 -0.0095,-0.061 c -0.0052,-0.0336 -0.0095,-0.0988 -0.0097,-0.14521 l -1.08e-4,-0.0844 -0.11131,-0.0584 c -0.169535,-0.0888 -0.281388,-0.19601 -0.307044,-0.29433 l -0.0097,-0.0372 0.01765,-0.03 c 0.0097,-0.016 0.03476,-0.0639 0.0557,-0.105 0.04448,-0.0876 0.06647,-0.11467 0.107628,-0.13282 l 0.03002,-0.014 0.03361,0.006 c 0.228405,0.0408 0.397154,0.11319 0.747157,0.32088 0.253939,0.15062 0.439902,0.23822 0.475637,0.22408 l 0.01397,-0.006 -0.0095,-0.0356 c -0.04374,-0.16362 -0.165579,-0.30732 -0.499516,-0.58939 -0.388995,-0.32858 -0.580536,-0.59302 -0.580536,-0.80144 v -0.0356 l 0.01591,-0.006 c 0.0087,-0.002 0.03205,-0.0205 0.05177,-0.0388 0.01972,-0.018 0.04737,-0.0394 0.06143,-0.047 l 0.02559,-0.014 0.07036,0.029 c 0.251335,0.10364 0.398291,0.21305 0.780413,0.58144 0.342207,0.32993 0.493392,0.46292 0.508513,0.44733 0.0024,-0.002 -0.01228,-0.0444 -0.03308,-0.0928 -0.02078,-0.0483 -0.082,-0.19542 -0.136059,-0.32696 -0.322574,-0.78459 -0.404971,-0.97717 -0.51587,-1.20556 -0.488374,-1.00585 -1.068596,-1.50892 -1.847036,-1.60149 l -0.122715,-0.014 -0.209066,9e-5 c -1.636627,6.2e-4 -2.587432,0.48045 -2.814899,1.4206 l -0.02029,0.0838 1.87e-4,0.23905 1.87e-4,0.23905 0.01104,0.0581 c 0.02243,0.11764 0.07476,0.29632 0.128261,0.43766 0.06737,0.17824 0.06806,0.15863 -0.01004,0.29257 -0.161155,0.2766 -0.291791,0.44506 -0.485033,0.62547 l -0.09998,0.0933 -0.02407,0.14462 c -0.03611,0.21708 -0.05257,0.36492 -0.06359,0.57101 l -0.0099,0.18622 0.0054,0.23437 0.0054,0.23439 0.01454,0.1076 c 0.12834,0.94894 0.605773,1.27133 1.867565,1.26104 l 0.368137,-0.002 z m 4.572166,-0.38366 0.06363,-0.0313 0.04745,-0.0485 c 0.07341,-0.075 0.159643,-0.2472 0.179911,-0.35926 l 0.0062,-0.0348 -0.02244,-0.006 c -0.150468,-0.0391 -0.390444,0.2229 -0.414244,0.45199 l -0.0073,0.0707 0.04157,-0.006 c 0.02285,-0.004 0.07019,-0.02 0.105186,-0.0372 z m 0.949885,0.007 c 0,-0.085 -0.09405,-0.35641 -0.139937,-0.40374 l -0.02285,-0.0235 h -0.06785 c -0.03732,0 -0.07432,0.002 -0.08222,0.006 l -0.01435,0.006 1.56e-4,0.0669 c 5.48e-4,0.23253 0.111856,0.37705 0.292989,0.38037 l 0.03411,6.3e-4 z m -2.66331,-0.0244 c 0.03748,-0.006 0.0941,-0.018 0.125778,-0.0287 l 0.05761,-0.02 0.056,-0.0444 c 0.0308,-0.0244 0.05726,-0.0508 0.05878,-0.0587 l 0.0028,-0.0141 -0.05534,-0.006 c -0.20935,-0.025 -0.71419,0.0478 -0.750481,0.10834 -0.02913,0.0486 0.30491,0.0914 0.504888,0.0646 z m 1.360349,-0.23568 c 0.05871,-0.0626 0.094,-0.11665 0.094,-0.14402 v -0.0211 l -0.01435,-0.006 c -0.06846,-0.027 -0.171028,0.032 -0.202192,0.11665 l -0.0087,0.0238 0.01241,0.0369 c 0.0068,0.0205 0.0192,0.0423 0.02756,0.0485 l 0.01513,0.0124 0.01474,-0.007 c 0.0082,-0.004 0.03576,-0.0307 0.06152,-0.0583 z m 3.974343,-0.33602 0.06715,-0.01 0.04687,-0.0222 c 0.08001,-0.0378 0.139103,-0.10079 0.128067,-0.13682 l -0.0054,-0.018 -0.04742,-0.0215 -0.04742,-0.0215 -0.09544,6.5e-4 c -0.123371,7.9e-4 -0.185497,0.0124 -0.340867,0.0665 l -0.127253,0.0437 -0.162105,1.5e-4 -0.162107,1.1e-4 -0.02198,0.0261 -0.02198,0.0261 v 0.0369 0.037 l 0.361318,-2.9e-4 0.36132,-3e-4 z m -5.514364,-0.064 c 0.01357,-0.007 0.0314,-0.029 0.03943,-0.0463 l 0.01454,-0.0316 -0.0054,-0.0224 c -0.01474,-0.061 -0.06459,-0.075 -0.214292,-0.0604 l -0.104542,0.01 -0.01202,0.0124 -0.01202,0.0124 0.01339,0.0328 c 0.037,0.0914 0.19525,0.14381 0.280988,0.093 z m 2.874796,-0.0524 c 0.259325,-0.0478 0.313358,-0.0888 0.313547,-0.23731 l 5.1e-5,-0.0398 h -0.06304 c -0.137106,0 -0.247791,0.0405 -0.293418,0.10785 l -0.02548,0.0374 -0.0099,0.0587 c -0.0083,0.0496 -0.0072,0.0868 0.0031,0.0868 0.0013,-2e-5 0.03528,-0.006 0.07528,-0.014 z m -0.900779,-0.0254 c 0.01952,-0.006 0.03955,-0.02 0.04452,-0.0276 l 0.0092,-0.014 -0.0062,-0.0252 c -0.0033,-0.014 -0.02061,-0.0417 -0.03831,-0.0617 l -0.03218,-0.0368 -0.03245,-0.0124 -0.03247,-0.0124 -0.06466,0.004 -0.06466,0.004 -0.03636,0.02 c -0.02,0.01 -0.04787,0.0318 -0.06191,0.0472 l -0.02556,0.0278 0.0392,0.0352 c 0.02154,0.02 0.05555,0.0433 0.07554,0.0532 l 0.03637,0.018 0.07727,-0.004 c 0.0425,-0.002 0.09324,-0.01 0.112748,-0.016 z m 0.490293,-0.21469 0.02374,-0.02 0.01103,-0.0394 0.01104,-0.0394 5.69e-4,-0.15461 5.68e-4,-0.15461 -0.0267,-0.0544 c -0.03226,-0.0656 -0.08156,-0.1138 -0.132898,-0.12962 l -0.03804,-0.0124 -0.01165,0.016 c -0.01948,0.0274 -0.04261,0.17282 -0.04737,0.29756 l -0.0045,0.11826 0.01435,0.0508 0.01435,0.0508 0.03106,0.031 c 0.05363,0.0537 0.116629,0.0692 0.154581,0.0384 z m -2.534005,-0.0472 c 0.08362,-0.016 0.211666,-0.0724 0.212722,-0.0942 7.27e-4,-0.014 -0.27731,-0.11319 -0.422388,-0.14922 l -0.07272,-0.018 -0.08696,-6e-5 -0.08696,-6e-5 -0.04644,0.014 -0.04644,0.014 -0.05067,0.0494 c -0.02787,0.0272 -0.05067,0.0565 -0.05067,0.065 v 0.016 l 0.04758,0.014 c 0.236298,0.0724 0.490456,0.10958 0.602941,0.0884 z m 2.047879,-0.18443 c 0.01746,-0.01 0.03559,-0.0228 0.04019,-0.0306 l 0.0083,-0.014 -0.01029,-0.0397 c -0.01397,-0.0538 -0.07867,-0.14821 -0.124945,-0.18261 l -0.038,-0.0283 -0.0627,-0.004 -0.0627,-0.004 -0.0425,0.02 -0.0425,0.02 -0.0089,0.0244 -0.0089,0.0244 0.0093,0.0426 c 0.01339,0.0613 0.03874,0.10786 0.08033,0.14642 l 0.03648,0.034 0.03463,0.006 c 0.019,0.004 0.03872,0.007 0.04371,0.01 0.0198,0.007 0.118699,-0.006 0.148725,-0.0218 z m 0.85348,-0.004 0.05946,-0.0293 0.03828,-0.0394 c 0.05078,-0.0524 0.08238,-0.10984 0.100413,-0.18242 l 0.01474,-0.0596 -0.0062,-0.0731 -0.0062,-0.073 -0.01707,-0.016 -0.01707,-0.016 -0.04487,0.006 c -0.135516,0.016 -0.23215,0.12601 -0.256805,0.29095 l -0.01004,0.0672 0.01494,0.061 0.01494,0.0609 0.019,0.016 c 0.02504,0.0216 0.02727,0.0212 0.09661,-0.0124 z m 0.937896,-0.0466 c 0.09306,-0.0267 0.183984,-0.0772 0.247035,-0.13741 l 0.05235,-0.05 0.01532,-0.0414 0.01532,-0.0414 -0.0058,-0.0316 c -0.0031,-0.018 -0.01091,-0.0388 -0.01726,-0.0478 l -0.01141,-0.016 -0.0361,0.0365 c -0.01985,0.02 -0.09131,0.0685 -0.158791,0.10785 -0.15974,0.0928 -0.190889,0.12802 -0.190889,0.21557 v 0.0258 h 0.01091 c 0.0059,0 0.04172,-0.007 0.07954,-0.02 z m 0.755034,-0.15861 c 0.278577,-0.0222 0.470975,-0.0868 0.671719,-0.22525 l 0.08345,-0.0576 0.09348,-0.0952 c 0.09335,-0.0952 0.228628,-0.26894 0.222583,-0.28605 l -0.0031,-0.01 -0.04091,0.014 c -0.460124,0.15842 -0.850396,0.3475 -1.03909,0.50322 -0.06164,0.0508 -0.169845,0.15361 -0.169845,0.16122 0,0.006 0.05726,0.004 0.181793,-0.006 z m -3.995556,-0.40199 c 0.0097,-0.016 -0.07187,-0.12662 -0.163523,-0.22116 -0.215574,-0.2223 -0.486563,-0.3423 -0.773086,-0.3423 h -0.08598 l -0.0052,0.014 -0.0052,0.014 0.05211,0.0656 c 0.124014,0.15641 0.261046,0.25209 0.495608,0.34635 0.192791,0.0774 0.470504,0.14802 0.485359,0.12322 z m 2.698086,-0.17442 c -0.0012,-0.01 -0.01261,-0.0834 -0.02519,-0.16243 l -0.02302,-0.14381 -0.01842,-0.0374 c -0.01004,-0.0206 -0.02167,-0.0359 -0.02559,-0.0343 -0.0087,0.004 -0.114396,0.12822 -0.150003,0.17702 l -0.02628,0.0359 -0.0045,0.0472 -0.0045,0.0472 0.01552,0.0244 c 0.02656,0.0418 0.117532,0.0694 0.218588,0.0665 l 0.04545,-0.002 z m 1.144673,-0.0668 c 0.311316,-0.11541 0.559911,-0.3602 0.749367,-0.73814 l 0.04167,-0.0832 -0.0099,-0.0226 c -0.0054,-0.0124 -0.02098,-0.0268 -0.03446,-0.0322 l -0.02452,-0.01 -0.02496,0.01 -0.02496,0.01 -0.04542,0.072 c -0.05489,0.0872 -0.125138,0.16721 -0.383175,0.43707 -0.231098,0.24162 -0.293317,0.31133 -0.31308,0.35074 l -0.01454,0.029 h 0.0087 c 0.0048,0 0.03868,-0.0124 0.07524,-0.0246 z m -2.338734,-0.0697 c 0.04078,-0.0304 0.08468,-0.0942 0.101851,-0.14782 l 0.01041,-0.0328 -0.0047,-0.0806 -0.0047,-0.0806 -0.02789,-0.078 c -0.03477,-0.0972 -0.09112,-0.20711 -0.172949,-0.33712 l -0.06322,-0.10041 -0.0097,-0.20156 -0.0097,-0.20153 -0.01842,-0.10524 c -0.04412,-0.25165 -0.133189,-0.43795 -0.264978,-0.55428 l -0.03806,-0.0336 0.0056,0.12161 0.0056,0.12161 0.02243,0.10921 c 0.0417,0.20313 0.07811,0.34198 0.217123,0.82822 0.07758,0.27135 0.138329,0.51908 0.161117,0.65706 0.02752,0.16663 0.02552,0.16402 0.0899,0.11603 z m -0.331914,-0.24072 c -0.0021,-0.26346 -0.03584,-0.40451 -0.225337,-0.94309 -0.04323,-0.12285 -0.08929,-0.25993 -0.102384,-0.30466 l -0.02382,-0.0815 -0.0042,-0.16722 -0.0042,-0.16721 0.03377,-0.0704 0.03376,-0.0704 0.05824,-0.0613 0.05824,-0.0613 0.03771,0.006 c 0.02074,0.002 0.0673,0.0205 0.103475,0.0388 l 0.06576,0.0336 0.04992,0.0515 0.04992,0.0515 0.03734,0.074 c 0.04779,0.0948 0.081,0.20026 0.142265,0.45222 0.02711,0.11144 0.05321,0.21328 0.05798,0.22622 l 0.0087,0.0235 0.09379,0.004 0.09379,0.004 0.0379,0.0204 c 0.02085,0.0124 0.074,0.0506 0.118178,0.0874 0.07832,0.0654 0.155066,0.1112 0.187069,0.1112 l 0.01591,1e-4 0.0015,-0.0209 c 0.0033,-0.0474 -0.0041,-0.13661 -0.03067,-0.3773 l -0.028,-0.25311 -9.48e-4,-0.18742 -9.47e-4,-0.18743 0.01591,-0.059 c 0.02326,-0.0866 0.06054,-0.15902 0.107765,-0.20904 l 0.04175,-0.0443 0.05424,-0.0283 c 0.02983,-0.016 0.0695,-0.0313 0.08815,-0.0348 l 0.03392,-0.006 0.04043,0.016 0.04043,0.016 0.0316,0.038 c 0.03724,0.0448 0.06163,0.10884 0.119009,0.31197 0.0233,0.0826 0.05229,0.17184 0.06441,0.19844 l 0.02205,0.0483 0.03708,0.0346 c 0.110689,0.10327 0.134661,0.091 0.237893,-0.12062 l 0.0709,-0.14521 0.03694,-0.0434 c 0.02033,-0.0238 0.05384,-0.0526 0.07448,-0.0639 l 0.03752,-0.0206 h 0.101305 0.101306 l 0.01824,0.018 c 0.01004,0.01 0.02783,0.0391 0.0395,0.0656 l 0.0212,0.0486 0.0031,0.16881 0.0031,0.16883 -0.01552,0.14061 c -0.0085,0.0772 -0.01707,0.21651 -0.0192,0.30932 l -0.0037,0.16882 0.01202,0.0463 c 0.01948,0.0744 0.02522,0.0718 0.11302,-0.0509 0.159178,-0.22244 0.254465,-0.38314 0.578047,-0.97494 0.229683,-0.42005 0.357227,-0.63021 0.507818,-0.83674 l 0.08368,-0.11479 0.132433,-0.13941 c 0.142787,-0.15043 0.247219,-0.24495 0.357849,-0.32382 l 0.07,-0.05 2.4e-5,-0.0763 c 2.6e-5,-0.0974 0.01378,-0.28486 0.03605,-0.49332 l 0.01765,-0.16401 0.0028,-0.20625 0.0028,-0.20622 -0.06707,-0.12661 c -0.168294,-0.31759 -0.371325,-0.59015 -0.663763,-0.89109 l -0.178146,-0.18343 -0.123124,-0.0948 c -0.259765,-0.20026 -0.460332,-0.31165 -0.666311,-0.37008 l -0.065,-0.018 -0.193642,-0.004 -0.193644,-0.004 -0.101765,0.0124 c -0.109586,0.0124 -0.336486,0.0494 -0.708188,0.11665 l -0.233735,0.0422 -0.07531,-0.0362 c -0.168429,-0.0809 -0.308823,-0.12 -0.509356,-0.14161 l -0.09771,-0.01 -0.09725,0.01 c -0.408064,0.0452 -0.773787,0.21002 -1.343481,0.60513 -0.684594,0.47478 -0.688005,0.47739 -0.729448,0.56219 -0.120867,0.24729 -0.1578,0.49072 -0.176769,1.16509 l -0.01091,0.38705 0.141314,0.14262 c 0.217802,0.21981 0.356673,0.39535 0.53921,0.68162 0.215509,0.33797 0.344756,0.59495 0.827482,1.64519 0.219716,0.47802 0.385665,0.81135 0.47971,0.96359 l 0.04513,0.073 0.01029,-0.004 0.01029,-0.004 z m -0.612497,0.10525 c 0,-0.002 -0.01944,-0.0268 -0.04319,-0.0538 -0.04536,-0.0518 -0.11498,-0.14102 -0.2799,-0.35867 -0.283394,-0.37402 -0.463245,-0.52946 -0.726295,-0.62764 -0.113776,-0.0424 -0.127601,-0.0316 -0.08729,0.0682 0.0097,0.0241 0.02192,0.0607 0.02702,0.0814 l 0.0093,0.0376 0.05252,0.0528 c 0.02889,0.029 0.120025,0.10661 0.2025,0.17241 0.169845,0.13542 0.283237,0.23529 0.435576,0.3834 0.1277,0.12422 0.229191,0.20876 0.277973,0.23167 l 0.03636,0.018 0.04772,2.2e-4 c 0.02624,1.1e-4 0.04772,-0.002 0.04772,-0.004 z m 1.857062,-0.23019 c 0.019,-0.059 0.04113,-0.14741 0.04919,-0.19642 l 0.01454,-0.0893 -0.0093,-0.0674 -0.0093,-0.0674 -0.02368,-0.0417 -0.02368,-0.0417 -0.04232,-0.0291 c -0.0525,-0.0358 -0.05143,-0.0366 -0.07748,0.0572 l -0.02147,0.0774 -4e-6,0.18743 -9e-6,0.18743 0.02145,0.0422 c 0.06036,0.11864 0.0787,0.11579 0.122195,-0.02 z m 0.600906,-0.11443 c 0.124227,-0.26489 0.209363,-0.51406 0.247438,-0.72416 l 0.01707,-0.0938 -4.88e-4,-0.12663 -4.89e-4,-0.12661 -0.01591,-0.0596 c -0.03497,-0.13081 -0.06943,-0.19922 -0.06943,-0.13781 0,0.0444 -0.04728,0.28727 -0.136427,0.7006 -0.09829,0.45567 -0.127175,0.60789 -0.127175,0.6703 v 0.0407 h 0.0093 c 0.0051,0 0.03941,-0.0644 0.07628,-0.14301 z m -0.633479,-0.81239 c 0.04418,-0.033 0.06699,-0.0654 0.08984,-0.12741 l 0.01726,-0.0468 -1.82e-4,-0.12662 -1.8e-4,-0.12661 -0.019,-0.0656 c -0.01041,-0.0359 -0.0323,-0.0985 -0.04858,-0.13882 l -0.02958,-0.0733 -0.03068,-0.0336 -0.03071,-0.0336 -0.01281,0.01 c -0.0069,0.006 -0.02211,0.0328 -0.03357,0.0598 l -0.02085,0.0489 0.0012,0.13602 c 6.41e-4,0.0748 0.0052,0.16543 0.01004,0.20155 0.0048,0.0359 0.0157,0.1226 0.02426,0.19223 0.02124,0.17461 0.01882,0.171 0.08349,0.12259 z"
       id="bloomingIcon" /><text
       xml:space="preserve"
       style="font-style:normal;font-variant:normal;font-weight:normal;font-stretch:normal;font-size:5.64444444px;line-height:1.25;font-family:'Matura MT Script Capitals';-inkscape-font-specification:'Matura MT Script Capitals';stroke-width:0.327996"
       x="41.4631"
       y="247.85226"
       id="bloomingText"><tspan
         sodipodi:role="line"
         style="font-style:italic;font-variant:normal;font-weight:normal;font-stretch:normal;font-family:Elephant;-inkscape-font-specification:'Elephant Italic';stroke-width:0.327996;font-size:5.64444444px"
         x="41.4631"
         y="247.85226"
         id="bloomingTextSpan">Blooming</tspan></text><path
       style="fill:#000000;stroke-width:0.117767"
       d="m 30.486725,270.94288 c -1.532295,-0.0569 -2.960962,-0.3766 -3.922105,-0.878 l -0.224134,-0.11703 -0.101145,-0.19695 c -0.152264,-0.29676 -0.355437,-0.85018 -0.747458,-2.03614 -0.459779,-1.39095 -0.856913,-2.31163 -1.125994,-2.61036 l -0.07449,-0.0827 -0.368199,-0.0328 c -0.45435,-0.0402 -0.470618,-0.045 -0.525044,-0.1453 -0.07113,-0.13099 -0.147326,-0.62858 -0.146841,-0.95843 l 4.7e-4,-0.30547 0.04835,-0.19432 c 0.09939,-0.39935 0.359243,-0.72306 0.722869,-0.90059 l 0.172351,-0.0841 0.240123,-0.004 c 0.132083,-0.004 0.44904,-0.0348 0.704379,-0.0722 0.255341,-0.0372 0.780033,-0.0906 1.165999,-0.11889 l 0.701746,-0.0508 -0.273131,-0.21956 c -0.752249,-0.60481 -1.111648,-1.24879 -1.113568,-1.99527 l -7.86e-4,-0.30443 0.04722,-0.16549 c 0.02604,-0.091 0.05691,-0.19784 0.06874,-0.23717 l 0.02139,-0.0715 -0.172778,0.0264 c -0.09503,0.0146 -0.288037,0.0235 -0.428916,0.0235 l -0.256147,-0.004 -0.204578,-0.0661 c -0.471454,-0.15209 -1.100111,-0.75398 -1.100111,-1.05338 v -0.0807 l 0.0543,-0.0376 0.0543,-0.0376 0.301211,-0.0206 c 0.16565,-0.0111 0.405972,-0.0235 0.534024,-0.0264 l 0.23281,-0.005 -0.01128,-0.0435 c -0.0058,-0.0234 -0.04846,-0.19373 -0.09415,-0.3772 l -0.08302,-0.33358 -0.0019,-0.50032 -0.0019,-0.50035 0.0926,-0.18992 0.0926,-0.18991 0.121699,-0.10426 0.121698,-0.10425 0.1358,-0.0347 c 0.07469,-0.0183 0.230395,-0.0347 0.345999,-0.0343 l 0.210218,1.1e-4 0.180739,0.0642 c 0.604848,0.21487 0.970999,0.82534 1.082966,1.80585 l 0.03808,0.33359 -0.022,0.29563 -0.022,0.29567 h 0.240216 0.240216 l 0.219485,0.0642 c 0.545924,0.15943 1.111783,0.56094 1.536279,1.08989 l 0.124005,0.15448 0.0073,-0.0554 c 0.0041,-0.0302 -0.04087,-0.49885 -0.100042,-1.0409 l -0.107504,-0.98552 0.03598,-0.0739 0.03599,-0.0739 0.191586,-0.07 c 0.105372,-0.0385 0.299877,-0.0915 0.432232,-0.11789 l 0.240618,-0.0481 0.320175,6.6e-4 0.320172,7.1e-4 0.224132,0.0459 c 0.26182,0.0538 0.582677,0.1552 0.644862,0.2043 l 0.0435,0.0343 v 0.31976 c 0,0.36494 0.01666,0.37728 0.08482,0.0626 0.02635,-0.12235 0.08508,-0.30131 0.130261,-0.3974 l 0.08217,-0.17465 0.121277,-0.10364 c 0.206839,-0.17704 0.548496,-0.21458 1.083814,-0.11975 l 0.274649,0.0489 0.164507,-0.0183 c 0.09046,-0.0111 0.299381,-0.0689 0.464248,-0.13099 l 0.299721,-0.11268 0.320172,-0.002 0.32017,-0.002 0.218211,0.0979 0.218214,0.0978 0.167044,0.16199 0.167046,0.16199 0.116157,0.21017 c 0.06388,0.11542 0.139463,0.28648 0.167974,0.38012 l 0.05185,0.16987 0.216479,0.0183 c 0.11907,0.009 0.277345,0.0402 0.351767,0.0684 l 0.135317,0.0509 0.121909,0.13117 c 0.152731,0.16437 0.197202,0.30326 0.197202,0.61591 v 0.24659 l 0.06343,0.0601 c 0.03491,0.0328 0.208821,0.12915 0.386483,0.21368 l 0.323037,0.15355 0.134561,0.12732 c 0.172506,0.16346 0.277686,0.37577 0.318546,0.643 l 0.03244,0.21222 -0.05102,0.2357 -0.05104,0.2357 -0.115327,0.22719 -0.115326,0.2272 -0.195249,0.19785 c -0.107381,0.10897 -0.18965,0.20224 -0.182792,0.20812 0.0068,0.005 0.161717,0.0539 0.34412,0.10711 l 0.331641,0.0968 0.08016,0.076 0.08016,0.0757 -0.01859,0.088 -0.01859,0.088 0.09521,0.21194 c 0.05234,0.11652 0.123856,0.32507 0.158871,0.46339 l 0.06365,0.25155 2.41e-4,0.26065 2.4e-4,0.26065 -0.06497,0.17905 c -0.163946,0.45211 -0.483691,0.72815 -1.103672,0.95281 l -0.224132,0.0811 -0.386563,1.46783 c -0.532319,2.02126 -0.72903,2.67041 -1.043499,3.44373 -0.144518,0.35538 -0.167974,0.37982 -0.390242,0.40696 -0.09061,0.0111 -0.431304,0.0752 -0.757079,0.14291 -0.988875,0.2049 -1.893203,0.31599 -3.009617,0.36986 -0.597193,0.0294 -0.737436,0.0299 -1.280687,0.0111 z m 1.504809,-0.79816 c 0.886145,-0.0371 3.069149,-0.22661 3.315673,-0.28796 0.01859,-0.005 0.08126,-0.15446 0.139113,-0.33291 0.4484,-1.38312 0.952829,-2.77377 1.351104,-3.72474 0.291105,-0.69514 0.291013,-0.64206 10e-4,-0.59945 -0.313383,0.046 -1.024358,0.0415 -1.832264,-0.0111 -0.376993,-0.0265 -1.139285,-0.0581 -1.693981,-0.073 l -1.008541,-0.0264 -2.929574,0.0183 -2.929571,0.0183 -0.842833,-0.0376 c -0.950411,-0.0422 -0.918943,-0.0459 -0.726397,0.0827 0.477304,0.31862 0.854518,1.13693 1.375691,2.98436 0.116182,0.41181 0.262747,0.88941 0.325668,1.06133 0.09224,0.25186 0.143084,0.40452 0.186665,0.56007 7.56e-4,0.004 0.246292,0.047 0.545665,0.0979 1.469556,0.25126 3.07134,0.34475 4.722538,0.27591 z m 0.03068,-0.48967 c -0.148972,-0.10276 -0.401943,-0.28707 -0.562169,-0.40939 -0.325262,-0.24862 -0.307872,-0.24362 -0.574489,-0.16437 -0.106401,0.0317 -0.262529,0.0672 -0.346942,0.0792 l -0.153467,0.0206 0.01078,-0.068 0.01041,-0.0681 0.264141,-0.0901 c 0.145253,-0.0496 0.264142,-0.0994 0.264142,-0.11059 0,-0.0206 -0.788459,-0.71072 -0.82933,-0.72514 -0.01278,-0.005 -0.179479,0.10897 -0.370237,0.25214 -0.190753,0.14328 -0.43474,0.31618 -0.542165,0.38443 -0.107429,0.0681 -0.201755,0.12915 -0.209627,0.13538 -0.0078,0.005 0.09805,0.11852 0.235384,0.24922 l 0.249699,0.23775 -0.03641,0.0646 -0.03642,0.0646 h -0.06171 c -0.05737,0 -0.27905,-0.13759 -0.556844,-0.34526 l -0.116951,-0.0875 -0.290112,0.12768 c -0.283947,0.12512 -0.380862,0.13832 -0.380862,0.0517 v -0.0431 l 0.222523,-0.12513 c 0.122379,-0.0687 0.22875,-0.13539 0.236311,-0.14768 0.0073,-0.0111 -0.221808,-0.25331 -0.50978,-0.53569 l -0.523563,-0.5134 -0.06374,0.0546 -0.06374,0.0546 -0.04922,-0.0183 c -0.06443,-0.0235 -0.0627,-0.10711 0.0035,-0.17649 l 0.05285,-0.0552 -0.196923,-0.20988 c -0.10831,-0.11541 -0.19692,-0.22395 -0.19692,-0.24097 0,-0.0787 0.07196,-0.0539 0.229338,0.0796 0.09397,0.0796 0.196581,0.16346 0.228038,0.18668 l 0.05717,0.042 0.311024,-0.28589 c 0.171072,-0.1574 0.4153,-0.37604 0.542746,-0.48605 l 0.231727,-0.19989 -0.35979,-0.29758 c -0.197883,-0.16383 -0.393068,-0.32544 -0.433733,-0.35949 l -0.07396,-0.062 -0.214217,0.10389 -0.214214,0.10388 -0.202995,0.19696 -0.202997,0.19694 -0.05316,-0.0317 c -0.165765,-0.0989 0.150057,-0.50175 0.545013,-0.69517 l 0.09131,-0.045 -0.0325,-0.0576 -0.03248,-0.0576 0.05156,-0.0489 0.05156,-0.0489 0.08445,0.0519 c 0.04643,0.0294 0.34251,0.236 0.65793,0.46044 l 0.573487,0.40832 0.0397,-0.0264 c 0.413806,-0.28209 0.919721,-0.55665 1.02708,-0.55733 l 0.06861,-4.5e-4 0.02045,0.0504 c 0.02479,0.0613 0.04541,0.044 -0.36582,0.3072 -0.184903,0.11827 -0.386606,0.25626 -0.448239,0.30657 l -0.112078,0.0914 0.111819,0.0845 c 0.06151,0.0466 0.328044,0.25566 0.592316,0.46474 0.264267,0.209 0.498735,0.39085 0.521039,0.4039 l 0.04056,0.0234 0.328646,-0.26739 c 0.180739,-0.14713 0.439435,-0.34932 0.574843,-0.44939 0.302109,-0.22339 0.318724,-0.17208 -0.204948,-0.63259 -0.240371,-0.21134 -0.445349,-0.40487 -0.455519,-0.42997 l -0.01859,-0.0459 0.06332,-0.0598 c 0.09845,-0.0933 0.113578,-0.0848 0.629322,0.34948 0.529726,0.44616 0.520056,0.44123 0.663626,0.33822 0.05448,-0.0391 0.132431,-0.0876 0.173145,-0.1081 l 0.07407,-0.0372 0.04597,0.0361 c 0.02541,0.0206 0.04598,0.0661 0.04598,0.10239 v 0.0665 l -0.127878,0.0891 c -0.169661,0.11839 -0.186415,0.094 0.414504,0.6013 l 0.526749,0.4446 0.241675,-0.22044 c 0.66798,-0.60942 0.833976,-0.76792 0.833976,-0.7963 0,-0.0183 -0.201694,-0.1864 -0.448239,-0.3764 l -0.448241,-0.34538 v -0.0496 c 0,-0.0265 0.02231,-0.0798 0.04983,-0.11703 l 0.04983,-0.0672 h 0.06829 0.0683 l 0.429303,0.31083 c 0.236128,0.17079 0.449417,0.32435 0.473994,0.3409 l 0.04469,0.0302 0.424833,-0.40156 c 0.233648,-0.22074 0.446963,-0.4015 0.474023,-0.4015 0.07091,0 0.12604,0.0622 0.12604,0.1418 v 0.0693 l -0.369372,0.41138 -0.369376,0.41137 0.06373,0.0846 c 0.03506,0.0466 0.08843,0.10425 0.118587,0.12768 0.269474,0.21017 0.469646,0.55904 0.369817,0.64462 -0.09772,0.0837 -0.138686,0.0616 -0.469732,-0.25304 -0.175451,-0.16676 -0.331281,-0.30324 -0.346323,-0.30324 -0.01511,0 -0.269287,0.22102 -0.564971,0.49118 l -0.53762,0.49122 0.340251,0.26593 c 0.417691,0.32663 0.340849,0.33661 0.752802,-0.0978 l 0.346669,-0.36559 0.08116,0.009 0.0812,0.009 0.02541,0.0657 0.02541,0.0657 -0.09942,0.14237 c -0.05469,0.0781 -0.211488,0.25419 -0.348412,0.39127 l -0.248956,0.24921 0.320517,0.30096 c 0.176285,0.16547 0.334463,0.32484 0.351504,0.35402 l 0.03099,0.0532 -0.03424,0.0608 -0.03429,0.0605 h -0.07925 -0.07923 l -0.263834,-0.16695 c -0.145098,-0.0919 -0.325856,-0.21075 -0.401648,-0.26447 l -0.137815,-0.0974 -0.08062,0.0978 -0.08064,0.0974 h -0.0738 c -0.04056,0 -0.09229,-0.0206 -0.114881,-0.047 l -0.04106,-0.047 0.09831,-0.13209 0.09828,-0.13208 -0.368758,-0.32679 -0.368754,-0.32675 -0.0407,0.0294 c -0.245361,0.16933 -0.821182,0.52019 -1.020085,0.62136 l -0.25125,0.12806 0.435351,0.41312 0.435352,0.41312 v 0.062 c 0,0.18992 -0.1549,0.17318 -0.481556,-0.0523 z m -3.029897,-1.07744 c 0.414533,-0.29819 0.889014,-0.6857 0.864049,-0.70565 -0.01433,-0.0111 -0.281591,-0.25656 -0.593928,-0.54473 l -0.567898,-0.5239 -0.232532,0.18846 c -0.377385,0.30578 -0.856867,0.72993 -0.856867,0.75796 0,0.0313 1.125019,0.96913 1.163056,0.96969 0.01453,2.4e-4 0.115389,-0.0635 0.224133,-0.14181 z m 2.756241,-0.11975 c 0.313775,-0.18434 0.9153,-0.60942 0.9153,-0.6466 0,-0.0328 -1.014992,-0.92593 -1.051918,-0.92593 -0.05372,0 -1.129508,0.89761 -1.117311,0.93226 0.0155,0.0444 0.896394,0.80846 0.933757,0.81008 0.01608,6.8e-4 0.160131,-0.0757 0.320172,-0.16988 z m 4.987639,-3.75409 0.310325,-0.0146 0.252769,-0.0789 0.25277,-0.0789 0.15732,-0.11244 0.157321,-0.11245 0.112079,-0.20813 0.112078,-0.20811 -0.001,-0.41248 c -5.46e-4,-0.2269 -0.01337,-0.53876 -0.02882,-0.69302 l -0.02789,-0.28061 -0.275423,-1.3e-4 c -1.028599,-4.4e-4 -4.488522,-0.11827 -5.650039,-0.19255 l -0.572052,-0.0367 -0.0097,0.0313 c -0.0052,0.0183 -0.01821,0.44666 -0.02882,0.95453 l -0.01918,0.92341 -0.04787,0.0693 c -0.02634,0.0382 -0.08017,0.0768 -0.119665,0.0862 -0.09338,0.0234 -1.110646,-0.12384 -1.154957,-0.16584 -0.05961,-0.0563 -0.08517,-0.0348 -0.08517,0.0719 v 0.10389 l -0.06725,0.0206 -0.06725,0.0206 -0.03388,-0.0322 c -0.03367,-0.0319 -0.140335,-0.73442 -0.217192,-1.43014 -0.022,-0.1999 -0.05148,-0.36325 -0.06539,-0.36325 -0.01395,0 -0.116218,0.0206 -0.227385,0.0444 -0.111148,0.0235 -0.389395,0.0684 -0.618319,0.0979 l -0.416224,0.0538 -2.074332,4.6e-4 -2.074335,4.6e-4 -0.110851,0.12124 c -0.06095,0.067 -0.168536,0.23043 -0.23904,0.36391 l -0.128189,0.24275 -0.03203,0.22748 -0.03204,0.22749 0.04018,0.2263 0.04018,0.22632 0.106029,0.0676 c 0.173301,0.11045 0.3636,0.12567 2.039118,0.16401 l 1.60086,0.0367 0.704379,-0.0206 c 0.387408,-0.0111 1.155343,-0.0474 1.706523,-0.0803 0.551179,-0.0328 1.314789,-0.0715 1.696911,-0.0857 l 0.694766,-0.0264 0.624334,0.0234 c 0.343383,0.0146 1.020547,0.0661 1.504808,0.11826 0.916105,0.0983 1.610185,0.1486 1.856998,0.13355 0.07924,-0.004 0.28373,-0.0146 0.454399,-0.0235 z m -6.582969,-0.93088 0.02263,-0.0343 0.307562,0.0206 c 0.169155,0.0111 0.361587,0.0294 0.427625,0.0378 l 0.12005,0.0183 -1.69e-4,-0.7235 c -2.53e-4,-1.0773 0.05939,-2.63669 0.129914,-3.39708 0.03429,-0.36969 0.06209,-0.82682 0.06178,-1.01586 l -5.58e-4,-0.34372 -0.04598,-0.20576 c -0.02541,-0.11343 -0.08465,-0.27299 -0.13187,-0.35506 l -0.08588,-0.14934 -0.118488,-0.0777 c -0.06518,-0.0426 -0.167664,-0.0916 -0.227757,-0.10822 l -0.109289,-0.0305 -0.183315,0.0206 c -0.100822,0.0111 -0.265353,0.0422 -0.365588,0.0704 l -0.182269,0.0513 -0.06018,0.0763 -0.06019,0.0763 -0.02976,0.19549 -0.02975,0.19548 0.03234,0.46744 c 0.01763,0.25713 0.09707,0.87113 0.176148,1.36458 l 0.143802,0.89722 0.04598,0.71258 c 0.02541,0.39197 0.05604,1.06403 0.0683,1.49349 0.02076,0.7237 0.0353,0.83815 0.09521,0.74635 z m -0.570515,-1.67765 c 0.0046,-0.004 -0.02758,-0.35987 -0.07174,-0.79088 l -0.08027,-0.78366 -0.181049,-0.28971 c -0.507113,-0.8119 -0.867328,-1.17442 -1.411391,-1.42047 l -0.249107,-0.11269 h -0.35219 -0.352186 l -0.156972,0.0757 c -0.08636,0.0417 -0.22565,0.14237 -0.309578,0.22338 l -0.152633,0.14768 -0.0956,0.1861 c -0.05257,0.1024 -0.112648,0.26564 -0.133476,0.36294 l -0.03787,0.17703 0.02231,0.18698 c 0.07,0.5839 0.399583,1.13741 1.054741,1.77154 l 0.321247,0.3109 1.088586,-0.0183 c 0.598721,-0.009 1.092417,-0.0206 1.097097,-0.0264 z m -1.892192,-0.3095 c -0.01178,-0.0111 -0.02139,-0.044 -0.02139,-0.073 v -0.0528 l 0.280134,-0.14329 c 0.154086,-0.0787 0.341796,-0.18308 0.417142,-0.23218 0.136053,-0.0884 0.230735,-0.10165 0.254071,-0.0352 0.03987,0.11343 -0.840515,0.62128 -0.930032,0.5365 z m -0.653685,-0.12087 -0.04004,-0.0146 1.8e-4,-0.14143 c 2.58e-4,-0.2046 0.0485,-0.34028 0.194722,-0.54763 l 0.129177,-0.18309 0.178821,-0.13411 c 0.09836,-0.0739 0.233089,-0.16328 0.299443,-0.19842 l 0.12062,-0.0642 0.05079,0.0481 c 0.08498,0.0803 0.06084,0.11976 -0.206902,0.33592 -0.297986,0.2407 -0.429671,0.41215 -0.497316,0.64731 -0.07304,0.25392 -0.113839,0.29903 -0.229493,0.25392 z m -0.455975,-0.64723 -0.04195,-0.0234 0.01918,-0.14712 c 0.02448,-0.18786 0.138841,-0.45144 0.331845,-0.76423 l 0.15244,-0.24715 h 0.05833 c 0.03207,0 0.06613,0.0206 0.07568,0.0429 l 0.01743,0.0429 -0.20907,0.38563 c -0.114979,0.21192 -0.22621,0.45823 -0.247191,0.54699 -0.03878,0.16401 -0.08114,0.2087 -0.156448,0.16474 z m 7.327062,0.78893 c 0.358462,-0.0348 0.860358,-0.0719 1.115328,-0.0822 l 0.46358,-0.0183 0.02665,-0.0665 c 0.01453,-0.0363 0.130436,-0.13906 0.257386,-0.22839 0.24567,-0.17261 0.451078,-0.39381 0.531155,-0.57235 l 0.04891,-0.10897 v -0.16676 -0.16676 l -0.05361,-0.12148 c -0.06298,-0.14235 -0.157747,-0.24686 -0.277996,-0.30612 l -0.08647,-0.0425 -0.185697,7e-4 -0.185698,6.8e-4 -0.192109,0.0783 c -0.105645,0.0431 -0.232283,0.0852 -0.281405,0.094 l -0.08932,0.0146 -0.06295,-0.0539 c -0.03461,-0.0298 -0.09185,-0.14622 -0.12726,-0.2586 -0.09033,-0.28736 -0.1801,-0.46886 -0.290919,-0.58838 l -0.09535,-0.10314 -0.09139,-0.0183 -0.09139,-0.0183 -0.123384,0.0489 -0.123385,0.0489 -0.30688,0.30177 -0.30691,0.30177 h -0.06435 c -0.09838,0 -0.155422,-0.0837 -0.236839,-0.34682 l -0.07444,-0.2407 -0.121946,-0.1728 -0.121946,-0.17283 -0.116331,-0.0523 -0.116368,-0.0523 -0.118177,0.0337 -0.11819,0.0333 -0.135376,0.12916 c -0.258161,0.24629 -0.432206,0.62783 -0.484479,1.0619 -0.01608,0.13265 -0.04333,0.25773 -0.06071,0.27739 l -0.03165,0.0361 -0.02231,0.87944 -0.02231,0.8795 0.861348,-0.0983 c 0.473743,-0.0543 1.154635,-0.12713 1.513099,-0.1618 z m 3.300826,-0.11554 c 0.04318,-0.062 0.153138,-0.21811 0.244371,-0.34746 l 0.165863,-0.23511 0.08833,-0.25713 0.08836,-0.25714 -0.01898,-0.15006 c -0.04738,-0.37886 -0.30245,-0.60821 -0.814213,-0.73221 -0.134135,-0.0326 -0.270187,-0.0817 -0.302293,-0.10922 l -0.05837,-0.0502 v -0.26271 -0.26271 l -0.04726,-0.15079 -0.04726,-0.15081 -0.08883,-0.0807 c -0.108844,-0.0987 -0.293711,-0.17464 -0.424983,-0.17464 -0.05396,0 -0.146648,-0.0206 -0.20594,-0.0426 l -0.107814,-0.0429 -0.01705,-0.086 c -0.0097,-0.0475 -0.02665,-0.15375 -0.03818,-0.23659 -0.01178,-0.0827 -0.05045,-0.22485 -0.0864,-0.31596 l -0.06539,-0.16548 -0.124489,-0.12805 -0.12447,-0.12806 -0.167355,-0.0699 -0.167354,-0.07 -0.272139,-0.002 -0.272139,-0.002 -0.224132,0.0724 c -0.123247,0.04 -0.30654,0.11119 -0.407306,0.15906 -0.224597,0.10624 -0.258874,0.10674 -0.487181,0.005 l -0.181823,-0.0787 -0.185795,-0.0146 -0.185794,-0.0146 -0.16197,0.0508 -0.161969,0.0509 -0.149593,0.12474 c -0.169872,0.14145 -0.267147,0.2768 -0.352,0.48886 l -0.05869,0.14676 -0.0906,-0.0183 -0.0906,-0.0183 v 0.49961 c 0,0.54709 0.0017,0.55361 0.09524,0.3798 0.03548,-0.0657 0.140236,-0.19284 0.232778,-0.28208 l 0.168245,-0.16235 0.174366,-0.0818 0.174386,-0.0818 h 0.127685 0.127685 l 0.135472,0.062 0.135471,0.0622 0.130069,0.15961 c 0.07153,0.0876 0.161814,0.23394 0.200577,0.32452 0.03878,0.0906 0.07506,0.17061 0.08062,0.1774 0.0056,0.005 0.103091,-0.0722 0.216693,-0.17556 l 0.206591,-0.18786 0.146493,-0.0613 0.146494,-0.0613 0.154648,-7.9e-4 0.154608,-7.9e-4 0.136363,0.0657 c 0.248741,0.12037 0.473637,0.39334 0.608663,0.73926 l 0.03388,0.0869 0.07148,-0.0206 c 0.03932,-0.0111 0.157902,-0.0417 0.263586,-0.0665 l 0.19209,-0.0455 0.171944,0.0206 c 0.475669,0.0561 0.815986,0.38182 0.906347,0.86771 l 0.03522,0.18931 -0.03863,0.19872 -0.03863,0.19873 -0.1126,0.20282 -0.112561,0.20283 -0.191741,0.18162 -0.191741,0.18162 0.218431,0.0206 c 0.120136,0.0111 0.297675,0.0309 0.394535,0.0446 0.09684,0.0146 0.219328,0.0264 0.272138,0.0264 l 0.09604,0.004 z m -11.142191,-2.94548 0.209876,-0.20253 0.182483,-0.0886 0.182482,-0.0886 -0.01337,-0.12186 c -0.0072,-0.0672 -0.02076,-0.30612 -0.03006,-0.53128 -0.03672,-0.89039 -0.21186,-1.44391 -0.544763,-1.72145 l -0.144266,-0.12037 -0.145157,-0.0385 -0.145138,-0.0385 -0.161524,0.0183 c -0.208545,0.0234 -0.361935,0.11504 -0.461051,0.27504 l -0.07924,0.12805 -0.03374,0.22985 -0.03374,0.22984 0.04959,0.31407 c 0.0512,0.32419 0.172351,0.78471 0.256827,0.97624 0.06178,0.13997 0.06071,0.15996 -0.01202,0.22924 l -0.06039,0.0572 -0.139714,-0.0264 c -0.166269,-0.0302 -0.682701,-0.0309 -0.796058,-7.9e-4 l -0.08006,0.0206 0.189515,0.18844 c 0.222333,0.22132 0.407628,0.34359 0.655566,0.43312 l 0.17948,0.065 0.256144,0.0206 c 0.140896,0.0111 0.312982,0.0146 0.382454,0.005 l 0.126329,-0.0111 z"
       id="harvestIcon" /><text
       xml:space="preserve"
       style="font-style:normal;font-variant:normal;font-weight:normal;font-stretch:normal;font-size:5.64444444px;line-height:1.25;font-family:'Matura MT Script Capitals';-inkscape-font-specification:'Matura MT Script Capitals';stroke-width:0.327996"
       x="41.580868"
       y="265.6525"
       id="harvestLabel"><tspan
         sodipodi:role="line"
         id="harvestLabelText"
         style="font-style:italic;font-variant:normal;font-weight:normal;font-stretch:normal;font-family:Elephant;-inkscape-font-specification:'Elephant Italic';stroke-width:0.327996;font-size:5.64444444px"
         x="41.580868"
         y="265.6525">Harverst</tspan></text><path
       d="m 138.21066,246.13511 v 0 c -0.2436,-0.68513 -0.85261,-1.12666 -1.56311,-1.12666 -0.17255,0 -0.36541,0.0254 -0.51258,0.071 l -2.00464,0.6902 v 0 -0.51765 c 0,-0.48721 -0.19793,-0.87798 -0.53796,-1.14696 v 0 l 0.48721,-0.68513 c 0.071,-0.0964 0.071,-0.2436 0,-0.31973 -0.12181,-0.14718 -0.34003,-0.14718 -0.44153,0 l -0.51258,0.73588 v 0 c -0.26898,-0.0964 -0.60901,-0.14718 -0.95411,-0.14718 -0.3654,0 -0.68513,0.0507 -0.95411,0.14718 v 0 l -0.51258,-0.71051 c -0.071,-0.1218 -0.2436,-0.17255 -0.3654,-0.0964 -0.14718,0.0711 -0.17255,0.26898 -0.071,0.39078 l 0.4872,0.68513 v 0 c -0.34002,0.26898 -0.53795,0.68513 -0.53795,1.14696 v 0.51766 0 l -2.00464,-0.68513 c -0.17255,-0.0508 -0.36541,-0.0711 -0.51258,-0.0711 -0.68513,0 -1.31951,0.41615 -1.56312,1.12666 v 0 c -0.29435,0.8323 -0.29435,1.73566 0,2.59334 0.24361,0.68513 0.87799,1.12666 1.56312,1.12666 0.17255,0 0.3654,-0.0254 0.51258,-0.0711 l 1.73566,-0.609 v 0.0254 c -0.29435,0.5887 -0.4872,1.24846 -0.4872,1.93359 0,1.78641 1.12666,3.27847 2.68977,3.8621 v 0 c 1.56311,-0.5887 2.68977,-2.07569 2.68977,-3.8621 0,-0.71051 -0.17255,-1.34489 -0.4872,-1.93359 v -0.0254 l 1.81179,0.609 c 0.17255,0.0507 0.3654,0.0711 0.51258,0.0711 0.68513,0 1.34488,-0.44153 1.56311,-1.12666 0.23853,-0.86275 0.23853,-1.76611 -0.0305,-2.59842 z m -7.55674,-0.88306 c 0,-0.34003 0.1218,-0.53796 0.29435,-0.71051 v 0 l 0.17256,0.26898 c 0.0508,0.0711 0.14717,0.0964 0.21822,0.0964 0.071,0 0.14718,-0.0254 0.19793,-0.071 0.0964,-0.0964 0.0964,-0.26898 0.0254,-0.3654 l -0.1218,-0.17256 c 0,0 0,0 0,-0.0254 0.2436,-0.071 0.4669,-0.071 0.63438,-0.071 0.16748,0 0.39078,0.0254 0.63438,0.071 0,0 0,0 0,0.0254 l -0.0964,0.17256 c -0.071,0.1218 -0.071,0.26897 0.0254,0.3654 0.0507,0.0507 0.1218,0.071 0.19793,0.071 0.0761,0 0.17255,-0.0507 0.21822,-0.0964 l 0.17255,-0.26898 v 0 c 0.17256,0.14718 0.29436,0.36541 0.29436,0.71051 v 0.7105 0 h -2.8674 v 0 z m -2.71007,3.96361 c -0.2436,0.071 -0.51258,0.071 -0.75618,-0.0254 -0.31973,-0.1218 -0.56333,-0.41616 -0.65976,-0.73588 -0.19792,-0.68514 -0.19792,-1.39564 0,-2.0757 0.0964,-0.34002 0.31973,-0.609 0.65976,-0.73588 0.2436,-0.0964 0.51258,-0.0964 0.75618,-0.0254 0,0 1.19771,0.41615 1.81179,0.60901 0.2436,0.0711 0.41615,0.2436 0.56333,0.44153 l 0.0964,0.14717 c 0.2436,0.3654 0.2436,0.83231 0,1.19771 -0.0254,0.0508 -0.071,0.0964 -0.0964,0.14718 -0.14718,0.19792 -0.34003,0.3654 -0.58871,0.44153 z m 5.54702,4.06003 h -2.76082 v 0 c -0.2436,-0.31973 -0.46691,-0.68513 -0.58871,-1.07591 v 0 h 3.91286 v 0 c -0.1218,0.3654 -0.31465,0.75618 -0.56333,1.07591 z m -3.517,-2.20257 c 0,-0.39078 0.071,-0.73588 0.17255,-1.07591 v 0 h 3.91286 v 0 c 0.0964,0.34003 0.17255,0.71051 0.17255,1.07591 v 0 z m 7.72421,-2.61364 c -0.1218,0.31972 -0.31973,0.609 -0.65975,0.73588 -0.24361,0.0964 -0.51258,0.0964 -0.75619,0.0254 l -1.73566,-0.58871 c -0.26898,-0.0964 -0.4872,-0.29435 -0.60901,-0.53795 -0.0254,-0.0508 -0.0507,-0.1218 -0.071,-0.17255 -0.17255,-0.31973 -0.17255,-0.71051 0,-1.02516 l 0.071,-0.17255 c 0.14718,-0.24361 0.36541,-0.44153 0.60901,-0.53796 0.63438,-0.21823 1.76104,-0.5887 1.76104,-0.5887 0.2436,-0.071 0.51258,-0.071 0.75618,0.0254 0.31973,0.1218 0.53795,0.41615 0.65976,0.73588 0.19285,0.68005 0.19285,1.41593 -0.0254,2.10107 z"
       id="beeIcon"
       style="stroke-width:0.0507504" /><path
       class="st0"
       d="m 132.16642,228.24542 c -3.45183,0 -6.25,2.79821 -6.25,6.25 0,3.45178 2.79817,6.25 6.25,6.25 3.45174,0 6.25,-2.79822 6.25,-6.25 0,-3.45179 -2.79826,-6.25 -6.25,-6.25 z m 3.01885,9.83207 v -2.41148 -0.21821 -0.0872 -0.17581 -3.00056 c 0,-0.12939 -0.0648,-0.25012 -0.17251,-0.3217 -0.0986,-0.0658 -0.22117,-0.0817 -0.33274,-0.0455 -0.0103,0.003 -0.0205,0.006 -0.0306,0.0105 l -1.02491,0.42913 c -0.12331,0.0515 -0.21113,0.16311 -0.23251,0.295 l -0.26465,3.10459 c -0.0178,0.11062 0.0132,0.22375 0.0851,0.30959 0.0719,0.086 0.8791,0.79248 0.8791,0.79248 v 2.0092 c -0.58779,0.26597 -1.23918,0.41534 -1.92517,0.41534 -0.39482,0 -0.7781,-0.0496 -1.14465,-0.14195 v -3.49497 c 0.1022,-0.0272 0.19871,-0.0616 0.28862,-0.10232 0.17539,-0.0793 0.32588,-0.1812 0.45137,-0.29277 0.18865,-0.16785 0.32168,-0.35552 0.41094,-0.5323 0.0446,-0.0887 0.0784,-0.1749 0.10232,-0.2584 0.0121,-0.0417 0.0216,-0.0829 0.0283,-0.12461 0.007,-0.0417 0.0111,-0.0837 0.0111,-0.12925 0,-0.28012 0,-1.92141 0,-1.92141 0,-0.21372 -0.17329,-0.38686 -0.38692,-0.38686 -0.21362,0 -0.38672,0.17314 -0.38672,0.38686 0,0 0,0.0257 0,0.0712 0,0.22356 0,0.92725 0,1.41006 0,0.18406 -0.14934,0.33343 -0.33359,0.33343 -0.18415,0 -0.3334,-0.14937 -0.3334,-0.33343 0,-0.5813 0,-1.45454 0,-1.45454 0,-0.21357 -0.17329,-0.38686 -0.38701,-0.38686 -0.21367,0 -0.38691,0.17329 -0.38691,0.38686 0,0 0,0.0258 0,0.0711 0,0.2196 0,0.9018 0,1.38344 0,0.18406 -0.14927,0.33343 -0.3335,0.33343 -0.18415,0 -0.3334,-0.14937 -0.3334,-0.33343 0,-0.58083 0,-1.48125 0,-1.48125 0,-0.21372 -0.17319,-0.38686 -0.38686,-0.38686 -0.21367,0 -0.38697,0.17314 -0.38697,0.38686 0,0 0,0.0257 0,0.0712 0,0.31788 0,1.60503 0,1.85022 2e-4,0.0405 0.003,0.0781 0.009,0.11531 0.0105,0.0695 0.0282,0.13784 0.0527,0.20894 0.0431,0.12346 0.10732,0.2541 0.19697,0.38606 0.0673,0.0987 0.14905,0.19756 0.2471,0.29116 0.14682,0.14004 0.33112,0.26792 0.55332,0.35967 0.0738,0.0305 0.152,0.0564 0.23374,0.0781 v 3.07993 c -1.47075,-0.79175 -2.47298,-2.34595 -2.47298,-4.13015 0,-2.5847 2.10276,-4.6875 4.6875,-4.6875 2.58465,0 4.6875,2.1028 4.6875,4.6875 0,1.43545 -0.64922,2.72153 -1.66865,3.58208 z"
       id="edibleIcon"
       style="stroke-width:0.0244141" /><path
       id="bugIcon"
       style="fill:#000000;fill-opacity:1;stroke-width:0.806676"
       d="m 129.25715,257.24548 c -0.13999,8.1e-4 -0.2771,0.0718 -0.36059,0.20177 -0.13357,0.20802 -0.0795,0.48911 0.12089,0.62779 l 1.37189,0.94919 c -0.4043,0.38858 -0.69003,0.90809 -0.79495,1.49361 0.25297,-0.0678 0.51829,-0.10338 0.79162,-0.10338 h 3.56083 c 0.27336,0 0.53865,0.0357 0.79161,0.10338 -0.10499,-0.58555 -0.39059,-1.10501 -0.79495,-1.49361 l 1.37189,-0.94919 c 0.20039,-0.13868 0.25454,-0.41977 0.12089,-0.62779 -0.13354,-0.20802 -0.40452,-0.26422 -0.60486,-0.12548 l -1.69496,1.17304 c -0.3,-0.12444 -0.62725,-0.193 -0.97004,-0.193 -0.34278,0 -0.67003,0.0686 -0.97003,0.193 l -1.69497,-1.17304 c -0.0752,-0.052 -0.16029,-0.0768 -0.24427,-0.0763 z m -2.04096,3.62128 c -0.16988,0.003 -0.32931,0.11062 -0.39643,0.28471 -0.0894,0.23212 0.019,0.49529 0.24261,0.5882 l 1.44359,0.59986 c -0.25815,0.38472 -0.40935,0.85206 -0.40935,1.35646 v 0.79246 h -1.74416 c -0.2408,0 -0.43603,0.20272 -0.43603,0.45271 0,0.25002 0.19523,0.45271 0.43603,0.45271 h 1.74416 v 0.1509 c 0,0.71264 0.1701,1.3837 0.47022,1.97259 l -1.50446,0.62488 c -0.22368,0.0929 -0.3321,0.35647 -0.24261,0.58861 0.0894,0.23203 0.34335,0.3447 0.56693,0.25178 l 1.68161,-0.69824 c 0.65786,0.80094 1.59876,1.3434 2.66208,1.4611 v -4.20072 c 0,-0.25006 0.19522,-0.4527 0.43604,-0.4527 0.24081,0 0.43604,0.20264 0.43604,0.4527 v 4.20072 c 1.0633,-0.11764 2.00428,-0.66016 2.66208,-1.4611 l 1.68162,0.69824 c 0.22361,0.0929 0.47756,-0.0197 0.56693,-0.25178 0.0895,-0.23214 -0.0194,-0.49569 -0.24304,-0.58861 l -1.50403,-0.62488 c 0.30013,-0.58889 0.47022,-1.25995 0.47022,-1.97259 v -0.1509 h 1.74415 c 0.24081,0 0.43603,-0.20269 0.43603,-0.45271 0,-0.24999 -0.19522,-0.45271 -0.43603,-0.45271 h -1.74415 v -0.79246 c 0,-0.5044 -0.15164,-0.97174 -0.40977,-1.35646 l 1.44358,-0.59986 c 0.22364,-0.0929 0.33254,-0.35608 0.24304,-0.5882 -0.0894,-0.23214 -0.34332,-0.34512 -0.56693,-0.2522 l -1.82336,0.75744 c -0.34367,-0.21399 -0.74608,-0.33724 -1.17596,-0.33724 h -3.56083 c -0.42989,0 -0.8323,0.12325 -1.17597,0.33724 l -1.82335,-0.75744 c -0.0559,-0.0232 -0.11387,-0.0336 -0.1705,-0.0325 z" /><circle
       style="fill:#ff0000;fill-opacity:1;stroke:#ff0000;stroke-width:0.222222;stroke-linecap:round;stroke-linejoin:round;stroke-opacity:1;paint-order:stroke fill markers"
       id="hole"
       cx="81.579178"
       cy="233.60716"
       r="0.88888901" /><rect
       style="fill:none;fill-opacity:1;stroke:#8d8d8d;stroke-width:0.619833;stroke-linecap:round;stroke-linejoin:round;stroke-opacity:1;paint-order:stroke fill markers"
       id="rect28"
       width="123.96694"
       height="74.380165"
       x="18.669792"
       y="200.26331" /><path
       d="m 119.04885,246.5391 1.10989,-0.68902 0.18802,0.21704 -0.19711,1.15411 -0.58528,0.80959 q -0.0546,-0.22737 -0.15162,-0.55121 -0.097,-0.32729 -0.17589,-0.54777 -0.10007,0.36173 -0.20014,0.78893 -0.097,0.42719 -0.18802,0.91295 -0.0879,0.48231 -0.1395,0.8785 -0.0516,0.39274 -0.1031,0.90261 l -1.31308,1.18167 -0.55191,-4.19268 -0.90975,2.11873 q -0.25474,0.58911 -0.45488,0.98185 -0.20015,0.39619 -0.37906,0.66491 -0.18196,0.26872 -0.36694,0.45475 -0.18498,0.18948 -0.38513,0.30317 -0.40029,0.22738 -0.80665,0.22738 -0.31538,0 -0.71567,-0.13781 -0.40332,-0.13091 -0.66412,-0.29628 -0.2517,-0.15503 -0.30628,-0.23426 -0.0546,-0.0724 -0.094,-0.31351 l -0.2426,-1.30569 0.88549,-0.7028 q 0.088,0.4203 0.19408,0.75103 0.10917,0.33073 0.2335,0.58222 0.12737,0.25494 0.28506,0.45131 0.45184,0.55811 0.88246,0.55811 0.31235,0 0.61257,-0.29973 0.29718,-0.29972 0.60043,-1.0542 0.27596,-0.68212 0.75207,-2.0326 0.44578,-1.27813 0.44578,-1.63642 0,-0.0276 -0.003,-0.0517 l 1.17964,-0.596 0.6156,0.86816 q 0.0273,1.47106 0.094,2.36678 l 0.3639,-1.19889 q 0.14253,-0.45131 0.49127,-1.33325 z m 1.4556,2.28065 v -0.85438 h 1.32823 v -1.5124 h 0.75207 v 1.5124 h 1.33127 v 0.85438 h -1.33127 v 1.50551 h -0.75207 v -1.50551 z"
       id="nitrogenFixerIcon"
       style="font-size:7.05556px;line-height:1.25;font-family:'Matura MT Script Capitals';-inkscape-font-specification:'Matura MT Script Capitals';stroke-width:0.248235"
       aria-label="N+" /><path
       style="fill:#000000;stroke-width:0.0747714"
       d="m 115.94236,269.69333 c -0.0603,-0.0767 -0.0511,-0.11762 0.0486,-0.21448 0.23509,-0.22848 0.23085,-0.48924 -0.0191,-1.17457 -0.19806,-0.54303 -0.24854,-0.74647 -0.24854,-1.00158 0,-0.40953 0.24557,-0.76522 0.4204,-0.6089 0.0518,0.0463 0.0421,0.13356 -0.0252,0.22651 -0.18307,0.25272 -0.15779,0.53057 0.11754,1.29195 0.17787,0.49188 0.20792,0.61721 0.20871,0.87046 6e-4,0.19938 -0.004,0.22714 -0.0551,0.33116 -0.0561,0.11419 -0.15954,0.23764 -0.25033,0.29869 -0.073,0.0491 -0.14903,0.0417 -0.19695,-0.0192 z m 1.07477,0.037 c -0.0401,-0.0268 -0.0696,-0.10462 -0.0559,-0.14761 0.007,-0.0234 0.0551,-0.0832 0.10602,-0.13279 0.10842,-0.10575 0.1514,-0.22501 0.14661,-0.40676 -0.004,-0.16991 -0.0476,-0.33509 -0.19472,-0.74602 -0.18258,-0.50992 -0.22794,-0.68297 -0.24146,-0.92102 -0.0143,-0.25119 0.0232,-0.40968 0.137,-0.58015 0.0979,-0.14666 0.18995,-0.18053 0.27758,-0.10217 0.0529,0.0473 0.0416,0.12918 -0.0332,0.24031 -0.0854,0.12688 -0.11905,0.28164 -0.10206,0.46915 0.0164,0.18126 0.0605,0.33854 0.21702,0.77362 0.19873,0.5526 0.21841,0.63305 0.21922,0.89595 6.8e-4,0.20708 -0.004,0.23782 -0.0531,0.34243 -0.0736,0.15706 -0.25097,0.33031 -0.33776,0.3299 -0.0349,-1.5e-4 -0.0732,-0.007 -0.0852,-0.0148 z m 1.02114,-0.0384 c -0.0572,-0.0727 -0.0397,-0.12777 0.0769,-0.24129 0.11928,-0.11618 0.15103,-0.20443 0.14659,-0.40746 -0.004,-0.18329 -0.0368,-0.30438 -0.25159,-0.92982 -0.16427,-0.47824 -0.19964,-0.64989 -0.18447,-0.89521 0.008,-0.13264 0.023,-0.1901 0.0788,-0.30664 0.0751,-0.15691 0.1515,-0.25092 0.20678,-0.25456 0.16185,-0.0107 0.21195,0.11164 0.1089,0.26585 -0.0801,0.11981 -0.10028,0.1756 -0.11473,0.31666 -0.0215,0.20976 0.0246,0.39445 0.27606,1.10487 0.19566,0.55289 0.22029,0.83644 0.0948,1.09133 -0.12733,0.25865 -0.33877,0.38237 -0.43796,0.25627 z m 1.06294,0.0189 c -0.0312,-0.0349 -0.0412,-0.0685 -0.0369,-0.12427 10e-4,-0.0167 0.0464,-0.0765 0.10035,-0.13304 0.21939,-0.23002 0.21168,-0.44239 -0.0418,-1.15073 -0.1736,-0.48517 -0.23228,-0.69967 -0.24766,-0.90524 -0.0212,-0.28284 0.0664,-0.56022 0.21908,-0.6943 0.0622,-0.0546 0.0771,-0.0593 0.13475,-0.0428 0.0357,0.0102 0.0662,0.0186 0.068,0.0186 0.002,0 0.0122,0.0259 0.0232,0.0576 0.016,0.0459 0.0126,0.071 -0.0169,0.12365 -0.22714,0.40605 -0.21652,0.51686 0.14641,1.52749 0.1139,0.31717 0.15706,0.53632 0.14753,0.74905 -0.007,0.16182 -0.016,0.1979 -0.075,0.30816 -0.0861,0.16087 -0.23759,0.30046 -0.32613,0.30046 -0.036,0 -0.0776,-0.0152 -0.095,-0.0346 z m -1.61033,-3.56781 c -0.34342,-0.0574 -0.63596,-0.2708 -0.95433,-0.69622 -0.24448,-0.32671 -0.46253,-0.47684 -0.69454,-0.47823 -0.099,-6e-4 -0.14468,0.009 -0.19858,0.0428 -0.13542,0.0842 -0.19816,0.28641 -0.12953,0.41741 0.0704,0.13436 0.26192,0.25441 0.49905,0.31282 0.17711,0.0436 0.29515,0.0992 0.34475,0.16222 0.0551,0.0701 0.0416,0.12547 -0.0409,0.16794 -0.0877,0.0451 -0.20229,0.0331 -0.43925,-0.046 -0.68237,-0.22787 -1.19005,-0.6951 -1.34296,-1.23597 -0.0395,-0.1398 -0.0355,-0.55757 0.007,-0.71571 0.0891,-0.33233 0.17946,-0.45413 0.75273,-1.015 0.53668,-0.52506 0.63161,-0.76339 0.80405,-2.01848 0.158,-1.15005 0.28927,-1.83737 0.45695,-2.39247 0.29285,-0.96945 0.68161,-1.43885 1.15987,-1.40046 0.48476,0.0389 0.86508,0.62371 1.15261,1.77229 0.13394,0.53501 0.21725,1.0094 0.35666,2.03079 0.13873,1.01647 0.23557,1.34039 0.50597,1.69251 0.0464,0.0604 0.25709,0.28297 0.46821,0.49458 0.32508,0.32582 0.3953,0.4069 0.45864,0.52949 0.19217,0.37195 0.22077,0.80737 0.0769,1.17083 -0.18656,0.47128 -0.66608,0.87499 -1.29156,1.08736 -0.24815,0.0843 -0.36538,0.0952 -0.45007,0.0418 -0.0745,-0.0469 -0.081,-0.0937 -0.023,-0.1674 0.0553,-0.0703 0.1183,-0.10048 0.31424,-0.15051 0.26174,-0.0668 0.45669,-0.18496 0.52581,-0.31862 0.0687,-0.13282 0.0124,-0.32027 -0.12434,-0.41384 -0.059,-0.0404 -0.0949,-0.049 -0.20172,-0.0482 -0.2361,0.002 -0.45026,0.14733 -0.69352,0.47197 -0.32736,0.43689 -0.61613,0.64551 -0.97387,0.70356 -0.14113,0.0229 -0.18199,0.0228 -0.32523,-10e-4 z"
       id="smellIcon" /><path
       style="fill:#000000;stroke-width:0.0465107"
       d="m 111.93519,236.94574 c -0.19247,-0.0254 -0.36851,-0.15318 -0.4582,-0.33266 -0.0497,-0.0994 -0.0675,-0.19353 -0.0592,-0.31284 0.0113,-0.16353 0.0698,-0.28753 0.18943,-0.40159 0.0683,-0.0651 0.19519,-0.14321 0.2095,-0.12891 0.004,0.004 -0.005,0.0287 -0.018,0.0559 -0.0134,0.0272 -0.0198,0.0465 -0.014,0.043 0.006,-0.004 0.007,0.009 0.004,0.0287 -0.01,0.0483 0.0142,0.16829 0.0468,0.23567 0.0353,0.073 0.11448,0.15109 0.19646,0.1939 0.059,0.0308 0.0783,0.0343 0.18874,0.0346 0.11684,2.8e-4 0.12697,-0.002 0.2002,-0.0415 0.0923,-0.05 0.15417,-0.1153 0.19809,-0.20894 0.0272,-0.058 0.0324,-0.0863 0.0324,-0.17524 0,-0.0977 -0.004,-0.11293 -0.0445,-0.1928 l -0.0445,-0.0867 0.0937,-0.0332 c 0.10479,-0.0372 0.18351,-0.0747 0.28607,-0.13634 0.0381,-0.0229 0.0727,-0.0417 0.0769,-0.0417 0.004,0 0.008,0.0329 0.008,0.0732 0,0.0871 0.04,0.30705 0.0762,0.41903 0.0612,0.18942 0.17515,0.39659 0.30617,0.55672 0.0856,0.10459 0.0912,0.0928 -0.084,0.17634 -0.31413,0.14971 -0.69705,0.25106 -1.0182,0.26947 -0.26315,0.0151 -0.29775,0.0156 -0.371,0.006 z m 10.57882,4e-4 c -0.0846,-0.005 -0.18317,-0.0129 -0.21905,-0.0179 l -0.0652,-0.009 0.0597,-0.0634 c 0.12412,-0.13164 0.23858,-0.33531 0.29125,-0.51821 0.0339,-0.11752 0.0612,-0.34731 0.0512,-0.43026 -0.003,-0.0276 -0.009,-0.0801 -0.0134,-0.11666 l -0.007,-0.0665 0.23142,0.008 c 0.45447,0.0149 0.7678,0.0894 0.94558,0.22504 0.10937,0.0834 0.16117,0.31312 0.10451,0.46336 -0.0753,0.1996 -0.35905,0.3776 -0.75715,0.47494 -0.2012,0.0492 -0.38769,0.0645 -0.62145,0.0511 z m -0.78143,-0.14676 c -0.1973,-0.068 -0.25371,-0.0921 -0.42456,-0.18087 -0.14567,-0.0757 -0.41778,-0.24785 -0.4182,-0.26455 -1e-4,-0.004 0.0316,-0.0317 0.0706,-0.061 0.11554,-0.087 0.29527,-0.26789 0.38572,-0.38814 0.0902,-0.1199 0.21634,-0.34987 0.25103,-0.45761 0.0241,-0.075 0.0222,-0.075 0.13101,-0.001 0.1103,0.0749 0.3141,0.16847 0.4557,0.20922 0.0683,0.0197 0.13109,0.0357 0.13958,0.0357 0.0214,0 0.0296,0.0448 0.0386,0.21022 0.0157,0.28868 -0.0516,0.51084 -0.21838,0.72039 -0.0845,0.10622 -0.21772,0.22636 -0.24978,0.22529 -0.0142,-4e-4 -0.0868,-0.0219 -0.16128,-0.0476 z m -8.0547,-0.39187 c -0.0423,-0.0455 -0.11027,-0.13259 -0.15565,-0.19963 -0.17292,-0.25544 -0.25835,-0.58627 -0.22564,-0.87373 l 0.0133,-0.11691 0.1202,-0.12306 c 0.17659,-0.18079 0.33804,-0.3734 0.52612,-0.6276 0.0401,-0.0542 0.078,-0.10014 0.0843,-0.10221 0.006,-0.002 0.0265,0.045 0.0448,0.1046 0.0629,0.20395 0.15464,0.38542 0.2771,0.54791 0.0945,0.12534 0.19168,0.21846 0.32707,0.31333 l 0.0972,0.0681 -0.0339,0.0448 c -0.16717,0.22098 -0.51754,0.59705 -0.69523,0.74626 -0.1267,0.10638 -0.32134,0.25233 -0.33599,0.25193 -0.007,-1.9e-4 -0.0266,-0.0154 -0.0437,-0.0339 z m 6.95707,-0.25255 c -0.008,-0.008 -0.0949,-0.0951 -0.19283,-0.19321 -0.15877,-0.15904 -0.37678,-0.40128 -0.37695,-0.41882 -3e-5,-0.004 0.0179,-0.0169 0.0399,-0.0294 0.0753,-0.043 0.21568,-0.15326 0.29403,-0.23092 0.19359,-0.19189 0.31883,-0.40946 0.39784,-0.69109 l 0.0202,-0.072 0.0885,0.11409 c 0.12747,0.16432 0.24103,0.29578 0.37476,0.43384 l 0.11715,0.12096 -0.0266,0.10055 c -0.075,0.28392 -0.29904,0.59022 -0.59428,0.81244 -0.0946,0.0712 -0.11615,0.0793 -0.14183,0.0535 z m 0.30546,-0.47316 c 0.0153,-0.0195 0.0149,-0.02 -0.005,-0.005 -0.0118,0.009 -0.0215,0.019 -0.0215,0.0215 0,0.0101 0.0101,0.004 0.0262,-0.0169 z m 0.0985,-0.0984 c 0.0153,-0.0195 0.0149,-0.02 -0.005,-0.005 -0.0118,0.009 -0.0215,0.019 -0.0215,0.0215 0,0.0101 0.0101,0.004 0.0262,-0.0169 z m 0.0984,-0.0985 c 0.0153,-0.0195 0.0149,-0.02 -0.005,-0.005 -0.0118,0.009 -0.0215,0.019 -0.0215,0.0215 0,0.0101 0.0101,0.004 0.0262,-0.0169 z m 0.0985,-0.0984 c 0.0153,-0.0195 0.0149,-0.02 -0.005,-0.005 -0.0118,0.009 -0.0215,0.019 -0.0215,0.0215 0,0.0101 0.0101,0.004 0.0262,-0.0169 z m 0.11533,-0.11383 c 0.0123,-0.0135 0.0195,-0.0246 0.0161,-0.0246 -0.004,0 -0.0162,0.0111 -0.0284,0.0246 -0.0123,0.0135 -0.0195,0.0246 -0.0161,0.0246 0.004,0 0.0162,-0.0111 0.0284,-0.0246 z m -9.20528,0.81282 c -0.0617,-0.0312 -0.0919,-0.0807 -0.0919,-0.15019 1.4e-4,-0.16433 0.21079,-0.23325 0.3051,-0.0998 0.0393,0.0555 0.0443,0.10563 0.0168,0.16774 -0.0419,0.0947 -0.13785,0.129 -0.23006,0.0823 z m 7.53682,-1.04128 c -0.11112,-0.15272 -0.23064,-0.31555 -0.26559,-0.36183 -0.11915,-0.1578 -0.1159,-0.13025 -0.0315,-0.26788 0.19523,-0.31852 0.33243,-0.69966 0.38437,-1.06772 0.0246,-0.17436 0.0175,-0.16669 0.0849,-0.0909 0.15621,0.17551 0.51677,0.63908 0.66895,0.86006 0.0116,0.0169 0.0305,0.0437 0.0419,0.0594 0.049,0.0679 -0.006,0.36177 -0.10691,0.57433 -0.064,0.13444 -0.13059,0.22908 -0.23644,0.33622 -0.0856,0.0867 -0.28935,0.23601 -0.32197,0.23601 -0.009,0 -0.10649,-0.12496 -0.21763,-0.27769 z m -4.82924,0.0791 c -0.2927,-0.19577 -0.50689,-0.55495 -0.57141,-0.9582 -0.0214,-0.13385 -0.0393,-0.0965 0.19811,-0.41225 0.20453,-0.27192 0.35805,-0.45753 0.52354,-0.63295 l 0.10953,-0.11611 0.003,0.0977 c 0.012,0.40346 0.17074,0.81048 0.43445,1.11367 l 0.0632,0.0726 -0.054,0.069 c -0.0706,0.0903 -0.18828,0.24974 -0.35802,0.48522 -0.0756,0.10491 -0.16356,0.22542 -0.19541,0.26781 l -0.0579,0.0771 z m 4.23343,-0.87566 c -0.16102,-0.20974 -0.43618,-0.49008 -0.58725,-0.59832 -0.0319,-0.0229 -0.0551,-0.0465 -0.0514,-0.0524 0.004,-0.006 0.002,-0.009 -0.004,-0.008 -0.006,0.002 -0.034,-0.0104 -0.0632,-0.027 -0.0351,-0.0199 -0.0511,-0.0365 -0.0472,-0.049 0.12591,-0.40838 0.19265,-0.75313 0.21151,-1.09255 0.005,-0.0829 0.0106,-0.15075 0.0134,-0.15075 0.0152,0 0.248,0.11612 0.34202,0.17059 0.15233,0.0883 0.36918,0.24586 0.51665,0.3755 0.0683,0.0601 0.12594,0.11068 0.12801,0.11246 0.009,0.008 -0.0252,0.33048 -0.0478,0.45514 -0.0476,0.26268 -0.14501,0.55273 -0.25276,0.75261 -0.0468,0.0868 -0.10126,0.17689 -0.1064,0.17597 -0.002,-2.8e-4 -0.0251,-0.0294 -0.0521,-0.0646 z m -0.52147,-0.7686 c 0.0153,-0.0195 0.0149,-0.02 -0.005,-0.005 -0.0118,0.009 -0.0215,0.019 -0.0215,0.0215 0,0.0101 0.0101,0.004 0.0262,-0.0169 z m 0.0985,-0.0985 c 0.0153,-0.0195 0.0149,-0.02 -0.005,-0.005 -0.0118,0.009 -0.0215,0.019 -0.0215,0.0215 0,0.0101 0.0101,0.004 0.0262,-0.0169 z m 0.0985,-0.0984 c 0.0153,-0.0195 0.0149,-0.02 -0.005,-0.005 -0.0118,0.009 -0.0215,0.019 -0.0215,0.0215 0,0.0101 0.0101,0.004 0.0262,-0.0169 z m 0.0984,-0.0985 c 0.0153,-0.0195 0.0149,-0.02 -0.005,-0.005 -0.0118,0.009 -0.0215,0.019 -0.0215,0.0215 0,0.0101 0.0101,0.004 0.0262,-0.0169 z m -3.14207,0.82251 c -0.22595,-0.28338 -0.34191,-0.61509 -0.34205,-0.97841 -3e-5,-0.0739 0.006,-0.1683 0.0131,-0.20978 0.013,-0.0747 0.014,-0.0761 0.10768,-0.14959 0.27466,-0.21548 0.60579,-0.39121 0.9252,-0.49103 0.15433,-0.0482 0.23381,-0.0661 0.23381,-0.0526 0,0.007 -0.008,0.0441 -0.0182,0.0827 -0.01,0.0386 -0.0239,0.13498 -0.0308,0.21406 -0.0216,0.24688 0.0115,0.49453 0.10467,0.7828 0.0235,0.0728 0.0428,0.13819 0.0428,0.14521 0,0.019 -0.045,0.0272 -0.0612,0.0112 -0.0105,-0.0105 -0.012,-0.009 -0.006,0.008 0.005,0.0126 0.002,0.0215 -0.006,0.0215 -0.0229,0 -0.22385,0.10206 -0.30266,0.15372 -0.14053,0.0921 -0.29598,0.22455 -0.44569,0.37965 -0.0827,0.0857 -0.15191,0.15573 -0.15382,0.15567 -0.002,-5e-5 -0.0295,-0.0327 -0.0613,-0.0727 z m 0.92542,-0.69447 c 0,-0.002 -0.0125,-0.0148 -0.0277,-0.0277 l -0.0277,-0.0234 0.0234,0.0277 c 0.022,0.026 0.0319,0.0333 0.0319,0.0234 z m -0.0985,-0.0984 c 0,-0.002 -0.0125,-0.0148 -0.0277,-0.0277 l -0.0277,-0.0234 0.0234,0.0277 c 0.022,0.026 0.0319,0.0333 0.0319,0.0234 z m -0.0985,-0.0985 c 0,-0.002 -0.0125,-0.0148 -0.0277,-0.0277 l -0.0277,-0.0234 0.0234,0.0277 c 0.0221,0.026 0.0319,0.0333 0.0319,0.0234 z m 1.57517,0.26097 c -0.0732,-0.0325 -0.20202,-0.067 -0.33841,-0.0906 -0.12577,-0.0218 -0.49183,-0.0263 -0.59069,-0.007 -0.0339,0.006 -0.0659,0.008 -0.0712,0.002 -0.0128,-0.0125 -0.0747,-0.19329 -0.10576,-0.30882 -0.0712,-0.26508 -0.0683,-0.5848 0.007,-0.80424 0.0263,-0.0764 0.0398,-0.0991 0.0644,-0.10849 0.0522,-0.0199 0.48421,-0.0273 0.66233,-0.0115 0.21834,0.0194 0.56616,0.086 0.61866,0.11848 0.0264,0.0163 0.007,0.4347 -0.0291,0.6396 -0.0437,0.24548 -0.13441,0.59787 -0.15344,0.59597 -0.005,-3.9e-4 -0.0336,-0.0119 -0.0641,-0.0255 z"
       id="mineralAccIcon" /><text
       xml:space="preserve"
       style="font-style:normal;font-variant:normal;font-weight:normal;font-stretch:normal;font-size:4.93889px;line-height:1.25;font-family:'Matura MT Script Capitals';-inkscape-font-specification:'Matura MT Script Capitals';stroke-width:0.327996"
       x="53.30661"
       y="232.67857"
       id="pgText"><tspan
         sodipodi:role="line"
         id="pgLabelText"
         style="font-style:italic;font-variant:normal;font-weight:normal;font-stretch:normal;font-size:4.93889px;font-family:Elephant;-inkscape-font-specification:'Elephant Italic';stroke-width:0.327996"
         x="53.30661"
         y="232.67857">m106</tspan></text></g><style
     type="text/css"
     id="style1">
	.st0{fill:#000000;}
</style></svg>
