<?xml version="1.0" encoding="UTF-8" standalone="no"?>
<!-- Created with Inkscape (http://www.inkscape.org/) -->

<svg
   width="24.770361mm"
   height="24.899227mm"
   viewBox="0 0 24.770361 24.899227"
   version="1.1"
   id="svg397"
   xml:space="preserve"
   inkscape:version="1.2.2 (732a01da63, 2022-12-09)"
   sodipodi:docname="houpier-canopy.svg"
   xmlns:inkscape="http://www.inkscape.org/namespaces/inkscape"
   xmlns:sodipodi="http://sodipodi.sourceforge.net/DTD/sodipodi-0.dtd"
   xmlns="http://www.w3.org/2000/svg"
   xmlns:svg="http://www.w3.org/2000/svg"><sodipodi:namedview
     id="namedview399"
     pagecolor="#ffffff"
     bordercolor="#666666"
     borderopacity="1.0"
     inkscape:showpageshadow="2"
     inkscape:pageopacity="0.0"
     inkscape:pagecheckerboard="0"
     inkscape:deskcolor="#d1d1d1"
     inkscape:document-units="mm"
     showgrid="false"
     inkscape:zoom="4.4346944"
     inkscape:cx="46.113662"
     inkscape:cy="29.878045"
     inkscape:window-width="1278"
     inkscape:window-height="664"
     inkscape:window-x="-7"
     inkscape:window-y="696"
     inkscape:window-maximized="0"
     inkscape:current-layer="layer1" /><defs
     id="defs394" /><g
     inkscape:label="Calque 1"
     inkscape:groupmode="layer"
     id="layer1"
     transform="translate(-108.02919,-152.26215)"><g
       id="g1860"><g
         id="g33293"><path
           style="fill:#ebf5d5;fill-opacity:1;stroke-width:0.264583"
           d="m 122.29739,176.77275 c -1.17884,-0.91645 -2.78273,-1.23731 -4.04686,-0.3444 -1.33221,0.17472 -1.59954,-1.46017 -2.84393,-1.429 -1.01311,-0.23073 -0.34683,-1.93021 -1.42037,-1.27166 -1.19835,-0.10826 -3.11475,-0.41663 -3.07553,-1.93827 -0.19226,-1.11135 -1.26737,-1.55686 -1.34792,-2.7244 -0.73413,-0.78416 -1.16236,-1.77003 -1.34311,-2.85442 -0.44933,-1.54061 1.78385,-2.30209 0.86066,-3.87306 -0.069,-1.24416 1.20912,-2.15093 0.86038,-3.51264 0.28481,-1.51267 1.53513,-2.6715 2.78604,-3.4882 0.72231,-0.91813 1.69092,-0.60464 2.61356,-0.46345 0.17083,-1.21063 1.39978,-2.15638 2.66833,-2.02718 1.19154,-0.98798 2.77283,-0.12617 4.18035,-0.20349 1.24259,-0.23827 2.55968,0.54351 3.12862,1.2254 1.60062,-0.69003 1.85876,1.6599 3.08908,1.65686 0.85151,-0.25177 2.06383,0.24654 1.11462,1.14996 -0.0856,0.59306 -0.16091,1.20788 -0.53978,1.3682 0.12429,1.55531 2.74213,0.1623 2.70745,2.09017 0.31307,1.17237 -0.71452,2.73657 0.85117,3.19691 0.5822,0.54748 -0.32637,0.9894 0.164,1.66142 0.43333,1.52214 -2.20843,1.29303 -1.21328,2.65893 1.12145,1.15076 0.12962,1.97459 -0.90051,2.53536 -0.311,0.72816 -2.13724,0.18833 -1.16005,0.88724 0.78881,1.5636 -1.17752,2.61171 -2.31646,3.07432 -0.61386,1.38899 -2.04654,1.20381 -3.28535,1.12896 -0.41481,0.56931 -0.17856,2.22059 -1.53111,1.49644 z"
           id="path598" /><path
           style="fill:#ddf1b1;fill-opacity:1;stroke-width:0.264583"
           d="m 122.23124,176.76459 c -1.14788,-0.77888 -2.65101,-1.53586 -3.92483,-0.58187 -0.86584,0.45682 -1.75778,-0.14649 -1.68023,-0.81831 -1.10702,0.0208 -2.03104,-1.13615 -2.23777,-1.68049 -1.15488,0.0476 -2.96078,-0.14393 -3.37073,-1.37348 -0.13005,-1.38092 -1.22716,-2.02444 -1.51499,-3.31002 -0.75852,-1.09776 -1.32326,-2.40574 -1.40008,-3.74189 0.28157,-0.93492 1.81994,-1.28846 1.09243,-2.52973 -0.53086,-1.52746 1.15317,-2.64034 0.83676,-4.25189 0.41677,-1.50517 1.76945,-2.58381 3.06159,-3.38118 0.72021,-1.11042 2.49319,0.65563 2.51163,-1.03047 0.67674,-1.39955 2.37495,-0.95726 3.40957,-1.68821 1.48148,-0.0103 2.95617,0.37278 4.45703,0.35067 1.25346,-0.10725 1.33339,1.61041 2.47441,1.06913 1.45921,0.0908 1.46988,2.32406 3.12323,1.72596 1.57117,-0.10543 0.16498,1.66306 0.13061,2.35409 -0.7814,0.40319 0.58235,1.34282 1.30464,1.02407 1.84281,0.28933 1.00026,2.73936 1.19877,3.85962 0.85673,0.30079 1.24527,1.0955 0.90093,1.83164 0.51468,1.1577 -0.90225,1.87826 -1.43643,2.29081 0.70494,1.06784 1.38912,2.59542 -0.3282,3.04824 -0.33075,0.61617 -1.52194,0.8824 -1.68965,0.80495 1.30554,1.17955 -0.45272,3.16241 -1.85911,2.92951 -0.88942,-0.21357 -0.0447,1.4867 -1.20419,1.51143 -0.97199,0.5021 -2.56206,-0.68104 -2.5475,0.961 -0.13471,0.67949 -0.67134,1.01468 -1.30789,0.62642 z"
           id="path596" /><path
           style="fill:#ddf2ad;fill-opacity:1;stroke-width:0.264583"
           d="m 122.99017,176.89078 c -1.35461,0.0742 -2.31911,-1.6671 -3.51616,-1.25745 -1.06487,0.58394 -2.97281,1.15145 -2.85461,-0.64889 -0.40238,-0.7049 -1.38307,0.7515 -1.66417,-0.51323 -0.12838,-0.62642 0.0158,-1.12143 -0.79141,-0.78084 -1.0158,-0.11648 -3.24006,-0.13559 -2.98864,-1.59948 0.7705,-1.28097 -1.20522,-0.97428 -1.22992,-2.20076 -0.61243,-1.30076 -1.36763,-2.44297 -1.71008,-3.88915 -0.56714,-1.50717 1.30618,-1.8143 1.95783,-2.44289 -1.76632,-0.17518 -1.28709,-2.68343 0.0674,-3.17167 0.35505,-0.19145 -0.83949,-1.0065 -0.32453,-1.64084 0.38772,-1.24058 1.24312,-2.22987 2.27111,-2.98719 0.74783,-0.8438 1.96181,-1.17219 2.92665,-0.8959 0.68392,-0.95145 1.25989,-2.37292 2.70696,-1.90229 1.15971,-0.76939 2.35995,-0.72315 3.63109,-0.30729 1.01961,0.0647 2.08218,-0.0692 3.056,0.31164 0.16127,1.68604 2.35166,0.17968 2.73606,1.7583 0.29679,1.67806 2.58586,-0.12506 2.56325,1.53152 -0.30399,0.71776 -1.33819,2.61212 0.0998,2.62414 1.71504,-0.36596 2.27749,2.00957 1.62156,3.2078 -0.2524,1.08821 2.05093,1.16965 0.90227,2.3862 0.26263,0.96299 -0.0188,1.82447 -1.08025,2.01361 -0.7183,0.96493 1.91568,2.62831 -0.13233,3.04509 -0.6398,0.38373 -0.7011,1.33488 -1.76056,1.05561 -0.96274,0.1019 0.79875,1.13376 -0.0143,1.76798 -0.39543,1.14194 -1.95784,1.28545 -2.59206,1.45888 0.17885,1.35195 -1.54025,1.81699 -2.54453,1.37501 -1.39943,-0.68551 -0.2606,1.93066 -1.33639,1.70209 z"
           id="path594" /><path
           style="fill:#c7de93;fill-opacity:1;stroke-width:0.264583"
           d="m 122.96095,177.01437 c -0.31848,-0.68156 -1.93557,0.41433 -1.60756,-0.7551 -0.8785,-0.86951 -1.81121,-0.84833 -2.76211,-0.15405 -0.94649,0.39497 -2.27059,0.54827 -1.87067,-0.84796 0.085,-1.50459 -2.07202,0.79069 -1.59987,-0.99428 -0.10249,-1.65821 -2.32349,0.6654 -2.93521,-0.84459 -0.51821,-0.0485 -0.82686,-0.5196 -0.95676,-0.7026 -0.87806,0.41608 0.66533,-1.55304 0.58651,-2.11508 -0.091,-0.73033 -0.19845,-0.64756 -0.34963,0.0195 -0.78749,0.88369 -2.18533,-0.14147 -1.7218,-1.17942 -0.18474,-0.30137 -1.43178,-1.07707 -0.69007,-1.04923 0.80469,0.48675 -0.79841,-0.76759 -0.41493,-1.26424 -0.44737,-0.89417 -1.05437,-2.16289 0.35484,-2.61616 0.67899,-0.22795 2.13782,-0.74559 0.68297,-1.16898 -0.69739,-0.15344 -0.8831,-0.61159 -0.44426,-0.94686 -0.24913,-0.82393 0.52272,-1.98438 1.44485,-1.59434 -1.41771,0.0728 -0.9544,-2.92 -0.35441,-2.46371 0.34738,0.7869 0.53711,-1.23287 0.97356,-1.44911 0.33123,-0.7999 1.43001,-1.22982 1.77304,-1.24178 0.57856,-1.55979 2.49887,0.74311 2.91271,-0.29877 -1.19758,0.35884 -0.49953,-1.74187 0.45422,-1.93022 0.64922,-0.9593 1.79458,1.05705 1.86247,-0.36172 1.02396,-1.03443 2.48965,-0.20349 3.692,-0.0484 0.86388,-0.30411 3.17585,0.19945 2.41988,0.77356 -0.22936,-1.06734 -0.51106,1.37951 0.40151,0.55949 0.69136,-0.17784 2.103,-0.53417 2.35527,0.75354 0.003,1.46026 1.58704,0.60837 2.30686,0.80705 -0.70295,0.19115 0.92118,0.6772 -0.0517,0.95828 -0.11533,0.54966 -0.49345,1.99084 -0.71264,1.78505 0.74071,-1.05719 -0.93658,-0.69581 -0.27753,0.24813 0.87821,0.86571 2.97075,-0.41406 2.88775,1.41876 0.416,0.95414 0.33706,2.24489 -0.4146,2.87999 0.8371,-0.11345 2.3052,0.32285 1.29558,1.14608 0.72835,1.17667 -0.18294,2.34101 -1.39964,2.39856 -0.0425,1.00903 2.03767,2.28859 0.19761,2.89088 -0.50003,0.77923 -1.2584,1.81615 -2.04246,0.9435 -1.06466,0.38219 0.8427,0.89549 0.19718,1.13143 0.83206,1.14958 -1.20984,1.49904 -1.70325,2.17417 -0.54011,-0.26623 -1.09256,-0.50717 -0.86696,0.378 0.21283,1.08088 -1.15817,1.15412 -1.47739,1.11053 -0.1655,0.7443 -1.20183,0.0549 -0.35135,-0.17454 -0.56975,-0.22976 -1.08324,0.20066 -1.56222,0.10892 -0.16089,0.38124 0.44444,2.14188 -0.23179,1.7157 z"
           id="path592" /><path
           style="fill:#a4c065;fill-opacity:1;stroke-width:0.264583"
           d="m 123.09519,176.62277 c -0.0422,-0.80822 -2.35287,0.62076 -1.22138,-0.36466 1.09327,-0.86906 0.9467,-2.97834 -0.46631,-3.3998 -0.3307,-1.13571 1.9268,-0.68538 2.59279,-1.24448 1.38648,-0.004 2.45342,-2.60859 3.70041,-1.51524 -0.1162,1.08334 -2.52993,1.83488 -1.23079,2.98411 0.90812,0.97713 -0.52547,2.91165 -1.31345,1.52772 0.7462,-0.20395 1.76364,-0.70194 0.78069,-1.42843 -0.94526,-1.46987 -3.51028,-0.41202 -2.69265,1.32112 0.22308,0.54505 0.35562,2.46279 -0.14146,2.18947 l -0.008,-0.0698 z m -6.34212,-0.64256 c -0.19754,-0.59802 1.11511,-2.10229 0.494,-0.75121 -0.53934,0.72553 0.5556,0.73189 0.77092,0.1751 0.13828,0.60897 -1.07776,1.49198 -1.26492,0.57611 z m 2.57475,-0.97369 c -0.31639,-0.95926 1.64427,-0.6602 0.64601,0.0365 -0.1657,0.67369 -1.0028,0.9237 -0.64601,-0.0365 z m -3.38043,-0.88792 c -0.38199,-1.22855 1.8176,-0.68581 0.66281,0.11979 -0.25,0.33517 -0.97007,0.66845 -0.66281,-0.11979 z m -2.77285,-0.44496 c -0.50936,-0.34804 -2.4763,-1.00614 -0.89815,-1.05603 0.63836,-0.0489 1.2551,1.33916 1.95823,0.20749 0.12099,-0.90845 0.0729,-2.04193 0.86022,-2.74483 0.19805,1.22439 0.70601,2.94714 -0.89239,3.42182 -0.30983,0.13813 -0.68896,0.32459 -1.02791,0.17155 z m 15.73743,-1.77243 c 0.97961,-0.27641 -1.06401,-1.58978 0.0753,-1.04832 0.43478,0.32982 1.11681,1.93218 -0.0753,1.04832 z m -18.52083,-1.42672 c -0.64022,-0.31093 -0.77587,-1.6925 -0.63737,-2.01708 1.5272,-0.60838 2.01297,-2.14372 1.96183,-3.58301 0.24819,-0.84304 1.95392,-1.37792 1.28218,-0.0102 -0.59527,1.44188 0.66362,2.91978 1.40432,3.63669 -1.07978,0.96215 -1.80731,-1.03033 -2.62023,-1.22395 -0.67359,0.56086 -2.01535,1.58145 -1.36935,2.53781 0.40673,0.20228 0.51611,1.29759 -0.0214,0.65974 z m 12.54317,-0.18688 c -0.54011,-0.31727 -0.82481,-2.32509 0.15855,-1.41932 1.37479,-0.30043 2.64708,-1.29013 2.08739,-2.80064 0.27367,-0.98683 0.93842,-2.22356 0.22876,-3.03396 1.04852,-1.14734 1.49788,1.31833 1.23319,2.10087 -0.0614,1.52767 -0.35738,3.2955 -1.7524,4.18681 -0.53579,0.43968 -1.14485,1.48059 -1.95549,0.96624 z m 7.38226,-0.50352 c -0.22173,-1.05111 2.17852,-0.39462 1.13943,-1.56104 -0.42005,-1.02265 -1.07334,-1.10664 -2.04131,-1.40626 -0.84499,-0.4465 -0.77839,-1.61472 0.32134,-1.25688 0.55133,0.22574 0.58149,0.58853 1.05426,0.022 0.72526,0.0624 1.60067,0.095 1.64763,-0.55654 0.45621,1.05283 -1.54375,1.48392 -1.55445,1.78089 1.008,0.6172 1.45748,2.68966 -0.0908,2.55748 0.005,0.5016 -0.41924,1.63157 -0.47608,0.42038 z m -13.81494,-0.45874 c -0.96974,-0.56472 -0.71908,-2.78506 -0.85744,-3.07119 0.80313,0.56488 2.06372,-1.03676 2.31642,0.36922 -0.0337,0.81415 -1.85149,0.64568 -0.78157,1.55081 0.76023,0.39768 0.97182,1.31506 1.65022,0.34408 1.37046,-1.01284 0.63483,1.50543 -0.37367,1.42389 -0.70918,0.26477 -1.54149,0.0333 -1.95396,-0.61681 z m 5.1784,-0.33455 c -0.7516,-0.45704 0.41686,-2.34239 0.341,-0.81062 -0.0269,0.23165 0.17857,1.27136 -0.341,0.81062 z m -1.12917,-0.76198 c -0.51349,-1.43451 1.53421,-0.21538 0.49954,0.60973 -0.32308,0.0645 -0.4753,-0.36309 -0.49954,-0.60973 z m -11.90315,-1.83976 c -1.46144,-0.96043 0.71526,-3.02146 1.70228,-2.25292 0.0347,0.72654 -2.23429,1.52966 -1.09977,1.92354 1.3289,-0.30792 -0.77699,1.83335 -0.60251,0.32938 z m 8.35801,-2.44781 c -1.89901,-0.62434 -0.50134,-2.74757 0.64201,-3.33115 0.9277,-0.94146 2.54726,-1.60675 3.74313,-0.79424 0.63875,0.53014 0.13441,2.44809 -0.2904,2.14794 0.29117,-1.52684 -1.19895,-2.41089 -2.24073,-1.18521 -0.82253,0.46932 -2.50384,1.66452 -1.48507,2.65321 0.66528,0.16887 1.18456,1.27722 0.14228,0.76444 -0.1749,-0.0756 -0.34371,-0.1644 -0.51122,-0.25499 z m -7.53241,-1.11078 c -1.12288,-0.0748 0.099,-1.42632 0.18885,-2.04083 0.71495,-0.49162 0.60624,-0.0338 0.22617,0.46249 -0.11778,0.64077 -0.38293,1.23422 -0.0942,1.74637 l -0.11651,-0.0371 -0.20425,-0.13096 z m 20.36932,-0.006 c -0.51984,-1.06487 2.5685,-2.02922 0.86973,-2.52178 1.0301,-1.40688 1.31793,1.08001 0.83122,1.78241 -0.24738,0.67679 -1.01828,1.23768 -1.70095,0.73937 z m -7.80982,-0.36487 c -0.26636,-0.7661 1.33629,-2.48411 1.04818,-0.8752 -0.19774,0.3821 -0.48444,1.11635 -1.04818,0.8752 z m -8.97919,-0.54859 c -0.6955,-1.67857 0.75109,-3.10474 1.43305,-4.48148 0.0887,-0.9317 -0.32831,-3.35749 1.12596,-2.02053 0.54741,0.25425 0.91002,0.58924 0.47679,1.01727 0.27085,1.33956 1.94882,-0.0239 2.16987,0.8586 -0.53532,1.49737 -2.68079,0.9288 -3.20404,2.52946 -0.54067,0.53667 -0.95324,3.00528 -2.00163,2.09668 z m 15.85454,-0.42404 c -0.65616,-0.89489 -2.70545,-1.69111 -2.20151,-2.84164 0.81246,-0.0391 2.41011,0.24588 2.33191,-1.01036 -0.58385,0.11167 -1.94015,1.05029 -1.37416,-0.27063 0.29858,-0.66553 2.65943,-1.92051 1.74833,-0.43945 0.12533,0.79709 -1.3077,2.31344 0.0801,2.03013 1.18183,0.13525 -0.78133,1.15242 0.1339,1.83657 0.58539,0.68119 -0.14486,1.51163 -0.71854,0.69538 z m -18.72685,-1.51405 c -1.19892,-0.28842 0.54247,-2.87153 0.14969,-1.01544 -0.006,0.52287 1.57053,1.74109 0.2209,1.27179 l -0.19176,-0.11885 z m 13.68097,-0.65405 c 0.0854,-1.2477 -3.03574,-1.17917 -1.68208,-2.40522 1.37955,-0.41886 3.08127,1.69675 2.19265,2.84776 -0.25911,0.0204 -0.3969,-0.25975 -0.51057,-0.44254 z m -12.34666,-1.27243 c -1.00318,-0.0482 -0.11318,-1.43701 0.33767,-0.52956 0.83039,0.17908 0.19592,1.2637 -0.33767,0.52956 z m 3.98959,-3.00191 c -0.55616,-1.15649 1.89065,-2.54189 1.76944,-1.95553 -1.17558,-0.20831 -0.87155,2.5987 -1.76944,1.95553 z m 7.59694,0.21539 c 0.009,-0.73026 2.26911,-1.76792 0.83736,-2.03665 -1.13316,-0.0421 -2.99978,-0.78194 -3.11497,0.90885 -1.1427,0.98682 -1.02576,-2.23712 -2.32928,-1.13227 -0.45095,-0.49609 1.47129,-0.96177 2.04925,-0.58841 1.29626,0.57995 2.89679,-0.0352 4.07847,0.73427 0.25797,0.84306 -0.87908,1.72867 -1.52083,2.11421 z m 1.58054,-0.44638 c -0.24864,-1.39401 2.30605,-0.70066 1.0515,-0.22982 -0.80406,-1.29058 -0.40357,1.48145 -1.0515,0.22982 z"
           id="path590" /><path
           style="fill:#98ae67;fill-opacity:1;stroke-width:0.264583"
           d="m 122.92068,175.85145 c -0.21547,-0.61241 -0.27365,-2.30841 0.21597,-2.18497 0.0613,0.88574 0.50234,2.55755 0.0509,3.00034 -0.13649,-0.25359 -0.1911,-0.54052 -0.26683,-0.81537 z m -6.17954,0.22528 c -0.16065,-0.5668 1.12442,-2.22609 0.50061,-0.81018 -0.56455,0.70364 0.66023,0.72188 0.80626,0.11782 0.18859,0.6325 -0.90172,1.26704 -1.30687,0.69236 z m 9.01383,-1.38693 c 1.53475,-0.27165 -0.85223,-2.57696 0.55367,-1.68868 0.9124,0.52837 0.35254,2.63447 -0.64742,1.916 l 0.0938,-0.22732 z m -12.58043,-1.01616 c -0.72404,0.16627 -1.34104,-1.53001 -0.32092,-0.63989 1.12739,1.32201 2.38673,-0.95678 2.31384,-1.30069 0.50932,1.22084 -0.89118,2.10372 -1.91764,2.04119 l -0.0753,-0.1006 z m 8.85827,-1.09163 c 1.30391,-0.29134 2.68002,-0.49198 3.73192,-1.38838 0.45229,-0.31176 2.11065,-1.87524 1.10764,-0.55666 -0.96895,1.04019 -2.35741,1.522 -3.60796,2.12548 -0.40938,0.13555 -0.89464,0.11478 -1.2316,-0.18044 z m 0.85635,-2.92888 c -0.72843,-0.51722 0.22043,-1.06798 0.39954,-0.23067 -0.0537,-1.35524 2.64379,-0.77473 2.00319,-2.39707 0.83951,-0.6955 0.55006,2.03098 -0.51774,1.79567 -0.62613,0.25089 -1.1403,1.08027 -1.88499,0.83207 z m -5.65517,-0.58824 c -1.67705,-0.48148 -0.83401,-3.22728 0.84022,-2.53492 0.2288,0.38781 -2.17056,0.7811 -1.10005,1.73012 0.77465,0.44625 1.36006,1.15096 2.134,0.28881 1.06544,-0.26121 -0.52792,1.58233 -1.20951,0.99652 -0.26711,-0.0811 -0.49724,-0.25974 -0.66466,-0.48053 z m 14.44241,-0.36072 c 0.16014,-1.18743 -2.03582,-1.93272 -1.99127,-2.16672 1.07862,-0.0397 -0.0878,-0.18209 -0.0706,-0.48661 1.17397,0.35437 2.08125,1.43287 2.31385,2.63002 0.10193,0.24257 -0.29667,0.27085 -0.25198,0.0233 z m -23.03012,-2.32079 c -1.34811,-0.98705 0.43064,-2.7204 1.60967,-2.38866 -0.7465,0.43963 -2.3952,1.18508 -1.32871,2.22712 0.46813,0.27721 1.10127,-0.50555 0.45176,0.37088 -0.27239,0.32364 -0.94907,0.39498 -0.73272,-0.20934 z m 22.31621,-0.0433 c 0.77239,-0.0994 -0.60203,-1.13257 0.39635,-0.66826 0.70794,0.7664 1.26351,-1.57542 1.0877,-0.12656 -0.28083,0.43257 -0.96006,1.01123 -1.48405,0.79482 z m -5.56356,-0.56145 c 1.17156,-0.54863 -0.15933,-2.61751 0.48252,-2.77872 1.42978,0.55697 -0.0648,3.33474 -0.48254,2.77872 z m -8.48449,-2.12235 c -0.95005,-1.094 0.30669,-2.28431 1.20798,-2.88141 0.80285,-1.11491 3.486,-1.53205 3.31195,0.40711 -0.4981,1.41358 -0.10979,-1.10405 -0.81285,-1.07693 -1.42797,-0.20551 -2.54879,1.25891 -3.56119,2.07516 -0.81433,0.80873 1.0603,1.59063 0.44082,1.90805 -0.22584,-0.0924 -0.43537,-0.23946 -0.58671,-0.43198 z m 13.22088,-0.76225 c 0.94013,-0.22601 1.49859,-1.93249 1.46799,-2.04167 0.58356,0.98442 -0.41021,2.18116 -1.46799,2.04167 z m -21.13324,-0.33213 c 0.2669,-0.53591 0.42372,-2.03708 1.08032,-1.87936 -0.57452,0.51217 -0.0535,1.8696 -1.08032,1.87936 z m 4.59941,-1.95395 c -0.51897,-1.16203 1.54832,-3.1444 1.89239,-2.72169 -1.14387,0.99695 -1.92363,2.32096 -1.85584,3.85852 -0.0387,-0.37524 -0.0132,-0.75921 -0.0366,-1.13683 z m 14.65614,0.10046 c -0.56214,-0.12438 -1.77551,-1.66657 -1.09824,-1.52152 0.21335,0.13394 2.1175,2.00512 1.09824,1.52152 z m -18.03419,-0.74135 c -1.1738,-0.31126 0.61336,-3.07646 -0.0233,-1.27994 -0.37372,0.61991 1.56935,2.20846 0.19484,1.38641 z m 18.3578,-1.40023 c 0.88801,-0.41403 0.18946,-1.32949 -0.56926,-0.9201 0.38893,-0.5465 2.06578,-1.98845 1.37069,-0.35772 -0.078,0.6068 -0.8592,1.87795 -1.12679,1.6425 0.10899,-0.12107 0.22129,-0.23925 0.32536,-0.36468 z m -12.89844,-1.97996 c 0.31349,-0.67421 -1.85984,-2.05272 -0.32517,-1.59823 -0.55162,-1.04235 1.49201,-0.633 0.39774,-0.12738 0.6916,0.83963 0.3522,1.29348 0.176,2.22052 -0.20481,0.10921 -0.21795,-0.39936 -0.24857,-0.49491 z m 8.13594,-2.28188 c 1.14153,-0.25703 0.2063,-1.74872 0.44382,-1.49083 1.37108,0.30631 -0.62499,2.55097 -0.83368,1.91815 0.12229,-0.14941 0.26245,-0.28251 0.38986,-0.42732 z m -3.3519,-0.41977 c 0.94171,-1.68199 -2.11912,-1.30875 -2.24589,-0.79543 0.92563,-1.51458 2.8246,-0.34444 4.17977,-0.45085 0.73883,0.0263 1.08746,0.74744 0.0919,0.35237 -1.16502,-0.59964 -1.64823,0.76932 -2.12112,1.32048 -0.20948,-0.0771 0.005,-0.34804 0.0954,-0.42657 z"
           id="path588" /><path
           style="fill:#798f44;fill-opacity:1;stroke-width:0.264583"
           d="m 117.43921,169.0349 c 0.0317,-0.85465 1.06752,0.82058 1.23078,-0.19335 1.40557,-0.72817 -0.35741,1.40633 -1.00068,0.43934 l -0.13001,-0.10858 z"
           id="path586" /></g></g></g></svg>
