<?xml version="1.0" encoding="UTF-8" standalone="no"?>
<!-- Created with Inkscape (http://www.inkscape.org/) -->

<svg
   width="24.770361mm"
   height="24.899227mm"
   viewBox="0 0 24.770361 24.899227"
   version="1.1"
   id="svg397"
   xml:space="preserve"
   inkscape:version="1.2.2 (732a01da63, 2022-12-09)"
   sodipodi:docname="houpier-medium.svg"
   xmlns:inkscape="http://www.inkscape.org/namespaces/inkscape"
   xmlns:sodipodi="http://sodipodi.sourceforge.net/DTD/sodipodi-0.dtd"
   xmlns="http://www.w3.org/2000/svg"
   xmlns:svg="http://www.w3.org/2000/svg"><sodipodi:namedview
     id="namedview399"
     pagecolor="#ffffff"
     bordercolor="#666666"
     borderopacity="1.0"
     inkscape:showpageshadow="2"
     inkscape:pageopacity="0.0"
     inkscape:pagecheckerboard="0"
     inkscape:deskcolor="#d1d1d1"
     inkscape:document-units="mm"
     showgrid="false"
     inkscape:zoom="6.271605"
     inkscape:cx="29.418307"
     inkscape:cy="38.347441"
     inkscape:window-width="1278"
     inkscape:window-height="664"
     inkscape:window-x="-7"
     inkscape:window-y="0"
     inkscape:window-maximized="0"
     inkscape:current-layer="layer1" /><defs
     id="defs394" /><g
     inkscape:label="Calque 1"
     inkscape:groupmode="layer"
     id="layer1"
     transform="translate(-108.02919,-152.26215)"><g
       id="g2234"><g
         id="g1477"><path
           style="fill:#b8ddda;stroke-width:0.264583;fill-opacity:0.95937502"
           d="m 122.29739,176.77275 c -1.13534,-0.69236 -2.42242,-1.40994 -3.6647,-0.46853 -1.03864,0.50578 -1.94212,-0.46282 -2.1994,-1.0771 -0.92568,0.0887 -1.99877,-0.67402 -1.7612,-1.68817 -1.22174,0.57693 -2.43902,-0.24432 -3.51625,-0.69126 -0.31322,-0.90904 -0.16613,-1.99976 -1.2078,-2.49389 -0.19529,-0.77925 -0.32876,-1.63324 -1.04312,-2.01613 -0.47065,-1.25171 -1.35436,-3.06191 -0.007,-4.07572 1.01885,-0.93671 -0.46935,-2.07073 0.49163,-3.14341 1.00993,-1.0757 -3e-4,-2.5406 1.16736,-3.65993 0.61672,-1.22688 1.92093,-1.92327 3.01682,-2.69748 0.69906,-0.5515 2.02139,0.95179 1.93303,-0.5022 0.47784,-1.07027 1.72463,-1.54277 2.68506,-1.39186 1.0421,-1.09817 2.33633,-0.16329 3.49965,-0.24075 1.28429,0.0636 2.9778,-0.11213 3.40429,1.32813 1.19806,-0.55178 2.16509,0.37431 2.58989,1.44334 0.66262,0.39415 2.92017,-0.39845 1.97421,1.07534 -0.47566,0.45061 -0.0174,1.69884 -0.64992,1.33978 -0.24203,1.32522 1.00401,1.04106 1.81562,1.09687 1.364,0.75213 0.85137,2.63313 0.74951,3.7657 0.4124,0.42618 1.85977,0.81593 0.90414,1.51043 0.54064,1.03936 0.10584,2.34219 -1.1535,2.41524 -0.47839,1.02257 1.88805,2.49515 -0.10284,3.06703 -0.7063,0.54821 -1.25317,1.21349 -2.19975,0.99194 1.40759,1.06947 0.11967,2.43314 -0.9467,3.1003 -1.38285,-0.11143 -1.30993,1.93559 -2.81694,1.52202 -0.79861,0.19451 -1.85693,-0.54267 -1.65631,0.74163 -0.0421,0.72943 -0.62551,1.14523 -1.30569,0.74868 z"
           id="path598" /><path
           style="fill:#a3d1cd;fill-opacity:1;stroke-width:0.264583"
           d="m 122.23124,176.76459 c -1.16725,-0.62711 -2.33474,-1.61206 -3.64694,-0.6792 -0.63385,0.27067 -2.25472,0.51081 -1.75604,-0.68341 -1.0582,-0.17506 -2.47124,-0.75477 -2.21284,-1.77155 -1.2225,0.34367 -2.25246,-0.2725 -3.29505,-0.63351 -0.58544,-0.82021 -0.24288,-2.12964 -1.3792,-2.62216 -0.016,-1.26148 -0.99465,-1.85527 -1.32033,-3.00004 -0.33143,-1.13178 -1.1462,-2.43812 0.29842,-3.05696 1.17751,-0.82223 -0.62243,-2.28829 0.541,-3.38014 0.83902,-1.02378 0.056,-2.85831 1.33408,-3.82844 0.716,-1.13892 2.0514,-1.88442 3.15954,-2.50856 0.64586,0.1336 1.64323,0.81002 1.55279,-0.3417 0.47784,-1.07027 1.72463,-1.54277 2.68506,-1.39186 1.0421,-1.09817 2.33633,-0.16329 3.49965,-0.24075 1.28429,0.0636 2.9778,-0.11213 3.40429,1.32813 1.19806,-0.55178 2.16509,0.37431 2.58989,1.44334 0.66262,0.39415 2.92017,-0.39845 1.97421,1.07534 -0.47566,0.45061 -0.0174,1.69884 -0.64992,1.33978 -0.24203,1.32522 1.00401,1.04106 1.81562,1.09687 1.36372,0.75301 0.85248,2.63438 0.74893,3.76997 0.66772,0.43026 1.69407,0.8675 0.95037,1.69063 0.50562,1.20302 -0.3222,2.09689 -1.39475,2.34241 0.11358,0.87632 1.7267,2.28928 0.30514,2.84683 -0.92081,0.3445 -1.20628,1.48948 -2.39894,1.08032 1.28519,1.01147 0.23502,2.54282 -1.02502,2.95493 -0.61298,0.41697 -1.49214,-0.55799 -1.09163,0.65938 -0.28279,1.31236 -2.0799,1.13557 -3.03895,0.88739 -0.40321,0.70521 -0.30576,2.27667 -1.5868,1.63721 l -0.0629,-0.0143 z"
           id="path596" /><path
           style="fill:#a3d1cd;fill-opacity:1;stroke-width:0.264583"
           d="m 122.99017,176.89078 c -1.11789,-0.18893 -2.07832,-0.7938 -2.9585,-1.46875 -0.95639,0.30447 -2.11818,1.09241 -3.18671,0.70188 -0.088,-0.6448 -0.18121,-2.02491 -0.99682,-1.10665 -0.99649,0.20883 -1.05489,-1.18173 -0.98915,-1.4497 -1.26782,0.37041 -2.35424,-0.13268 -3.43352,-0.51052 -0.95775,-0.69568 0.79035,-2.10002 -0.71681,-2.02366 -0.90303,-0.67587 -0.77712,-1.99923 -1.64049,-2.58925 -0.15343,-1.22357 -1.50405,-2.65994 -0.53892,-3.8978 0.33006,-0.49014 2.82719,-0.90373 1.09184,-1.13847 -1.26374,-0.81594 -0.33227,-2.75076 0.85922,-3.10588 -1.40209,-0.95348 -0.0494,-2.64262 0.64254,-3.66456 1.11857,-0.71507 2.33514,-2.53706 3.87219,-1.6767 0.7813,-0.45715 0.85188,-2.03818 2.07372,-2.05605 1.12053,0.43098 1.80211,-0.82936 2.92601,-0.61854 1.30742,0.71241 3.06126,0.0981 4.53294,0.67842 0.1686,0.96858 0.83294,1.11655 1.67008,0.84388 1.20244,0.13628 1.10314,2.20951 2.51154,1.72143 1.2709,-0.41977 1.40027,0.7174 0.74236,1.51152 -0.27677,0.83898 -0.66258,2.18259 0.71283,1.78189 1.60925,0.017 1.81212,1.8174 1.50923,3.01957 -0.89064,1.39928 1.92888,1.11992 0.84402,2.34366 -0.31359,0.72631 0.59078,1.79096 -0.67736,2.05782 -1.70045,0.5755 0.43402,1.73449 0.20058,2.77685 -0.19354,0.68936 -1.49765,0.24983 -1.34986,1.26272 -0.45735,0.61902 -2.37327,-0.10472 -1.2172,0.88053 0.64356,1.337 -1.13219,2.57562 -2.22536,2.59391 -0.70878,-0.72942 -0.048,1.1666 -1.01173,1.29507 -0.80353,0.40836 -1.44645,0.40589 -2.18239,0.003 -1.02272,0.0584 -0.0854,2.15413 -1.06428,1.83429 z"
           id="path594" /><path
           style="fill:#2e978e;fill-opacity:1;stroke-width:0.264583"
           d="m 122.96095,177.01437 c -0.26879,-0.74476 -1.96856,0.51403 -1.60756,-0.7551 -0.51363,-0.58459 -1.05328,-0.43108 -1.49534,-0.84238 -0.79574,0.64412 -2.0929,1.05761 -3.10857,0.94615 -0.083,-0.54925 0.23629,-2.33004 -0.84449,-1.49377 -0.44732,0.19117 -0.95033,0.38881 -0.80142,-0.42884 0.25794,-2.03014 -1.91539,0.42187 -2.75392,-0.88046 -0.40211,-0.46037 -1.14114,-0.18793 -0.95437,-0.86689 -0.50075,-0.0206 -0.53533,0.70643 -0.40052,-0.1796 0.23754,-0.82064 1.25592,-1.6971 0.60983,-2.56332 0.20464,1.53791 -2.36703,1.17602 -1.83466,-0.27467 0.11833,-0.68176 -1.42441,-0.88249 -0.83332,-1.41779 0.68351,0.81279 0.41602,-3.9e-4 -0.15551,-0.3269 -0.26861,-0.51938 0.0645,-1.06669 -0.52567,-1.66959 -0.82365,-1.18353 0.80044,-1.84563 1.69094,-2.13523 1.72021,-0.52343 -2.22026,-1.04478 -0.65755,-1.56575 -0.36931,-0.85337 0.37318,-2.171 1.38843,-1.75925 -1.5184,-0.19822 -0.85122,-2.79064 -0.35423,-2.6879 -0.039,1.38247 0.55357,-0.31347 0.664,-0.79445 0.43226,-0.62772 1.58272,-2.19409 2.00777,-1.41969 0.31844,-1.50078 1.95737,-0.47397 2.73435,-0.1399 0.5243,-0.29336 0.18247,-0.72587 -0.0962,-0.23375 -0.96835,-0.92638 0.47647,-2.03937 1.32272,-2.37002 0.78115,-0.13822 1.13486,1.25484 1.34318,-0.0996 1.03407,-1.16467 2.87199,0.024 4.21692,-0.0112 0.61728,-0.29756 2.86129,0.0677 1.84007,0.90615 0.37457,-1.01193 -0.62009,-0.28075 -0.10217,0.32718 0.23539,0.72197 0.87749,-0.58915 1.12991,0.1019 1.01948,-0.68796 1.70222,0.0622 1.87095,1.08153 0.2623,1.21027 2.14977,-0.0195 2.21984,0.4397 -0.8487,0.2474 0.98429,0.40853 -0.0517,0.95828 -0.31757,0.59154 -0.0802,1.6766 -0.86036,1.88604 0.90727,-0.5154 -0.15843,-1.45416 -0.22766,-0.31765 -0.11485,1.58361 3.05696,0.18869 2.78415,1.22169 0.14878,0.64555 0.99331,2.40104 -0.0638,3.31987 -0.81762,0.52295 1.22315,-0.0666 1.50881,0.68631 0.31051,0.51345 -0.68137,0.14445 -0.26822,0.92431 0.34539,0.95902 0.0791,1.97704 -1.10808,1.94075 -1.512,0.51296 1.14888,1.52848 0.54754,2.70671 -0.98098,0.0156 -1.15698,1.68137 -2.23256,1.76465 -0.24171,-0.94474 -1.5852,-0.0851 -0.40875,0.30111 0.74023,0.60864 -0.40781,0.0556 0.21928,0.54882 0.4276,1.24679 -1.3071,1.10875 -1.60551,1.95401 -0.71621,0.41502 -1.19445,-0.96983 -1.1373,0.28055 0.1257,0.95861 -0.62518,1.74202 -1.42711,1.0867 -0.009,0.58203 -0.7997,0.82268 -0.71527,0.18484 0.95474,-0.22796 -0.45882,-0.44472 -0.71137,0.0345 -1.2634,-0.88156 0.14902,1.85165 -0.74675,1.77747 -0.005,-0.0452 -0.003,-0.10118 -0.009,-0.14556 z"
           id="path592" /><path
           style="fill:#11897f;fill-opacity:1;stroke-width:0.264583"
           d="m 123.09519,176.62277 c 0.11145,-0.8479 -2.22858,0.63927 -1.43612,-0.25429 1.21826,-0.45382 1.27337,-3.16497 -0.0428,-3.31714 -1.37323,-1.11238 1.54898,-0.85279 2.11864,-1.3986 1.46177,-0.13392 2.15312,-1.48976 3.4202,-1.95177 1.80187,0.61275 -1.35669,1.76158 -1.10058,2.90204 0.90312,0.58992 0.9714,2.85454 -0.48904,2.42892 -1.61287,-0.78717 1.87299,-0.45431 0.51289,-1.6345 -0.67058,-1.22071 -2.7305,-1.30461 -2.9548,0.24831 0.0437,1.00914 0.72841,2.70763 0.003,3.25625 z m -6.34212,-0.64256 c -0.11726,-0.50631 0.98264,-2.2275 0.60516,-0.92253 -0.6887,0.97523 0.19787,0.95816 0.65976,0.34642 0.11708,0.62957 -1.07488,1.48924 -1.26492,0.57611 z m 2.57475,-0.97369 c -0.23814,-0.98738 1.63868,-0.74982 0.64601,0.0365 -0.249,0.66878 -0.93786,1.01371 -0.64601,-0.0365 z m -3.38043,-0.88792 c -0.16822,-0.75122 0.5116,-0.9391 0.87336,-0.6173 0.66472,0.0836 -1.28009,2.01449 -0.87336,0.6173 z m -2.77285,-0.44496 c -0.52568,-0.27251 -1.38762,-0.727 -1.65186,-0.91593 0.35516,-0.0361 1.25805,-0.30004 1.19002,-0.11239 0.38684,1.27249 2.13694,0.37373 1.52974,-0.74511 0.11583,-0.55818 0.67365,-1.92204 0.8524,-1.81994 0.0247,1.02825 0.799,2.70377 -0.44837,3.11358 -0.1743,0.22175 -1.09909,0.70348 -1.47193,0.47979 z m 15.73743,-1.77243 c 0.90798,-0.56377 -0.55261,-0.81614 -0.28556,-1.25863 0.57623,0.0177 1.69229,2.28064 0.28556,1.25863 z m -18.52083,-1.42672 c -0.77152,-0.16657 -0.45227,-1.77915 -0.86685,-1.88646 1.22379,-0.67666 2.48574,-1.66777 2.05355,-3.20818 -0.0946,-0.82384 1.90131,-2.26757 1.51032,-0.79072 -0.55362,1.45585 0.0467,3.11654 1.41043,3.72771 -0.45384,1.12665 -1.9246,-0.12795 -2.27462,-0.86441 -0.47797,-0.76288 -1.50133,0.88321 -1.87753,1.41782 -0.72972,0.64152 1.08824,1.63459 0.21045,1.7927 -0.16285,0.0156 -0.14413,-0.10138 -0.16575,-0.18846 z m 12.54317,-0.18688 c -0.50044,-0.3815 -0.88934,-2.43794 0.15855,-1.41932 1.03297,-0.45585 2.67056,-0.80247 2.06845,-2.34237 -0.11953,-1.2083 1.29024,-2.55503 0.17431,-3.3608 0.78402,-1.51724 1.53907,0.71041 1.33127,1.51985 -0.0834,1.58008 -0.17434,3.38735 -1.53183,4.45197 -0.64839,0.38721 -1.33615,1.73135 -2.20075,1.15067 z m 7.38226,-0.50352 c -0.34407,-1.08608 2.24359,-0.35259 1.14452,-1.36499 0.0967,-0.56005 -0.76896,-0.79855 -0.67055,-1.27969 -0.82162,0.01 -1.62417,-0.22583 -1.82463,-0.92577 -0.86215,-0.76874 1.1372,-0.97571 1.35363,-0.20477 0.37385,-0.58376 0.84877,-0.57587 1.56755,-0.3529 0.65088,0.0904 0.31137,-1.37474 0.64893,-0.35771 -0.32509,0.97582 -1.15745,1.1862 -1.82674,1.40271 0.9272,0.44087 1.94372,2.91183 0.1595,2.53725 -0.2443,0.19024 -0.11811,1.68867 -0.58703,0.8212 l 0.0348,-0.27533 z m -13.81494,-0.45874 c -1.14553,-0.66358 -0.32421,-2.23159 -1.07531,-3.15336 0.58013,0.23876 1.17105,0.33996 1.67691,-0.16731 1.23463,-0.17064 1.07659,1.39208 -0.0746,1.28528 -0.77416,0.88456 1.17836,1.13144 1.09028,1.80841 0.43584,-0.31422 1.67117,-1.62176 1.48255,-0.27309 -0.38221,1.23784 -2.26967,1.71936 -3.03379,0.56694 l -0.0496,-0.0501 -0.0165,-0.0167 z m 5.1784,-0.33455 c -0.6787,-0.55527 0.36795,-2.47407 0.341,-0.81062 -0.0203,0.21622 0.16244,1.30617 -0.341,0.81062 z m -1.12917,-0.76198 c -0.57067,-1.05433 0.99071,-0.94298 0.69478,0.0722 0.0175,0.86957 -0.63069,0.60379 -0.69478,-0.0722 z m -11.90315,-1.83976 c -1.33351,-1.13172 0.26856,-2.3205 1.44477,-2.51037 1.17634,0.66943 -1.90592,1.48359 -1.0539,2.2548 1.25491,-0.4968 0.444,0.71552 -0.18249,0.8243 -0.16938,-0.1334 -0.17083,-0.3759 -0.20838,-0.56873 z m 8.35801,-2.44781 c -1.6535,-0.45455 -0.90931,-2.49898 0.29227,-2.91177 0.81597,-1.1627 2.62659,-2.02257 3.95935,-1.33393 0.78762,0.57114 0.34266,2.32886 -0.16746,2.47581 0.0923,-1.0704 -0.38354,-2.79863 -1.70266,-1.69504 -0.91295,0.51226 -2.02024,1.14314 -2.32904,2.13673 -0.38488,0.93849 1.6414,1.1897 1.00164,1.7567 -0.37546,-0.0716 -0.72085,-0.24826 -1.0541,-0.4285 z m -7.53241,-1.11078 c -0.65931,-0.15324 -0.65404,-0.0969 -0.28132,-0.73259 0.15498,-0.52303 0.34487,-1.85911 1.13767,-1.44729 -0.65232,0.2414 -0.43307,1.52166 -0.76753,1.78708 0.15398,0.15156 0.58731,0.88606 -0.0888,0.3928 z m 20.36932,-0.006 c -0.46674,-1.11912 2.25541,-1.81255 1.20608,-2.51017 -1.09496,0.25059 0.77558,-1.22443 0.57434,0.0404 0.5056,1.08839 -0.4345,3.31763 -1.78042,2.4698 z m -7.80982,-0.36487 c -0.12239,-0.65717 1.10578,-2.56573 1.13122,-1.04776 -0.20288,0.40391 -0.55061,1.33001 -1.13122,1.04776 z m -8.97919,-0.54859 c -0.58075,-1.39401 0.36896,-2.82392 1.15648,-3.9177 0.76648,-0.89229 -0.13921,-2.47177 0.58872,-3.12893 0.45781,0.4402 1.52321,0.80222 1.57271,1.22636 -0.90421,0.26935 0.57421,1.48216 1.19106,0.86211 1.58413,-0.37339 0.15284,1.59412 -0.75376,1.4371 -1.45947,0.33396 -1.97136,1.86412 -2.60424,3.04739 -0.22541,0.41133 -0.77376,1.13425 -1.15097,0.47367 z m 15.85454,-0.42404 c -0.72538,-0.94343 -2.42411,-1.51901 -2.36646,-2.82364 0.82255,-0.12922 2.62044,0.32306 2.49686,-1.02836 -0.70507,-0.17239 -1.42466,1.29599 -1.5339,0.0113 0.2649,-0.71914 1.93417,-1.77433 2.23018,-1.37321 -0.61403,0.84579 -0.33689,1.80484 -1.0044,2.63723 0.50951,0.1191 1.87039,-0.18562 0.85868,0.7838 -0.71056,0.47025 1.11092,2.25101 -0.3124,2.09144 -0.20919,0.0113 -0.26957,-0.17589 -0.36856,-0.29854 z m -18.72685,-1.51405 c -1.15329,-0.29505 0.52968,-2.99031 0.16438,-1.14665 -0.20894,0.66556 1.79249,1.92868 0.20621,1.403 -0.13155,-0.073 -0.25629,-0.15847 -0.37059,-0.25635 z m 13.68097,-0.65405 c -0.0836,-1.29988 -2.24853,-0.97707 -2.0722,-2.09882 0.96135,-1.14926 2.64743,0.49722 2.8283,1.62175 0.1741,0.67669 -0.24313,1.42157 -0.7561,0.47707 z m -12.34666,-1.27243 c -0.99443,0.0214 -0.22439,-1.54384 0.17663,-0.54303 0.93875,-0.008 0.58104,1.33412 -0.17663,0.54303 z m 3.98959,-3.00191 c -0.33391,-1.04664 1.51852,-2.69562 2.01862,-1.93615 -1.4424,-0.23531 -1.00323,1.71733 -1.85563,2.16261 z m 7.59694,0.21539 c 0.008,-0.74509 2.18722,-1.71247 1.03971,-2.06861 -1.00582,0.25714 -3.26108,-0.96364 -3.15461,0.71468 -0.90754,1.42382 -1.15714,-0.74886 -1.7857,-1.14168 -0.29315,0.0698 -1.35245,0.58645 -0.71353,-0.0844 1.12134,-0.86845 2.48462,0.0139 3.72223,0.0352 0.80733,0.1014 3.11538,-0.22727 2.33457,1.21416 -0.4979,0.41856 -0.78149,1.13057 -1.44267,1.33064 z m 1.58054,-0.44638 c -0.14869,-1.16592 2.16409,-1.15439 1.15486,-0.0888 -0.58165,-0.82665 -0.66697,-0.44219 -0.72727,0.2782 -0.172,0.2577 -0.44727,0.0801 -0.42759,-0.18941 z"
           id="path590" /><path
           style="fill:#0c726a;fill-opacity:1;stroke-width:0.264583"
           d="m 122.92068,175.85145 c -0.22075,-0.69383 -0.23447,-2.19537 0.1712,-2.37526 0.25761,1.01156 0.20357,2.07892 0.32245,3.09265 -0.18894,0.6419 -0.44659,-0.55476 -0.49365,-0.71739 z m -6.17954,0.22528 c -0.0678,-0.70748 1.19914,-2.38407 0.50061,-0.81018 -0.55824,0.83776 0.57127,0.66404 0.80626,0.11782 0.21347,0.61746 -0.94102,1.27542 -1.30687,0.69236 z m 9.01383,-1.38693 c 1.12597,-0.48917 0.19789,-1.49401 -0.069,-1.96343 1.32675,0.13685 1.50569,2.43047 0.14644,2.3758 -0.3109,-0.0914 -0.1198,-0.26461 -0.0774,-0.41237 z m -12.58043,-1.01616 c -0.80121,0.0404 -1.43499,-1.56233 -0.32092,-0.63989 1.09799,1.02882 2.30925,-0.28069 2.22548,-1.47159 0.55058,0.8959 -0.18931,2.07077 -1.21053,2.07899 -0.23812,-0.0358 -0.50168,0.39285 -0.69403,0.0325 z m 8.85827,-1.09163 c 0.89467,-0.28574 2.39615,-0.31185 3.32468,-1.14607 0.63239,-0.27035 1.86292,-1.54699 1.93664,-1.41851 -0.63369,1.22236 -1.93665,1.75544 -3.10833,2.30574 -0.6326,0.37378 -1.48108,0.81234 -2.15299,0.25884 z m 0.85635,-2.92888 c -0.7062,-0.65486 0.0856,-1.08975 0.39954,-0.23067 -0.12704,-1.42041 2.56926,-0.58631 2.00319,-2.39707 0.6184,-1.0936 0.7276,1.64104 -0.24131,1.69844 -0.72816,0.14911 -1.53948,1.28242 -2.16142,0.9293 z m -5.65517,-0.58824 c -1.55479,-0.55303 -1.05497,-2.99317 0.65941,-2.54594 1.16963,0.0315 -1.06177,0.50651 -1.11668,1.09103 -0.34163,0.79452 1.05135,0.84678 1.33424,1.47312 0.40802,0.007 1.82823,-1.37441 1.26887,-0.17133 -0.50479,0.81759 -1.53959,0.94608 -2.14584,0.15312 z m 14.44241,-0.36072 c -0.10481,-1.19637 -1.45125,-1.832 -2.22863,-2.15095 0.65036,-0.0412 1.22364,-0.0822 0.22708,-0.29333 -0.57356,-0.60629 1.15299,0.26139 1.24902,0.6382 0.54717,0.26731 1.36984,2.17084 0.82884,1.96589 -0.0254,-0.0533 -0.0509,-0.10654 -0.0763,-0.15981 z m -23.03012,-2.32079 c -1.27527,-1.08455 0.14171,-2.26519 1.32019,-2.46451 1.03911,0.0487 -1.03373,0.59112 -1.18248,1.07926 -0.61179,0.41819 0.22084,1.95376 0.84997,1.04392 0.27578,0.36353 -1.22904,1.41433 -0.98768,0.34133 z m 22.31621,-0.0433 c 0.90447,-0.19436 -0.81198,-1.10943 0.39635,-0.66826 0.82077,0.5899 0.99239,-0.81936 1.06337,-0.71075 0.54687,0.75464 -1.3054,1.73707 -1.45972,1.37901 z m -5.56356,-0.56145 c 1.05639,-0.70314 0.0794,-2.71763 0.24881,-2.88546 1.36333,0.47184 0.8271,2.57006 -0.18053,3.0791 -0.19508,0.093 -0.28978,-0.10505 -0.0683,-0.19364 z m -8.48449,-2.12235 c -1.16127,-1.41063 0.85389,-2.60808 1.84649,-3.34102 0.85381,-0.85656 2.96014,-0.67091 2.67344,0.86672 -0.29667,1.33734 -0.41963,-0.28492 -0.39765,-0.76201 -1.08583,-1.19359 -2.36317,0.62246 -3.33637,1.14516 -0.92347,0.4778 -1.1332,1.68418 -0.0842,2.10171 0.43052,0.84705 -0.50328,0.28028 -0.7017,-0.0106 z m 13.22088,-0.76225 c 0.81703,-0.5237 1.61628,-1.27015 1.3469,-2.23229 0.7394,1.00724 -0.0429,2.19232 -1.19384,2.24872 l -0.1531,-0.0164 z m -21.13324,-0.33213 c 0.17566,-0.59904 0.80935,-2.49248 1.08032,-1.87936 -0.67413,0.58403 0.11962,1.50803 -0.9953,1.8855 l -0.0793,0.0375 z m 4.59941,-1.95395 c -0.37398,-1.29852 1.36781,-2.95976 2.05184,-2.91062 -0.82784,1.01748 -2.05384,1.86028 -1.90127,3.35776 -0.0742,0.64047 -0.14111,1.07711 -0.13291,0.19447 -0.006,-0.21386 -0.0117,-0.42782 -0.0177,-0.64161 z m 14.65614,0.10046 c -0.62325,-0.25458 -1.58986,-1.40901 -1.31335,-1.69802 0.4239,0.31435 2.2078,2.01509 1.45747,1.84218 -0.048,-0.048 -0.0961,-0.0961 -0.14412,-0.14416 z m -18.03419,-0.74135 c -1.09676,-0.31574 0.55041,-3.2307 0.068,-1.4489 -0.68081,0.84452 1.90124,2.67903 -0.068,1.4489 z m 18.3578,-1.40023 c 1.04707,-0.79541 0.0636,-1.13946 -0.56926,-0.9201 0.26035,-0.36248 1.55459,-1.48843 1.54356,-1.14685 -0.1304,0.95122 -0.68175,2.47413 -1.40714,2.55406 0.14072,-0.16555 0.29405,-0.31984 0.43284,-0.48711 z m -12.89844,-1.97996 c 0.25022,-0.83864 -2.03863,-2.1575 -0.32517,-1.59823 -0.44438,-0.96344 1.16086,-0.90879 0.62994,-0.20085 -0.83588,-0.0935 0.91093,1.16959 0.0197,1.20847 0.22023,0.50886 -0.12673,1.80849 -0.32061,0.64143 l -0.004,-0.0509 z m 8.13594,-2.28188 c 0.57167,-0.24497 1.11518,-1.44446 0.15484,-1.49121 1.75192,-0.15785 0.0394,2.35649 -0.65914,2.07361 0.14094,-0.21606 0.33497,-0.3899 0.5043,-0.5824 z m -3.3519,-0.41977 c 0.89587,-1.51342 -1.69133,-1.59304 -2.30892,-0.66022 0.63478,-1.51285 2.4901,-0.73686 3.6804,-0.58511 0.56227,-0.22173 2.21903,0.61069 0.84134,0.42992 -1.00434,-0.47897 -1.91672,0.015 -1.99516,1.09031 -0.33294,0.33079 -0.5887,0.0789 -0.21766,-0.2749 z"
           id="path588" /><path
           style="fill:#01514a;fill-opacity:1;stroke-width:0.264583"
           d="m 117.43921,169.0349 c -0.0149,-0.96798 0.88934,0.87918 1.23078,-0.19335 1.33708,-0.84788 0.13529,1.05264 -0.68674,0.56461 -0.22132,-0.0409 -0.43451,-0.16941 -0.54404,-0.37126 z"
           id="path586" /></g></g></g></svg>
