<?xml version="1.0" encoding="UTF-8" standalone="no"?>
<!-- Created with Inkscape (http://www.inkscape.org/) -->

<svg
   width="24.770361mm"
   height="24.899227mm"
   viewBox="0 0 24.770361 24.899227"
   version="1.1"
   id="svg397"
   xml:space="preserve"
   inkscape:version="1.2.2 (732a01da63, 2022-12-09)"
   sodipodi:docname="houpier-medium-wireframe.svg"
   xmlns:inkscape="http://www.inkscape.org/namespaces/inkscape"
   xmlns:sodipodi="http://sodipodi.sourceforge.net/DTD/sodipodi-0.dtd"
   xmlns="http://www.w3.org/2000/svg"
   xmlns:svg="http://www.w3.org/2000/svg"><sodipodi:namedview
     id="namedview399"
     pagecolor="#ffffff"
     bordercolor="#666666"
     borderopacity="1.0"
     inkscape:showpageshadow="2"
     inkscape:pageopacity="0.0"
     inkscape:pagecheckerboard="0"
     inkscape:deskcolor="#d1d1d1"
     inkscape:document-units="mm"
     showgrid="false"
     inkscape:zoom="12.54321"
     inkscape:cx="24.276083"
     inkscape:cy="18.814961"
     inkscape:window-width="2560"
     inkscape:window-height="1369"
     inkscape:window-x="-8"
     inkscape:window-y="-8"
     inkscape:window-maximized="1"
     inkscape:current-layer="layer1" /><defs
     id="defs394" /><g
     inkscape:label="Calque 1"
     inkscape:groupmode="layer"
     id="layer1"
     transform="translate(-108.02919,-152.26215)"><path
       style="fill:#d8d8d8;stroke-width:0.264583;stroke:#000000;stroke-opacity:1;fill-opacity:0.04776119"
       d="m 122.29739,176.77275 c -1.13534,-0.69236 -2.42242,-1.40994 -3.6647,-0.46853 -1.03864,0.50578 -1.94212,-0.46282 -2.1994,-1.0771 -0.92568,0.0887 -1.99877,-0.67402 -1.7612,-1.68817 -1.22174,0.57693 -2.43902,-0.24432 -3.51625,-0.69126 -0.31322,-0.90904 -0.16613,-1.99976 -1.2078,-2.49389 -0.19529,-0.77925 -0.32876,-1.63324 -1.04312,-2.01613 -0.47065,-1.25171 -1.35436,-3.06191 -0.007,-4.07572 1.01885,-0.93671 -0.46935,-2.07073 0.49163,-3.14341 1.00993,-1.0757 -3e-4,-2.5406 1.16736,-3.65993 0.61672,-1.22688 1.92093,-1.92327 3.01682,-2.69748 0.69906,-0.5515 2.02139,0.95179 1.93303,-0.5022 0.47784,-1.07027 1.72463,-1.54277 2.68506,-1.39186 1.0421,-1.09817 2.33633,-0.16329 3.49965,-0.24075 1.28429,0.0636 2.9778,-0.11213 3.40429,1.32813 1.19806,-0.55178 2.16509,0.37431 2.58989,1.44334 0.66262,0.39415 2.92017,-0.39845 1.97421,1.07534 -0.47566,0.45061 -0.0174,1.69884 -0.64992,1.33978 -0.24203,1.32522 1.00401,1.04106 1.81562,1.09687 1.364,0.75213 0.85137,2.63313 0.74951,3.7657 0.4124,0.42618 1.85977,0.81593 0.90414,1.51043 0.54064,1.03936 0.10584,2.34219 -1.1535,2.41524 -0.47839,1.02257 1.88805,2.49515 -0.10284,3.06703 -0.7063,0.54821 -1.25317,1.21349 -2.19975,0.99194 1.40759,1.06947 0.11967,2.43314 -0.9467,3.1003 -1.38285,-0.11143 -1.30993,1.93559 -2.81694,1.52202 -0.79861,0.19451 -1.85693,-0.54267 -1.65631,0.74163 -0.0421,0.72943 -0.62551,1.14523 -1.30569,0.74868 z"
       id="path598" /></g></svg>
