<?xml version="1.0" encoding="UTF-8" standalone="no"?>
<!-- Created with Inkscape (http://www.inkscape.org/) -->

<svg
   width="210mm"
   height="297mm"
   viewBox="0 0 210 297"
   version="1.1"
   id="svg5"
   xml:space="preserve"
   inkscape:version="1.2.2 (732a01da63, 2022-12-09)"
   sodipodi:docname="folders.svg"
   xmlns:inkscape="http://www.inkscape.org/namespaces/inkscape"
   xmlns:sodipodi="http://sodipodi.sourceforge.net/DTD/sodipodi-0.dtd"
   xmlns="http://www.w3.org/2000/svg"
   xmlns:svg="http://www.w3.org/2000/svg"><sodipodi:namedview
     id="namedview7"
     pagecolor="#ffffff"
     bordercolor="#666666"
     borderopacity="1.0"
     inkscape:showpageshadow="2"
     inkscape:pageopacity="0.0"
     inkscape:pagecheckerboard="0"
     inkscape:deskcolor="#d1d1d1"
     inkscape:document-units="mm"
     showgrid="true"
     inkscape:zoom="0.5543368"
     inkscape:cx="55.020702"
     inkscape:cy="734.21069"
     inkscape:window-width="2560"
     inkscape:window-height="1369"
     inkscape:window-x="-8"
     inkscape:window-y="-8"
     inkscape:window-maximized="1"
     inkscape:current-layer="layer1"><inkscape:grid
       type="xygrid"
       id="grid418" /></sodipodi:namedview><defs
     id="defs2"><marker
       style="overflow:visible"
       id="marker1254"
       refX="0"
       refY="0"
       orient="auto-start-reverse"
       inkscape:stockid="RoundedArrow"
       markerWidth="3"
       markerHeight="2.25"
       viewBox="0 0 6.1347524 5.9304951"
       inkscape:isstock="true"
       inkscape:collect="always"
       preserveAspectRatio="xMidYMid"><path
         transform="scale(0.7)"
         d="m -0.21114562,-4.1055728 6.42229122,3.21114561 a 1,1 90 0 1 0,1.78885438 L -0.21114562,4.1055728 A 1.236068,1.236068 31.717474 0 1 -2,3 v -6 a 1.236068,1.236068 148.28253 0 1 1.78885438,-1.1055728 z"
         style="fill:context-stroke;fill-rule:evenodd;stroke:none"
         id="path1252" /></marker><marker
       style="overflow:visible"
       id="RoundedArrow"
       refX="0"
       refY="0"
       orient="auto-start-reverse"
       inkscape:stockid="RoundedArrow"
       markerWidth="5"
       markerHeight="2.5"
       viewBox="0 0 6.1347524 5.9304951"
       inkscape:isstock="true"
       inkscape:collect="always"
       preserveAspectRatio="xMidYMid"><path
         transform="scale(0.7)"
         d="m -0.21114562,-4.1055728 6.42229122,3.21114561 a 1,1 90 0 1 0,1.78885438 L -0.21114562,4.1055728 A 1.236068,1.236068 31.717474 0 1 -2,3 v -6 a 1.236068,1.236068 148.28253 0 1 1.78885438,-1.1055728 z"
         style="fill:context-stroke;fill-rule:evenodd;stroke:none"
         id="path1367" /></marker></defs><g
     inkscape:label="Calque 1"
     inkscape:groupmode="layer"
     id="layer1"><path
       d="m 161.49675,145.35382 v -42.799 h -35.27778 v 42.799 c 0,2.55852 0,3.83734 0.83696,4.35416 0.83609,0.51682 1.97997,-0.0547 4.26861,-1.19856 l 10.95552,-5.47864 c 0.77435,-0.3863 1.16152,-0.58032 1.5778,-0.58032 0.41627,0 0.80345,0.19402 1.5778,0.58032 l 10.95551,5.47864 c 2.28864,1.14388 3.43253,1.71538 4.26861,1.19856 0.83697,-0.51682 0.83697,-1.79564 0.83697,-4.35416 z"
       fill="#1c274c"
       id="path334"
       style="stroke-width:8.81944" /><path
       opacity="0.5"
       d="m 20.385635,110.93109 c 0,-7.78343 0,-11.675185 0.611628,-14.91686 2.692488,-14.270566 13.854995,-25.433073 28.125561,-28.125561 3.241675,-0.611628 7.133431,-0.611628 14.916856,-0.611628 3.410214,0 5.115366,0 6.754107,0.153282 7.06508,0.660664 13.766711,3.436584 19.229652,7.965105 1.267001,1.050395 2.472619,2.25619 4.883855,4.667602 l 4.85334,4.8529 c 7.194906,7.194726 10.792356,10.792089 15.099776,13.188861 2.36625,1.316567 4.87715,2.356289 7.48153,3.098709 4.74045,1.35132 9.82751,1.35132 20.0025,1.35132 h 3.29583 c 23.2163,0 34.82357,0 42.36949,6.78621 0.69409,0.62424 1.35467,1.28481 1.9782,1.97882 6.78656,7.54521 6.78656,19.15327 6.78656,42.36923 v 19.42129 c 0,33.25989 0,49.89072 -10.33286,60.2227 -10.33198,10.33286 -26.9628,10.33286 -60.22269,10.33286 H 90.94119 c -33.260241,0 -49.890274,0 -60.222959,-10.33286 -10.332596,-10.33198 -10.332596,-26.96281 -10.332596,-60.2227 z"
       fill="#1c274c"
       id="path336"
       style="fill:none;stroke:#1c274c;stroke-width:12;stroke-dasharray:none;stroke-opacity:1;opacity:1"
       inkscape:export-filename=".\strate-folder.png.png"
       inkscape:export-xdpi="2.1942797"
       inkscape:export-ydpi="2.1942797" /><path
       d="m 165.54675,334.35382 v -42.799 h -35.27778 v 42.799 c 0,2.55852 0,3.83734 0.83696,4.35416 0.83609,0.51682 1.97997,-0.0547 4.26861,-1.19856 l 10.95552,-5.47864 c 0.77435,-0.3863 1.16152,-0.58032 1.5778,-0.58032 0.41627,0 0.80345,0.19402 1.5778,0.58032 l 10.95551,5.47864 c 2.28864,1.14388 3.43253,1.71538 4.26861,1.19856 0.83697,-0.51682 0.83697,-1.79564 0.83697,-4.35416 z"
       fill="#1c274c"
       id="path360"
       style="stroke-width:8.81944" /><g
       id="g4662"
       inkscape:export-filename="strate-folder.png"
       inkscape:export-xdpi="2.1942797"
       inkscape:export-ydpi="2.1942797"><path
         style="fill:none;fill-opacity:1;stroke:#1c274c;stroke-width:14;stroke-linecap:butt;stroke-linejoin:miter;stroke-dasharray:none;stroke-opacity:1;marker-start:url(#RoundedArrow);marker-end:url(#marker1254)"
         d="m -108.3375,134.38329 v 62.82717"
         id="path424" /><path
         opacity="0.5"
         d="m -196.78454,107.35136 c 0,-7.783429 0,-11.675179 0.61163,-14.916859 2.69249,-14.27057 13.855,-25.43307 28.12556,-28.12556 3.24168,-0.61163 7.13343,-0.61163 14.91686,-0.61163 3.41021,0 5.11536,0 6.75411,0.15328 7.06508,0.66067 13.76671,3.43659 19.22965,7.96511 1.267,1.05039 2.47262,2.25619 4.88385,4.6676 l 4.85334,4.8529 c 7.19491,7.19473 10.79236,10.79209 15.09978,13.18886 2.366246,1.31657 4.877146,2.35629 7.481526,3.09871 4.74045,1.35132 9.82751,1.35132 20.0025,1.35132 h 3.295834 c 23.2163,0 34.82357,0 42.36949,6.786209 0.69409,0.62424 1.35467,1.28481 1.9782,1.97882 6.78656,7.54521 6.78656,19.15327 6.78656,42.36923 v 19.42129 c 0,33.25989 0,49.89072 -10.33286,60.2227 -10.33198,10.33286 -26.9628,10.33286 -60.222694,10.33286 h -35.277776 c -33.26024,0 -49.89028,0 -60.22296,-10.33286 -10.3326,-10.33198 -10.3326,-26.96281 -10.3326,-60.2227 z"
         fill="#1c274c"
         id="path4584"
         style="opacity:1;fill:none;stroke:#1c274c;stroke-width:12;stroke-dasharray:none;stroke-opacity:1" /></g><g
       id="g4658"
       inkscape:export-filename=".\tag-folder.png"
       inkscape:export-xdpi="2.1942797"
       inkscape:export-ydpi="2.1942797"><path
         style="fill:none;stroke:#1c274c;stroke-width:14;stroke-linecap:round;stroke-linejoin:round;stroke-dasharray:none;stroke-opacity:1"
         d="m -355.50768,202.6971 -33.48943,-33.35339 33.98866,-32.83078"
         id="path2021"
         sodipodi:nodetypes="ccc" /><path
         style="fill:none;stroke:#1c274c;stroke-width:14;stroke-linecap:round;stroke-linejoin:round;stroke-dasharray:none;stroke-opacity:1"
         d="m -320.32267,202.0221 33.48943,-33.35339 -33.98866,-32.83078"
         id="path2291"
         sodipodi:nodetypes="ccc" /><path
         opacity="0.5"
         d="m -421.11417,108.30595 c 0,-7.78342 0,-11.675175 0.61163,-14.916855 2.69249,-14.27057 13.855,-25.43307 28.12556,-28.12556 3.24168,-0.61163 7.13343,-0.61163 14.91686,-0.61163 3.41021,0 5.11536,0 6.75411,0.15328 7.06508,0.66067 13.76671,3.43659 19.22965,7.96511 1.267,1.05039 2.47262,2.25619 4.88385,4.6676 l 4.85334,4.8529 c 7.19491,7.19473 10.79236,10.79209 15.09978,13.18886 2.36625,1.31657 4.87715,2.35629 7.48153,3.09871 4.74045,1.35132 9.82751,1.35132 20.0025,1.35132 h 3.29583 c 23.2163,0 34.82357,0 42.36949,6.786205 0.69409,0.62424 1.35467,1.28481 1.9782,1.97882 6.78656,7.54521 6.78656,19.15327 6.78656,42.36923 v 19.42129 c 0,33.25989 0,49.89072 -10.33286,60.2227 -10.33198,10.33286 -26.9628,10.33286 -60.22269,10.33286 h -35.27778 c -33.26024,0 -49.89028,0 -60.22296,-10.33286 -10.3326,-10.33198 -10.3326,-26.96281 -10.3326,-60.2227 z"
         fill="#1c274c"
         id="path4645"
         style="opacity:1;fill:none;stroke:#1c274c;stroke-width:12;stroke-dasharray:none;stroke-opacity:1" /></g></g></svg>
