<?xml version="1.0" encoding="iso-8859-1"?>
<!-- Generator: Adobe Illustrator 19.0.0, SVG Export Plug-In . SVG Version: 6.00 Build 0)  -->
<svg version="1.1" id="Capa_1" xmlns="http://www.w3.org/2000/svg" xmlns:xlink="http://www.w3.org/1999/xlink" x="0px" y="0px"
	 viewBox="0 0 322.8 322.8" style="enable-background:new 0 0 322.8 322.8;" xml:space="preserve">
<path style="fill:#73BF2D;" d="M23.162,230.8c0,0-12-105.6,118-147.6s142-77.6,142-77.6s88,141.2-28.8,216
	C137.962,296,23.162,230.8,23.162,230.8z"/>
<path style="fill:#20953D;" d="M254.362,221.6c116.4-74.4,28.8-216,28.8-216s-0.4,1.2-1.6,3.2c0.4,2.4,0.8,5.2,1.6,8
	c26.4,128-100.4,135.6-100.4,135.6c-117.6-2.8-159.2,78.8-159.2,78.8S137.962,296,254.362,221.6z"/>
<path style="fill:#182D00;" d="M2.362,317.2c0,3.2,2.8,5.6,5.6,5.6c0,0,0,0,0.4,0c3.2,0,5.6-2.8,5.6-6c-1.6-30,2.8-55.6,12.4-77.6
	c14.4,7.2,54.8,24,107.2,24c44.4,0,86.4-12.4,124.4-36.8c120-76.8,31.2-222.4,30.4-223.6c-1.2-2-3.2-2.8-5.6-2.8
	c-2.4,0.4-4,1.6-4.8,4c0,0.4-14.4,34-138,74.4c-125.2,40.4-122.8,140-122,152.4C5.562,254.8,0.762,283.6,2.362,317.2z M143.162,88.8
	c95.2-30.8,128.4-58.4,140-72.4c16.4,30.4,64.8,138.4-31.6,200c-36.4,23.2-76,34.8-118,34.8c-49.2,0-88.4-16.4-102-22.8
	c5.2-9.2,11.6-17.6,19.2-25.2c47.6-48,125.2-45.6,126-45.6c3.2,0.4,6-2.4,6-5.6c0-3.2-2.4-6-5.6-6c-3.6,0-83.6-2.8-134.8,48.8
	c-4.4,4.8-8.8,9.6-12.4,14.8C33.562,178.4,53.562,118,143.162,88.8z"/>
<g>
</g>
<g>
</g>
<g>
</g>
<g>
</g>
<g>
</g>
<g>
</g>
<g>
</g>
<g>
</g>
<g>
</g>
<g>
</g>
<g>
</g>
<g>
</g>
<g>
</g>
<g>
</g>
<g>
</g>
</svg>
