<?xml version="1.0" encoding="UTF-8" standalone="no"?>
<svg
   xmlns:dc="http://purl.org/dc/elements/1.1/"
   xmlns:cc="http://creativecommons.org/ns#"
   xmlns:rdf="http://www.w3.org/1999/02/22-rdf-syntax-ns#"
   xmlns:svg="http://www.w3.org/2000/svg"
   xmlns="http://www.w3.org/2000/svg"
   xmlns:sodipodi="http://sodipodi.sourceforge.net/DTD/sodipodi-0.dtd"
   xmlns:inkscape="http://www.inkscape.org/namespaces/inkscape"
   version="1.1"
   id="Capa_1"
   x="0px"
   y="0px"
   viewBox="0 0 469.803 469.803"
   style="enable-background:new 0 0 469.803 469.803;"
   xml:space="preserve"
   sodipodi:docname="species.svg"
   inkscape:version="1.0.2-2 (e86c870879, 2021-01-15)"><metadata
   id="metadata45"><rdf:RDF><cc:Work
       rdf:about=""><dc:format>image/svg+xml</dc:format><dc:type
         rdf:resource="http://purl.org/dc/dcmitype/StillImage" /></cc:Work></rdf:RDF></metadata><defs
   id="defs43" /><sodipodi:namedview
   pagecolor="#ffffff"
   bordercolor="#666666"
   borderopacity="1"
   objecttolerance="10"
   gridtolerance="10"
   guidetolerance="10"
   inkscape:pageopacity="0"
   inkscape:pageshadow="2"
   inkscape:window-width="1920"
   inkscape:window-height="1009"
   id="namedview41"
   showgrid="false"
   inkscape:zoom="0.64719874"
   inkscape:cx="245.04077"
   inkscape:cy="313.20288"
   inkscape:window-x="-8"
   inkscape:window-y="-8"
   inkscape:window-maximized="1"
   inkscape:current-layer="Capa_1" />

<g
   id="g959"
   transform="matrix(0.66278997,0,0,0.64918444,83.869436,65.859339)"
   style="opacity:0.710811;stroke:#000000;stroke-opacity:1;stroke-width:1.52450195;stroke-miterlimit:4;stroke-dasharray:none">
	<path
   style="fill:#4caf50;stroke:#000000;stroke-opacity:1;stroke-width:1.52450195;stroke-miterlimit:4;stroke-dasharray:none"
   d="M 188.864,67.349 C 147.819,26.325 67.499,21.568 10.667,21.568 4.776,21.568 0,26.344 0,32.235 c 0,56.853 4.757,137.173 45.781,178.219 19.261,17.154 44.438,26.143 70.208,25.067 26.571,1.047 52.57,-7.896 72.875,-25.067 30.571,-30.593 36.181,-106.923 0,-143.105 z"
   id="path955" />
	<path
   style="fill:#4caf50;stroke:#000000;stroke-opacity:1;stroke-width:1.52450195;stroke-miterlimit:4;stroke-dasharray:none"
   d="m 459.136,63.765 c -56.853,0 -137.173,4.757 -178.219,45.781 -36.267,36.267 -30.571,112.491 0,143.083 20.311,17.174 46.318,26.117 72.896,25.067 25.769,1.074 50.946,-7.915 70.208,-25.067 41.045,-41.045 45.781,-121.365 45.781,-178.219 -0.011,-5.882 -4.783,-10.645 -10.666,-10.645 z"
   id="path957" />
</g><path
   style="opacity:0.710811;fill:#388e3c;stroke-width:1;stroke:#000000;stroke-opacity:1;stroke-miterlimit:4;stroke-dasharray:none"
   d="m 232.33439,356.84653 c -3.90449,0 -7.06998,-3.10051 -7.06998,-6.92485 0,-146.87149 -54.98837,-183.72439 -75.68863,-197.58773 -2.49673,-1.56129 -4.8609,-3.31668 -7.06998,-5.24865 -2.7128,-2.7506 -2.63459,-7.13454 0.17365,-9.79165 2.73998,-2.5922 7.08324,-2.5922 9.82321,0 1.59667,1.32239 3.28811,2.53052 5.06173,3.61466 18.38116,12.31178 61.67659,41.32643 76.65034,136.49817 11.57165,-49.75674 45.87368,-91.53176 93.00998,-113.27295 3.60955,-1.66321 7.91768,-0.33108 9.89744,3.0609 1.78821,3.08688 0.684,7.0086 -2.46757,8.76075 -0.11798,0.0656 -0.2386,0.12789 -0.36056,0.18631 l -1.1453,0.52649 c -77.51262,35.68957 -93.78743,113.91045 -93.78743,173.25435 6.6e-4,3.80746 -3.13897,6.90083 -7.0269,6.9242 z"
   id="path961" /><g
   id="g6"
   transform="matrix(0.66278997,0,0,0.64918444,7.647956,148.50729)"
   style="stroke:#000000;stroke-opacity:1;stroke-width:1.52450195;stroke-miterlimit:4;stroke-dasharray:none">
	<path
   style="fill:#4caf50;stroke:#000000;stroke-opacity:1;stroke-width:1.52450195;stroke-miterlimit:4;stroke-dasharray:none"
   d="M 188.864,67.349 C 147.819,26.325 67.499,21.568 10.667,21.568 4.776,21.568 0,26.344 0,32.235 c 0,56.853 4.757,137.173 45.781,178.219 19.261,17.154 44.438,26.143 70.208,25.067 26.571,1.047 52.57,-7.896 72.875,-25.067 30.571,-30.593 36.181,-106.923 0,-143.105 z"
   id="path2" />
	<path
   style="fill:#4caf50;stroke:#000000;stroke-opacity:1;stroke-width:1.52450195;stroke-miterlimit:4;stroke-dasharray:none"
   d="m 459.136,63.765 c -56.853,0 -137.173,4.757 -178.219,45.781 -36.267,36.267 -30.571,112.491 0,143.083 20.311,17.174 46.318,26.117 72.896,25.067 25.769,1.074 50.946,-7.915 70.208,-25.067 41.045,-41.045 45.781,-121.365 45.781,-178.219 -0.011,-5.882 -4.783,-10.645 -10.666,-10.645 z"
   id="path4" />
</g><path
   style="fill:#388e3c;stroke-width:1;stroke:#000000;stroke-opacity:1;stroke-miterlimit:4;stroke-dasharray:none"
   d="m 156.11291,439.49448 c -3.9045,0 -7.06998,-3.10051 -7.06998,-6.92485 0,-146.87149 -54.988371,-183.72439 -75.688628,-197.58773 -2.496729,-1.56129 -4.860901,-3.31668 -7.06998,-5.24865 -2.712799,-2.7506 -2.63459,-7.13454 0.173651,-9.79165 2.739974,-2.5922 7.083236,-2.5922 9.82321,0 1.596661,1.32239 3.288101,2.53052 5.061727,3.61466 18.381154,12.31178 61.67658,41.32643 76.65033,136.49817 11.57165,-49.75674 45.87369,-91.53176 93.00998,-113.27295 3.60956,-1.66321 7.91769,-0.33108 9.89745,3.0609 1.7882,3.08688 0.684,7.0086 -2.46757,8.76075 -0.11798,0.0656 -0.23861,0.12789 -0.36056,0.18631 l -1.1453,0.52649 c -77.51262,35.68957 -93.78743,113.91045 -93.78743,173.25435 6.6e-4,3.80746 -3.13897,6.90083 -7.0269,6.9242 z"
   id="path8" />
<g
   id="g10">
</g>
<g
   id="g12">
</g>
<g
   id="g14">
</g>
<g
   id="g16">
</g>
<g
   id="g18">
</g>
<g
   id="g20">
</g>
<g
   id="g22">
</g>
<g
   id="g24">
</g>
<g
   id="g26">
</g>
<g
   id="g28">
</g>
<g
   id="g30">
</g>
<g
   id="g32">
</g>
<g
   id="g34">
</g>
<g
   id="g36">
</g>
<g
   id="g38">
</g>
<g
   id="g1001"><g
     id="g983"
     transform="matrix(0.66278997,0,0,0.64918444,158.16387,-5.15739)"
     style="opacity:0.127027;stroke:#000000;stroke-opacity:1;stroke-width:1.52450195;stroke-miterlimit:4;stroke-dasharray:none">
	<path
   style="fill:#4caf50;stroke:#000000;stroke-opacity:1;stroke-width:1.52450195;stroke-miterlimit:4;stroke-dasharray:none"
   d="M 188.864,67.349 C 147.819,26.325 67.499,21.568 10.667,21.568 4.776,21.568 0,26.344 0,32.235 c 0,56.853 4.757,137.173 45.781,178.219 19.261,17.154 44.438,26.143 70.208,25.067 26.571,1.047 52.57,-7.896 72.875,-25.067 30.571,-30.593 36.181,-106.923 0,-143.105 z"
   id="path979" />
	<path
   style="fill:#4caf50;stroke:#000000;stroke-opacity:1;stroke-width:1.52450195;stroke-miterlimit:4;stroke-dasharray:none"
   d="m 459.136,63.765 c -56.853,0 -137.173,4.757 -178.219,45.781 -36.267,36.267 -30.571,112.491 0,143.083 20.311,17.174 46.318,26.117 72.896,25.067 25.769,1.074 50.946,-7.915 70.208,-25.067 41.045,-41.045 45.781,-121.365 45.781,-178.219 -0.011,-5.882 -4.783,-10.645 -10.666,-10.645 z"
   id="path981" />
</g><path
     style="opacity:0.127027;fill:#388e3c;stroke-width:1;stroke:#000000;stroke-opacity:1;stroke-miterlimit:4;stroke-dasharray:none"
     d="m 306.62882,285.8298 c -3.90449,0 -7.06998,-3.10051 -7.06998,-6.92485 0,-146.87149 -54.98837,-183.72439 -75.68863,-197.58773 -2.49673,-1.56129 -4.8609,-3.31668 -7.06998,-5.24865 -2.71279,-2.7506 -2.63459,-7.13454 0.17365,-9.79165 2.73998,-2.5922 7.08324,-2.5922 9.82321,0 1.59667,1.32239 3.28811,2.53052 5.06173,3.61466 18.38116,12.31178 61.67659,41.32643 76.65034,136.49817 11.57165,-49.75674 45.87368,-91.53176 93.00998,-113.27295 3.60955,-1.66321 7.91768,-0.33108 9.89744,3.0609 1.78821,3.08688 0.684,7.0086 -2.46757,8.76075 -0.11798,0.0656 -0.2386,0.12789 -0.36056,0.18631 l -1.1453,0.52649 c -77.51262,35.68957 -93.78743,113.91045 -93.78743,173.25435 6.6e-4,3.80746 -3.13897,6.90083 -7.0269,6.9242 z"
     id="path985" /></g></svg>
