<?xml version="1.0" encoding="UTF-8" standalone="no"?>
<svg
   xmlns:dc="http://purl.org/dc/elements/1.1/"
   xmlns:cc="http://creativecommons.org/ns#"
   xmlns:rdf="http://www.w3.org/1999/02/22-rdf-syntax-ns#"
   xmlns:svg="http://www.w3.org/2000/svg"
   xmlns="http://www.w3.org/2000/svg"
   xmlns:sodipodi="http://sodipodi.sourceforge.net/DTD/sodipodi-0.dtd"
   xmlns:inkscape="http://www.inkscape.org/namespaces/inkscape"
   width="64mm"
   height="64mm"
   viewBox="0 0 64 64"
   version="1.1"
   id="svg889"
   inkscape:version="1.0.2-2 (e86c870879, 2021-01-15)"
   sodipodi:docname="multipication.svg"
   inkscape:export-filename="C:\dev\permadeler\GitClones\permadeler\bundles\fr.adaussy.permadeler.model.edit\icons\custo\commons\multipication.png"
   inkscape:export-xdpi="6.3499999"
   inkscape:export-ydpi="6.3499999">
  <defs
     id="defs883" />
  <sodipodi:namedview
     id="base"
     pagecolor="#ffffff"
     bordercolor="#666666"
     borderopacity="1.0"
     inkscape:pageopacity="0.0"
     inkscape:pageshadow="2"
     inkscape:zoom="1.4"
     inkscape:cx="240.7398"
     inkscape:cy="297.06473"
     inkscape:document-units="mm"
     inkscape:current-layer="layer1"
     inkscape:document-rotation="0"
     showgrid="true"
     fit-margin-top="64"
     fit-margin-left="64"
     fit-margin-bottom="64"
     fit-margin-right="64"
     showguides="false"
     inkscape:window-width="2560"
     inkscape:window-height="1369"
     inkscape:window-x="-8"
     inkscape:window-y="-8"
     inkscape:window-maximized="1">
    <inkscape:grid
       type="xygrid"
       id="grid1452" />
  </sodipodi:namedview>
  <metadata
     id="metadata886">
    <rdf:RDF>
      <cc:Work
         rdf:about="">
        <dc:format>image/svg+xml</dc:format>
        <dc:type
           rdf:resource="http://purl.org/dc/dcmitype/StillImage" />
        <dc:title></dc:title>
      </cc:Work>
    </rdf:RDF>
  </metadata>
  <g
     inkscape:label="Calque 1"
     inkscape:groupmode="layer"
     id="layer1">
    <g
       id="g1526"
       transform="matrix(0.09127307,0,0,0.09127307,3.9284696,1.957884)">
      <g
         id="g1466">
	<path
   style="fill:#4caf50"
   d="M 188.864,67.349 C 147.819,26.325 67.499,21.568 10.667,21.568 4.776,21.568 0,26.344 0,32.235 c 0,56.853 4.757,137.173 45.781,178.219 19.261,17.154 44.438,26.143 70.208,25.067 26.571,1.047 52.57,-7.896 72.875,-25.067 30.571,-30.593 36.181,-106.923 0,-143.105 z"
   id="path1462" />

	<path
   style="fill:#4caf50"
   d="m 459.136,63.765 c -56.853,0 -137.173,4.757 -178.219,45.781 -36.267,36.267 -30.571,112.491 0,143.083 20.311,17.174 46.318,26.117 72.896,25.067 25.769,1.074 50.946,-7.915 70.208,-25.067 41.045,-41.045 45.781,-121.365 45.781,-178.219 -0.011,-5.882 -4.783,-10.645 -10.666,-10.645 z"
   id="path1464" />

</g>
      <path
         style="fill:#388e3c"
         d="m 224,448.235 c -5.891,0 -10.667,-4.776 -10.667,-10.667 0,-226.24 -82.965,-283.008 -114.197,-304.363 -3.767,-2.405 -7.334,-5.109 -10.667,-8.085 -4.093,-4.237 -3.975,-10.99 0.262,-15.083 4.134,-3.993 10.687,-3.993 14.821,0 2.409,2.037 4.961,3.898 7.637,5.568 27.733,18.965 93.056,63.659 115.648,210.261 17.459,-76.645 69.213,-140.995 140.331,-174.485 5.446,-2.562 11.946,-0.51 14.933,4.715 2.698,4.755 1.032,10.796 -3.723,13.495 -0.178,0.101 -0.36,0.197 -0.544,0.287 l -1.728,0.811 c -116.949,54.976 -141.504,175.467 -141.504,266.88 0.001,5.865 -4.736,10.63 -10.602,10.666 z"
         id="path1468" />
      <g
         id="g1470">
</g>
      <g
         id="g1472">
</g>
      <g
         id="g1474">
</g>
      <g
         id="g1476">
</g>
      <g
         id="g1478">
</g>
      <g
         id="g1480">
</g>
      <g
         id="g1482">
</g>
      <g
         id="g1484">
</g>
      <g
         id="g1486">
</g>
      <g
         id="g1488">
</g>
      <g
         id="g1490">
</g>
      <g
         id="g1492">
</g>
      <g
         id="g1494">
</g>
      <g
         id="g1496">
</g>
      <g
         id="g1498">
</g>
    </g>
    <g
       id="g1460"
       transform="matrix(0.31818182,0,0,0.35131134,20.324811,39.475408)"
       style="fill:none;fill-opacity:1;stroke:#5771cc;stroke-opacity:1;stroke-width:14.95499387;stroke-miterlimit:4;stroke-dasharray:none">
      <path
         style="fill:none;fill-opacity:1;stroke:#5771cc;stroke-width:14.95499387;stroke-linecap:round;stroke-linejoin:miter;stroke-miterlimit:4;stroke-dasharray:none;stroke-opacity:1"
         d="M 2.6458333,2.6458333 60.854166,60.854166"
         id="path1454" />
      <path
         style="fill:none;fill-opacity:1;stroke:#5771cc;stroke-width:14.95499387;stroke-linecap:round;stroke-linejoin:miter;stroke-miterlimit:4;stroke-dasharray:none;stroke-opacity:1"
         d="M 60.854166,2.6458333 2.6458333,60.854166"
         id="path1456" />
    </g>
    <text
       xml:space="preserve"
       style="font-size:37.5337px;line-height:1.25;font-family:Forte;-inkscape-font-specification:Forte;stroke-width:0.390976;fill:#5771cc;fill-opacity:1;"
       x="40.910603"
       y="66.343437"
       id="text1530"
       transform="scale(1.0806214,0.92539349)"><tspan
         sodipodi:role="line"
         id="tspan1528"
         x="40.910603"
         y="66.343437"
         style="font-size:37.5337px;stroke-width:0.390976;fill:#5771cc;fill-opacity:1;">2</tspan></text>
  </g>
</svg>
