<?xml version="1.0" encoding="UTF-8" standalone="no"?>
<svg
   xmlns:dc="http://purl.org/dc/elements/1.1/"
   xmlns:cc="http://creativecommons.org/ns#"
   xmlns:rdf="http://www.w3.org/1999/02/22-rdf-syntax-ns#"
   xmlns:svg="http://www.w3.org/2000/svg"
   xmlns="http://www.w3.org/2000/svg"
   xmlns:sodipodi="http://sodipodi.sourceforge.net/DTD/sodipodi-0.dtd"
   xmlns:inkscape="http://www.inkscape.org/namespaces/inkscape"
   width="29.18362mm"
   height="29.004681mm"
   viewBox="0 0 29.18362 29.004681"
   version="1.1"
   id="svg6813"
   inkscape:version="1.0.2-2 (e86c870879, 2021-01-15)"
   sodipodi:docname="shrub.svg">
  <defs
     id="defs6807" />
  <sodipodi:namedview
     id="base"
     pagecolor="#ffffff"
     bordercolor="#666666"
     borderopacity="1.0"
     inkscape:pageopacity="0.0"
     inkscape:pageshadow="2"
     inkscape:zoom="3.959798"
     inkscape:cx="13.788319"
     inkscape:cy="95.743749"
     inkscape:document-units="mm"
     inkscape:current-layer="layer1"
     inkscape:document-rotation="0"
     showgrid="false"
     inkscape:window-width="2560"
     inkscape:window-height="1369"
     inkscape:window-x="-8"
     inkscape:window-y="-8"
     inkscape:window-maximized="1"
     fit-margin-top="0"
     fit-margin-left="0"
     fit-margin-right="0"
     fit-margin-bottom="0" />
  <metadata
     id="metadata6810">
    <rdf:RDF>
      <cc:Work
         rdf:about="">
        <dc:format>image/svg+xml</dc:format>
        <dc:type
           rdf:resource="http://purl.org/dc/dcmitype/StillImage" />
        <dc:title></dc:title>
      </cc:Work>
    </rdf:RDF>
  </metadata>
  <g
     inkscape:label="Calque 1"
     inkscape:groupmode="layer"
     id="layer1"
     transform="translate(-109.38426,-62.604805)">
    <path
       fill-rule="evenodd"
       clip-rule="evenodd"
       fill="#b4cc18"
       d="m 121.37004,63.801773 c 0,0 -0.0265,0 -0.0529,0 0.0264,-0.02646 0.0264,-0.02646 0.0529,0 z"
       id="path1100"
       style="stroke-width:1.465;stroke-miterlimit:4;stroke-dasharray:none" />
    <path
       fill-rule="evenodd"
       clip-rule="evenodd"
       fill="#b4cc18"
       d="m 124.75671,62.690523 c 0,0 0,0 0,0"
       id="path1102"
       style="stroke-width:1.465;stroke-miterlimit:4;stroke-dasharray:none" />
    <path
       fill-rule="evenodd"
       clip-rule="evenodd"
       fill="#b4cc18"
       d="m 112.95629,87.217397 c 0.0265,0.02646 0.0265,0.02646 0.0265,0.05292 -0.0794,0.05292 -0.13229,0.07937 -0.21167,0.105833 0.10584,-0.02646 0.0265,-0.3175 0.18521,-0.15875 z"
       id="path1104"
       style="stroke-width:1.465;stroke-miterlimit:4;stroke-dasharray:none" />
    <path
       fill-rule="evenodd"
       clip-rule="evenodd"
       fill="#b4cc18"
       d="m 137.80067,71.527606 c -0.0265,0 -0.0265,0 -0.0529,0 0.0265,0 0.0529,0 0.0529,0 z"
       id="path1106"
       style="stroke-width:1.465;stroke-miterlimit:4;stroke-dasharray:none" />
    <path
       fill-rule="evenodd"
       clip-rule="evenodd"
       fill="#b4cc18"
       d="m 134.14942,85.497606 c 0.0265,0.15875 0.21166,0.396875 0.0265,0.47625 0,0.15875 -0.58209,0.02646 -0.50271,0.211666 -0.66146,-0.02646 -0.23813,0.47625 -0.68792,0.555625 -0.39687,0.105834 -0.87312,0.15875 -0.635,0.555625 -0.23812,0.15875 -0.71437,0.211667 -0.66146,0.529167 0.0265,0.238125 -0.52916,0.185208 -0.42333,0.449792 -0.15875,0.132291 -0.76729,0.05292 -0.66146,0.3175 -0.29104,0.07937 -0.13229,0.343958 -0.635,0.3175 0.18521,0.291041 -0.60854,0.105833 -0.50271,0.370416 -0.29104,0.05292 0.635,0.687917 -0.42333,0.343959 -0.0529,-0.02646 -0.10583,-0.02646 -0.15875,-0.05292 0.10583,0.238125 -0.82021,-0.02646 -0.58208,0.264583 -0.0265,0 -0.0529,0.02646 -0.0794,0.02646 -0.0265,0.02646 -0.0529,0.02646 -0.0529,0.02646 0,0.15875 0.18521,0.185208 0.18521,0.3175 0,0 0,0.02646 0,0.02646 -0.0265,0 -0.0529,-0.02646 -0.0794,-0.02646 -0.37042,-0.132292 -0.76729,-0.185208 -1.19063,-0.238125 -0.23812,-0.02646 -0.44979,-0.07937 -0.68791,-0.132292 -0.0529,0 -0.0794,-0.02646 -0.10584,-0.02646 0.0265,0 0.0529,0.02646 0.0529,0.05292 0.0794,0.105833 -0.13229,0.264583 -0.0529,0.370416 0,0 0,0 0,0 0,0 0,0 0,0 0,0 0,0 0,0 -0.10583,-0.02646 -0.18521,-0.02646 -0.26458,-0.05292 -0.0794,-0.02646 -0.15875,-0.05292 -0.23813,-0.07937 -0.0794,-0.02646 -0.1852,-0.05292 -0.26458,-0.07937 -0.21167,-0.05292 -0.42333,-0.05292 -0.66146,0.05292 0,0 -0.0265,0 -0.0265,0 0,0.02646 0,0.02646 0,0.05292 0.0265,0.05292 0.10584,0.07937 0.1323,0.105833 -0.0529,0.02646 -0.1323,0.02646 -0.18521,0.05292 -0.47625,0.07937 -0.97896,0.02646 -1.45521,0.3175 -0.13229,0.105833 0.0265,0.105833 0.0794,0.132292 -0.23812,0.132291 -0.47625,0.02646 -0.71437,0.15875 l 0.0265,0.105833 c -0.23813,0.132292 -0.50271,-0.07937 -0.66146,0.07937 -0.26458,0.211667 0.21167,0.02646 0.0794,0.132292 -0.26458,0.211666 -0.66145,-0.07937 -0.97895,-0.105834 0,0.02646 -0.15875,-0.02646 -0.29105,-0.05292 v 0 c -0.10583,-0.02646 -0.1852,-0.05292 -0.21166,-0.05292 -0.23813,-0.07937 0.13229,0.15875 -0.47625,-0.105833 -0.13229,0 -0.21167,0.15875 -0.26459,0.3175 -0.0264,0.105833 -0.0264,0.238125 0,0.264583 0.0529,0.02646 0.1323,0.05292 0.0794,0.132292 -0.52917,-0.105834 -0.89958,-0.502709 -1.34938,-0.820209 -0.0264,0 -0.0264,-0.02646 -0.0529,-0.02646 0,0.02646 -0.0265,0.05292 -0.0265,0.07937 0,0.02646 0,0.02646 -0.0265,0.05292 0,0 0,0 0,0 0,0.02646 0,0.02646 0,0.05292 0,0 0,0 0,0.02646 0,0.02646 0.0265,0.02646 0.0265,0.05292 0,0 0,0 0,0 0,0 0,0 0,0 0,0 -0.0265,0 -0.0265,-0.02646 0,0 -0.0265,0 -0.0265,-0.02646 -0.0265,-0.02646 -0.0529,-0.05292 -0.0529,-0.105834 0,-0.07937 0.0264,-0.15875 0.0264,-0.238125 l 0.0794,-0.132291 c -0.635,0.185208 -0.74083,-0.608542 -1.27,-0.608542 -0.0529,0 -0.10583,0 -0.10583,-0.02646 -0.21167,0 -0.37042,-0.105834 -0.52917,-0.211667 0,0 -0.0265,0 -0.0265,-0.02646 -0.10583,-0.05292 -0.21167,-0.07937 -0.3175,-0.05292 -0.0265,0 -0.0529,0 -0.0794,0.02646 0.0265,-0.02646 0.0265,-0.05292 0.0265,-0.07937 0.0794,-0.211666 -0.0794,-0.343958 -0.23812,-0.396875 -0.0265,-0.02646 -0.0794,-0.02646 -0.10583,-0.02646 0,0 -0.0265,0 -0.0265,0 -0.10584,0.02646 -0.3175,0 -0.21167,0.238125 -0.0265,-0.02646 -0.0529,-0.05292 -0.0794,-0.07937 -0.10584,-0.132292 -0.18521,-0.343958 -0.42334,-0.264583 -0.10583,0.02646 0,0.15875 -0.0794,0.291041 -0.0265,-0.105833 -0.21167,-0.185208 -0.26459,-0.211666 -0.15875,0.15875 -0.44979,0.264583 -0.60854,0.105833 -0.0794,-0.132292 -0.18521,-0.3175 0.0529,-0.449792 -0.3175,0.15875 -0.44979,0.15875 -0.47625,0.07937 -0.18521,0.185209 -0.10583,0.07937 0.18521,-0.47625 -0.21167,0.264584 -0.15875,0.07937 -0.13229,-0.07937 0.0264,-0.132291 0.0529,-0.238125 -0.0529,-0.15875 -0.13229,0.105834 -0.21167,0.05292 -0.10583,-0.343958 -0.23813,0.211667 -0.26459,-0.105833 -0.50271,-0.105833 -0.29104,0.05292 -0.18521,-0.211667 -0.23813,-0.370417 0.10584,-0.07937 0.21167,-0.15875 0.26459,-0.238125 0.0794,-0.105833 0.0794,-0.211667 -0.0529,-0.264583 -0.29104,-0.185209 -0.58208,-0.15875 -0.84667,-0.238125 v 0 c -0.15875,-0.05292 -0.29104,-0.105834 -0.39687,-0.291042 -0.10584,0.02646 -0.15875,0 -0.23813,0.132292 -0.0794,-0.185209 0,-0.3175 0.13229,-0.396875 -0.15875,0 -0.3175,-0.07937 -0.39687,-0.238125 -0.3175,-0.555625 -1.16417,-0.555625 -1.00542,-1.402292 0,-0.07937 0.0265,-0.132292 0.0794,-0.15875 0.0529,-0.05292 0.10583,-0.05292 0.15875,-0.05292 -0.60854,-0.238125 -0.58209,-0.9525 -0.37042,-1.508125 0.13229,-0.343958 0.42333,-0.635 0.21167,-0.9525 -0.15875,-0.264583 -0.47625,-0.396875 -0.47625,-0.661458 -0.0529,-0.185208 0.39687,-0.449792 0.34396,-0.740833 -0.0265,-0.185209 -0.0794,-0.370417 -0.15875,-0.529167 -0.0794,-0.185208 -0.15875,-0.343958 -0.23813,-0.502708 0,0 0,-0.02646 0,-0.02646 -0.10583,-0.3175 -0.13229,-0.635 0.18521,-1.031875 0,-0.15875 -0.0529,-0.291041 -0.13229,-0.396875 -0.18521,-0.3175 -0.50271,-0.582083 -0.60854,-0.9525 -0.0265,-0.05292 -0.0265,-0.105833 -0.0265,-0.15875 0,-0.132291 0.10583,-0.211666 0.21166,-0.264583 0.15875,-0.07937 0.34396,-0.105833 0.37042,-0.211667 0.18521,-0.740833 0.34396,-1.481666 0.66146,-2.169583 0.10583,-0.185208 -0.10583,-0.449791 -0.15875,-0.582083 -0.0265,-0.05292 -0.0265,-0.07938 0,-0.07938 0,0 0,0 0.0265,-0.02646 0.74083,-0.529167 0.9525,-1.349375 1.50812,-1.984375 -0.0265,-0.343959 0.10584,-0.608542 0.29104,-0.846667 0.34396,-0.15875 0.1323,-0.582083 0.635,-0.661458 -0.1852,-0.238125 -0.13229,-0.396875 0,-0.47625 0.0529,-0.05292 0.15875,-0.07937 0.23813,-0.105834 0.10583,-0.02646 0.21167,-0.05292 0.3175,-0.07937 -0.0265,-0.07937 -0.0265,-0.185208 0,-0.238125 0.10583,-0.132291 0.21167,-0.238125 0.37042,-0.343958 0.13229,-0.105833 0.29104,-0.185208 0.44979,-0.264583 0.52916,-0.132292 0.47625,-0.899584 0.97896,-0.820209 0.0794,-0.9525 1.19062,-1.164166 1.64041,-1.852083 0.13229,-0.264583 0.0529,-0.635 0.39688,-0.714375 1.48166,-0.185208 2.67229,-1.190625 4.10104,-0.978958 0.0794,-0.02646 0.0529,-0.105834 0,-0.132292 0.23812,0.07937 0.37042,0.07937 0.39687,0.05292 0.0265,-0.05292 -0.0794,-0.132292 -0.3175,-0.3175 0.42334,0.105833 0.29105,-0.05292 0.635,0 0.47625,0.07937 -0.21166,-0.291042 0.1323,-0.238125 0.58208,0.291041 0.44979,0.105833 0.74083,-0.185209 -0.37042,-0.15875 -0.34396,-0.3175 -0.0265,-0.264583 0.0529,-0.02646 0.10583,-0.02646 0.15875,-0.05292 0.10583,0.291042 0.82021,-0.3175 0.68792,0.211667 -0.0265,0.3175 0.50271,-0.05292 0.635,0.07937 0.0529,0.02646 0.13229,-0.05292 0.18521,-0.132292 l 0.0264,-0.02646 c 0.0529,-0.07937 0.10584,-0.15875 0.1323,-0.238125 0.13229,0.105833 0.3175,0.238125 0.60854,0.185208 0.13229,-0.05292 0.10583,0.3175 0.66146,-0.05292 -0.0265,0.02646 0.0529,0.370416 0.23812,-0.02646 0,0 0,-0.02646 0.0265,-0.02646 0.26458,-0.02646 0.42333,0.07937 0.50271,0.132292 v 0 c 0.0265,0.02646 0.0265,0.02646 0.0529,0.05292 0.0529,0.05292 0.0529,0.05292 0.0794,-0.02646 0,0 0,0 0,-0.02646 0,0 0,0 0,0 0.13229,-0.05292 0.29104,-0.105834 0.37042,-0.05292 v 0 c 0,0 0.0264,0 0.0264,0.02646 0,0 0,0 0,0 0.0265,0.02646 0.0265,0.02646 0.0265,0.05292 0.0265,0.05292 0.0265,0.132292 0,0.264583 -0.0529,0.396875 0.21167,0.132292 0.34396,-0.211666 0,0.291041 0.13229,0.449791 0.34396,0.343958 0,0.264583 0.21167,0.132292 0.42333,-0.211667 0.60854,-0.714375 0,0.529167 0.39688,0.05292 0.10583,-0.132292 0.18521,-0.211667 0.23812,-0.264583 0.0794,-0.07938 0.13229,-0.05292 0.15875,0 0,0 0,0.02646 0,0.02646 0.0265,0.15875 0.10584,0.291042 0.23813,0.423333 0.0265,0.15875 0.15875,0.291042 0.44979,0.132292 0.10583,0.211667 0.13229,0.555625 0.55562,0.211667 0.23813,-0.07937 0.3175,0.132291 0.50271,0.211666 0.0529,0.264584 0.18521,0.396875 0.47625,0.211667 -0.26458,1.031875 0.26459,-0.211667 0.50271,0.264583 0.34396,-0.423333 0.23813,0.635 0.52917,0.3175 0.74083,-0.396875 0.0794,0.211667 0.29104,0.238125 0.0529,0 0.0794,0.02646 0.10583,0.05292 0.0794,0.105833 0.0529,0.343958 0.13229,0.370417 -0.15875,0.555625 0.29105,-0.07937 0.42334,0 0.15875,-0.396875 0.0794,-0.15875 0.37041,0.3175 0.23813,-0.02646 -0.13229,0.132291 0.52917,0.423333 0.0529,0.132292 -0.3175,0.15875 0.18521,0.291042 0.10583,0.02646 0.21167,0.07937 0.42333,-0.02646 0.18521,-0.07937 0.18521,0.15875 0.15875,0.423334 0.34396,-0.211667 0,0.582083 0.0265,0.132291 -0.0529,0.132292 -0.0529,0.396875 0.0794,0.449792 0.55562,0.15875 0.87312,0.555625 1.11125,1.031875 0.3175,0.661458 0.44979,1.455208 0.79375,2.037292 0.0265,0.02646 0.0265,0.05292 0.0529,0.07937 0,0 0,0 0,0 0.15875,0.211666 0.39688,0.396875 0.635,0.582083 -0.0265,0.05292 -0.18521,0.07937 -0.23812,0.132292 -0.0265,0.05292 0,0.211666 0.13229,0.238125 -0.0265,0 -0.0529,0.02646 -0.10583,0 -0.0265,0.3175 0.21166,0.608541 0.23812,0.926041 0.0265,0.15875 0.0529,0.291042 0.0265,0.449792 -0.0265,0.15875 -0.0794,0.291042 -0.21167,0.47625 0.60854,0.291042 0.52917,1.005417 0.66146,1.561042 0.13229,0.3175 -0.0265,0.740833 0.18521,1.084791 -0.21167,-0.02646 -0.635,0.02646 -0.50271,0.343958 0.0529,0.02646 0.18521,0.07937 0.29104,0.238125 0.13229,0.105834 0.23813,0.238125 0.15875,0.396875 -0.58208,1.031875 -1.5875,1.825625 -1.74625,2.963334 -0.0265,0.05292 -0.29104,0.264583 -0.3175,0.423333 0.0265,0.105833 0.15875,0.15875 0.10584,0.211667 -0.0794,0.132291 -0.26459,0.05292 -0.34396,0.07937 -0.13229,0.105833 0.0265,0.105833 0.0794,0.132291 -0.10583,0.02646 -0.10583,0.02646 -0.18521,0.07937 0.10584,0.211667 0.39688,0.264584 0.50271,0.502709 0.18521,0.343958 -0.23812,0.714375 -0.52916,0.978958 -0.0265,0.05292 0.0529,0.185208 0.10583,0.291042 -0.0265,0.15875 -0.21167,0.238125 -0.34396,0.3175 -0.13229,0.105833 -0.23812,0.211666 -0.13229,0.423333 0.0794,0.211667 0,0.3175 -0.13229,0.423333 -0.39688,-0.02646 -0.15875,0.238125 -0.3175,0.3175 -0.39688,0.132292 -0.68792,0.291042 -0.50271,0.687917 0.0529,0.185208 -0.26458,0.185208 -0.13229,0.396875 0.44979,0.449792 -0.3175,0.211667 -0.47625,0.291042 z"
       id="path1108"
       style="stroke-width:0.264583" />
    <path
       fill="#2c300f"
       d="m 134.81088,68.723023 c -0.29105,0.291041 -0.635,0.185208 -0.82021,-0.105834 -0.0529,-0.105833 -0.15875,-0.185208 -0.26459,-0.238125 -0.15875,-0.05292 -0.3175,-0.02646 -0.47625,0 -0.37041,0.05292 -0.66145,-0.185208 -0.52916,-0.582083 0.0529,-0.132292 -0.15875,-0.15875 -0.21167,-0.02646 -0.0794,0.264583 -0.0265,0.502708 0.13229,0.687916 0.18521,0.211667 0.52917,0.15875 0.76729,0.132292 0.34396,-0.02646 0.50271,0.449792 0.84667,0.529167 0.23813,0.05292 0.50271,-0.05292 0.66146,-0.238125 0.15875,-0.132292 0,-0.264584 -0.10583,-0.15875 z"
       id="path1268"
       style="stroke-width:1.465;stroke-miterlimit:4;stroke-dasharray:none" />
    <path
       fill="#2c300f"
       d="m 131.71525,67.241356 c -0.21167,0.07937 -0.39687,0.05292 -0.58208,-0.07937 -0.10584,-0.07937 -0.21167,0.132292 -0.10584,0.185208 0.21167,0.132292 0.47625,0.15875 0.74084,0.07937 0.13229,-0.02646 0.0794,-0.238125 -0.0529,-0.185208 z"
       id="path1270"
       style="stroke-width:1.465;stroke-miterlimit:4;stroke-dasharray:none" />
    <path
       fill="#2c300f"
       d="m 129.78379,65.230523 c -0.18521,-0.05292 -0.42333,0.02646 -0.55562,0.185208 -0.10584,0.105833 0.0529,0.238125 0.15875,0.132292 0.10583,-0.105834 0.21166,-0.15875 0.34396,-0.132292 0.13229,0.05292 0.1852,-0.15875 0.0529,-0.185208 z"
       id="path1272"
       style="stroke-width:1.465;stroke-miterlimit:4;stroke-dasharray:none" />
    <path
       fill="#2c300f"
       d="m 130.604,65.442189 c -0.0529,0.02646 -0.13229,0.05292 -0.18521,0.07937 -0.0529,0.02646 -0.0794,0.07937 -0.0794,0.132292 0.0265,0.05292 0.0794,0.07937 0.13229,0.05292 0.0529,-0.02646 0.13229,-0.05292 0.18521,-0.07937 0.0529,-0.02646 0.0794,-0.07937 0.0794,-0.132292 0,-0.02646 -0.0794,-0.05292 -0.13229,-0.05292 z"
       id="path1274"
       style="stroke-width:1.465;stroke-miterlimit:4;stroke-dasharray:none" />
    <path
       fill="#2c300f"
       d="m 129.36046,67.214898 c -0.9525,0.291041 -1.50813,-0.714375 -2.40771,-0.740834 -0.23812,0 -0.55562,0.105834 -0.76729,-0.05292 -0.18521,-0.132292 0.15875,-0.555625 0.18521,-0.687917 0.13229,-0.449792 0.15875,-1.137708 0.71437,-1.296458 0.13229,-0.02646 0.0794,-0.238125 -0.0529,-0.211667 -0.50271,0.132292 -0.66146,0.661458 -0.7673,1.11125 -0.0529,0.185208 -0.10583,0.370417 -0.1852,0.529167 -0.0794,0.132291 -0.15875,0.238125 -0.18521,0.396875 -0.0265,0.15875 0.0794,0.3175 0.21166,0.370416 0.18521,0.07937 0.39688,0.05292 0.60855,0.05292 0.42333,-0.05292 0.76729,0.15875 1.08479,0.343958 0.47625,0.264584 0.97896,0.555625 1.56104,0.370417 0.18521,-0.02646 0.13229,-0.238125 0,-0.185208 z"
       id="path1276"
       style="stroke-width:1.465;stroke-miterlimit:4;stroke-dasharray:none" />
    <path
       fill="#2c300f"
       d="m 126.794,67.638231 c 0,0.132292 -0.10583,0.291042 -0.23812,0.3175 -0.1323,0.02646 -0.21167,-0.132292 -0.18521,-0.238125 0.0529,-0.132292 -0.15875,-0.15875 -0.21167,-0.02646 -0.10583,0.238125 0.0794,0.47625 0.3175,0.502708 0.29104,0 0.50271,-0.291042 0.50271,-0.555625 0.0265,-0.15875 -0.18521,-0.132292 -0.18521,0 z"
       id="path1278"
       style="stroke-width:1.465;stroke-miterlimit:4;stroke-dasharray:none" />
    <path
       fill="#2c300f"
       d="m 125.97379,67.267814 c -0.10583,0.132292 -0.26458,0.132292 -0.39687,0.07937 -0.0794,-0.02646 -0.29104,-0.105833 -0.29104,-0.185208 -0.0265,-0.132292 -0.23813,-0.105833 -0.21167,0.02646 0.0265,0.238125 0.26458,0.3175 0.44979,0.396875 0.21167,0.07937 0.44979,0.02646 0.60854,-0.15875 0.0794,-0.132291 -0.0529,-0.264583 -0.15875,-0.15875 z"
       id="path1280"
       style="stroke-width:1.465;stroke-miterlimit:4;stroke-dasharray:none" />
    <path
       fill="#2c300f"
       d="m 124.41275,65.495106 c -0.15875,0.185208 -0.37042,0.449792 -0.34396,0.714375 0.0529,0.264583 0.29104,0.396875 0.55563,0.291042 0.13229,-0.05292 0.0794,-0.238125 -0.0529,-0.211667 -0.15875,0.05292 -0.3175,-0.05292 -0.29104,-0.238125 0.0265,-0.15875 0.15875,-0.3175 0.26458,-0.449792 0.10584,-0.07937 -0.0529,-0.211666 -0.13229,-0.105833 z"
       id="path1282"
       style="stroke-width:1.465;stroke-miterlimit:4;stroke-dasharray:none" />
    <path
       fill="#2c300f"
       d="m 122.58713,66.421148 c -0.21167,0.291041 -0.1323,0.687916 0.13229,0.846666 0.10583,0.07937 0.21166,-0.132291 0.10583,-0.185208 -0.18521,-0.105833 -0.21167,-0.370417 -0.0794,-0.582083 0.10583,-0.105834 -0.0794,-0.185209 -0.15875,-0.07937 z"
       id="path1284"
       style="stroke-width:1.465;stroke-miterlimit:4;stroke-dasharray:none" />
    <path
       fill="#2c300f"
       d="m 120.62921,67.902814 c -0.0529,0.3175 0.15875,0.555625 0.47625,0.502709 0.13229,-0.02646 0.29104,-0.211667 0.42333,-0.02646 0.0529,0.07937 0.0794,0.185209 0.13229,0.264584 0.15875,0.185208 0.37042,0.238125 0.60855,0.238125 0.0794,0 0.74083,-0.264584 0.74083,-0.211667 0.0529,0.132292 0.15875,0.238125 0.29104,0.264583 0.13229,0.05292 0.3175,0.05292 0.47625,-0.05292 0.26458,-0.185209 0.47625,-0.714375 0.82021,-0.396875 0.0265,0.02646 0.0794,0.02646 0.13229,0 0.18521,-0.132292 0.29104,-0.264584 0.39688,-0.47625 0.0529,-0.132292 -0.1323,-0.211667 -0.18521,-0.07937 -0.0794,0.15875 -0.15875,0.264583 -0.3175,0.370416 0.0529,0 0.0794,0 0.13229,0 -0.18521,-0.185208 -0.47625,-0.185208 -0.71438,-0.02646 -0.21166,0.15875 -0.23812,0.47625 -0.58208,0.423333 -0.21167,-0.02646 -0.15875,-0.3175 -0.34396,-0.343958 -0.15875,-0.02646 -0.26458,0.05292 -0.42333,0.132292 -0.37042,0.185208 -0.74083,0.15875 -0.92604,-0.211667 -0.0529,-0.132292 -0.13229,-0.211667 -0.29104,-0.264583 -0.18521,-0.05292 -0.71438,0.396875 -0.635,-0.132292 0.0264,-0.07937 -0.18521,-0.105833 -0.21167,0.02646 z"
       id="path1286"
       style="stroke-width:1.465;stroke-miterlimit:4;stroke-dasharray:none" />
    <path
       fill="#2c300f"
       d="m 128.32858,68.061564 c 0.10584,0.211667 0.29105,0.370417 0.52917,0.423334 0.13229,0.02646 0.18521,-0.185209 0.0529,-0.211667 -0.18521,-0.05292 -0.3175,-0.15875 -0.39688,-0.3175 -0.0529,-0.132292 -0.23812,0 -0.18521,0.105833 z"
       id="path1288"
       style="stroke-width:1.465;stroke-miterlimit:4;stroke-dasharray:none" />
    <path
       fill="#2c300f"
       d="m 121.95213,69.887189 c -0.1323,0.211667 -0.4498,-0.105833 -0.58209,-0.132291 -0.13229,-0.05292 -0.23812,-0.05292 -0.37041,-0.02646 -0.23813,0.05292 -0.47625,0.264584 -0.52917,0.502709 -0.0794,0.343958 0.21167,0.714375 -0.0529,1.005416 -0.18521,0.185209 -0.42333,0.3175 -0.50271,0.582084 -0.0529,0.211666 0.1323,0.396875 0.23813,0.529166 0.23812,0.3175 -0.39688,0.3175 -0.50271,0.3175 -0.18521,0 -0.37042,0.05292 -0.55562,0.105834 -0.4498,0.132291 -1.13771,0.714375 -0.71438,1.164166 0.13229,0.105834 0.0794,0.264584 -0.18521,0.449792 -0.13229,0.02646 -0.26458,0 -0.37041,-0.02646 -0.21167,-0.02646 -0.42334,-0.05292 -0.60855,-0.105834 -0.23812,-0.05292 -0.44979,-0.132291 -0.68791,-0.211666 -0.10584,-0.02646 -0.21167,-0.07938 -0.3175,-0.02646 -0.13229,0.05292 -0.18521,0.132292 -0.29104,0.238125 -0.21167,0.264584 -0.52917,0.370417 -0.82021,0.238125 -0.47625,-0.238125 0.0265,-0.820208 0.15875,-1.137708 0.10583,-0.238125 0.10583,-0.47625 -0.0794,-0.661458 -0.34396,-0.370417 -0.60854,-1.005417 0,-1.402292 0.21167,-0.132292 0.42334,-0.264583 0.34396,-0.529167 -0.13229,-0.449791 -0.3175,-0.79375 0.0529,-1.27 0.0794,-0.105833 -0.0529,-0.238125 -0.15875,-0.132291 -0.23813,0.291041 -0.34396,0.608541 -0.29104,0.9525 0.0265,0.15875 0.10583,0.3175 0.15875,0.449791 0.0794,0.211667 -0.37042,0.449792 -0.47625,0.608542 -0.21167,0.264583 -0.23813,0.608542 -0.18521,0.899583 0.0265,0.132292 0.10583,0.291042 0.21166,0.396875 0.0794,0.07937 0.15875,0.185209 0.23813,0.264584 0.13229,0.15875 0,0.396875 -0.0794,0.555625 -0.13229,0.238125 -0.37041,0.582083 -0.29104,0.846666 0.0794,0.264584 0.29104,0.423334 0.55563,0.449792 0.29104,0.02646 0.60854,-0.15875 0.79375,-0.396875 0.23812,-0.238125 0.47625,-0.07937 0.71437,0 0.26459,0.07938 0.55563,0.132292 0.84667,0.185208 0.23812,0.02646 0.66146,0.105834 0.87312,-0.105833 0.21167,-0.211667 0.21167,-0.423333 0.0529,-0.608542 -0.52917,-0.635 0.74083,-0.9525 1.16417,-0.978958 0.26458,0 0.60854,-0.02646 0.66146,-0.370417 0.0794,-0.343958 -0.50271,-0.47625 -0.18521,-0.846666 0.18521,-0.185209 0.55562,-0.396875 0.52916,-0.687917 0,-0.15875 -0.0794,-0.291042 -0.13229,-0.423333 -0.10583,-0.291042 0.15875,-0.555625 0.42334,-0.582084 0.15875,-0.02646 0.26458,0.05292 0.37041,0.132292 0.21167,0.132292 0.47625,0.185208 0.66146,-0.07937 0.18521,-0.15875 0,-0.238125 -0.0794,-0.132292 z"
       id="path1290"
       style="stroke-width:1.465;stroke-miterlimit:4;stroke-dasharray:none" />
    <path
       fill="#2c300f"
       d="m 117.34838,70.733856 c -0.23813,0.105833 -0.34396,0.343958 -0.34396,0.582083 0,0.3175 0.26458,0.529167 0.47625,0.687917 0.10583,0.07937 0.26458,-0.07937 0.15875,-0.15875 -0.13229,-0.105833 -0.29104,-0.211667 -0.37042,-0.370417 -0.0794,-0.15875 -0.0529,-0.449791 0.15875,-0.529166 0.10583,-0.05292 0.0529,-0.264584 -0.0794,-0.211667 z"
       id="path1292"
       style="stroke-width:1.465;stroke-miterlimit:4;stroke-dasharray:none" />
    <path
       fill="#2c300f"
       d="m 119.174,66.844481 c -0.42333,0.211667 -0.50271,0.79375 -0.13229,1.031875 0.10583,0.07937 0.26458,-0.07937 0.15875,-0.15875 -0.23813,-0.185208 -0.21167,-0.529167 0.0794,-0.687917 0.1323,-0.07937 0.0265,-0.264583 -0.10583,-0.185208 z"
       id="path1294"
       style="stroke-width:1.465;stroke-miterlimit:4;stroke-dasharray:none" />
    <path
       fill="#2c300f"
       d="m 117.63942,66.368231 c -0.15875,0.02646 -0.29104,0.15875 -0.3175,0.3175 0,0.05292 0.0265,0.105833 0.0794,0.132292 0.0529,0 0.13229,-0.02646 0.13229,-0.07937 0,-0.05292 0.0529,-0.132292 0.10584,-0.132292 0.0529,0 0.10583,-0.05292 0.10583,-0.105833 0,-0.105834 -0.0265,-0.15875 -0.10583,-0.132292 z"
       id="path1296"
       style="stroke-width:1.465;stroke-miterlimit:4;stroke-dasharray:none" />
    <path
       fill="#2c300f"
       d="m 119.35921,75.999064 c 0.0265,0.502708 0.29104,0.873125 0.74083,1.058333 0.34396,0.132292 0.97896,-0.05292 0.84667,0.529167 -0.0265,0.15875 0,0.3175 0.13229,0.370417 0.10583,0.05292 0.23813,-0.132292 0.10583,-0.185209 -0.0265,-0.02646 -0.0265,-0.502708 -0.0794,-0.608541 -0.0794,-0.105834 -0.18521,-0.238125 -0.3175,-0.264584 -0.26458,-0.05292 -0.52917,0 -0.76729,-0.132291 -0.29104,-0.15875 -0.44979,-0.47625 -0.47625,-0.79375 0.0265,-0.132292 -0.18521,-0.105834 -0.18521,0.02646 z"
       id="path1298"
       style="stroke-width:1.465;stroke-miterlimit:4;stroke-dasharray:none" />
    <path
       fill="#2c300f"
       d="m 130.44525,75.919689 c -0.42333,0.105833 -0.76729,0.423333 -0.89958,0.846667 -0.0529,0.132291 0.15875,0.15875 0.21166,0.02646 0.10584,-0.343958 0.39688,-0.608542 0.74084,-0.687917 0.13229,-0.02646 0.0794,-0.238125 -0.0529,-0.185208 z"
       id="path1300"
       style="stroke-width:1.465;stroke-miterlimit:4;stroke-dasharray:none" />
    <path
       fill="#2c300f"
       d="m 130.02192,77.401356 c -0.29104,0.15875 -0.55563,0.343958 -0.60854,0.687916 -0.0265,0.105834 0.0529,0.238125 0.10583,0.343959 0.13229,0.291041 -0.21167,0.47625 -0.44979,0.449791 -0.0794,0 -0.15875,-0.02646 -0.23813,0 -0.26458,0.02646 -0.52916,0.132292 -0.58208,0.423334 -0.0529,0.291041 0.3175,0.449791 0.44979,0.635 0.13229,0.185208 0.13229,0.47625 0.10583,0.687916 -0.0265,0.370417 -0.1852,0.555625 -0.5027,0.714375 -0.29105,0.132292 -0.58209,0.211667 -0.82021,0.47625 -0.60854,0.635 0.10583,1.349375 0.58208,1.613959 0.10583,0.05292 0.21167,-0.132292 0.10583,-0.185209 -0.42333,-0.238125 -0.87312,-0.635 -0.58208,-1.217083 0.15875,-0.291042 0.60854,-0.370417 0.87313,-0.502708 0.55562,-0.291042 0.635,-0.873125 0.52916,-1.402292 -0.0529,-0.264583 -0.23812,-0.449792 -0.42333,-0.608542 -0.15875,-0.105833 -0.13229,-0.238125 0.10583,-0.396875 0.13229,-0.05292 0.3175,0 0.44979,0 0.1323,0 0.23813,-0.02646 0.37042,-0.05292 0.21167,-0.07937 0.3175,-0.291042 0.3175,-0.47625 0,-0.105834 -0.0529,-0.185209 -0.0794,-0.264584 -0.15875,-0.343958 0.10583,-0.582083 0.42333,-0.740833 0.10583,-0.07937 0,-0.238125 -0.13229,-0.185208 z"
       id="path1302"
       style="stroke-width:1.465;stroke-miterlimit:4;stroke-dasharray:none" />
    <path
       fill="#2c300f"
       d="m 128.40796,83.671981 c -0.29104,0.211666 -0.66146,0.608541 -0.37042,0.926041 0.0794,0.105834 0.23813,-0.05292 0.15875,-0.15875 -0.18521,-0.211666 0.15875,-0.47625 0.3175,-0.608541 0.10584,-0.05292 0.0265,-0.238125 -0.10583,-0.15875 z"
       id="path1304"
       style="stroke-width:1.465;stroke-miterlimit:4;stroke-dasharray:none" />
    <path
       fill="#2c300f"
       d="m 128.22275,85.735731 c -0.21167,0.07937 -0.37042,0.291041 -0.37042,0.502708 0,0.132292 0.21167,0.105833 0.21167,-0.02646 0,-0.132292 0.0794,-0.238125 0.21167,-0.291042 0.13229,-0.02646 0.0794,-0.238125 -0.0529,-0.185208 z"
       id="path1306"
       style="stroke-width:1.465;stroke-miterlimit:4;stroke-dasharray:none" />
    <path
       fill="#2c300f"
       d="m 120.97317,82.640106 c -0.42334,-0.105834 -0.84667,0.291041 -0.79375,0.714375 0.0265,0.132291 0.23812,0.105833 0.21166,-0.02646 -0.0264,-0.3175 0.23813,-0.555625 0.52917,-0.502708 0.10583,0.05292 0.15875,-0.15875 0.0529,-0.185208 z"
       id="path1308"
       style="stroke-width:1.465;stroke-miterlimit:4;stroke-dasharray:none" />
    <path
       fill="#2c300f"
       d="m 116.58108,82.745939 c 0.10584,-0.3175 0.18521,-0.740833 -0.13229,-0.899583 -0.10583,-0.05292 -0.21166,0.132291 -0.10583,0.185208 0.23812,0.132292 0.13229,0.47625 0.0529,0.687917 -0.0529,0.132291 0.15875,0.185208 0.1852,0.02646 z"
       id="path1310"
       style="stroke-width:1.465;stroke-miterlimit:4;stroke-dasharray:none" />
    <path
       fill="#2c300f"
       d="m 113.96171,84.994897 c -0.23813,0.264584 -0.18521,0.608542 0.0529,0.79375 0.3175,0.264584 0.84666,0.07937 1.21708,0.05292 0.71437,-0.105833 0.68792,0.555625 0.97896,0.978958 0.10583,0.132292 0.29104,0.211667 0.42333,0.291042 0.29104,0.132292 0.58208,0.291042 0.87313,0.423333 0.10583,0.05292 0.23812,-0.132291 0.10583,-0.185208 -0.34396,-0.15875 -0.71438,-0.343958 -1.05833,-0.502708 -0.34396,-0.15875 -0.34396,-0.582084 -0.52917,-0.899584 -0.15875,-0.238125 -0.42333,-0.291041 -0.68792,-0.291041 -0.18521,0 -0.37041,0.05292 -0.52916,0.07937 -0.29105,0.05292 -1.13771,-0.05292 -0.68792,-0.555625 0.0794,-0.15875 -0.0529,-0.291042 -0.15875,-0.185209 z"
       id="path1312"
       style="stroke-width:1.465;stroke-miterlimit:4;stroke-dasharray:none" />
    <path
       fill="#2c300f"
       d="m 110.44275,82.693022 c -0.52917,0.502709 -0.47625,1.296459 0.0794,1.640417 0.10583,0.05292 0.21166,-0.132292 0.10583,-0.185208 -0.44979,-0.264584 -0.47625,-0.899584 -0.0529,-1.296459 0.13229,-0.132291 -0.0265,-0.264583 -0.13229,-0.15875 z"
       id="path1314"
       style="stroke-width:1.465;stroke-miterlimit:4;stroke-dasharray:none" />
    <path
       fill="#2c300f"
       d="m 111.2365,85.206564 c -0.52917,1.164167 0.82021,1.640417 1.56104,1.984375 0.3175,0.15875 0.0794,0.449792 0.26459,0.661458 0.21166,0.238125 0.5027,0.238125 0.52916,0.608542 0.0265,0.370417 0.39688,0.555625 0.74084,0.502708 -0.0265,-0.05292 -0.0529,-0.105833 -0.0794,-0.185208 -0.50271,0.635 1.00542,0.978958 1.27,0.238125 -0.0794,0 -0.13229,0.02646 -0.21167,0.02646 0.0529,0.132292 0.10584,0.185209 0.23813,0.211667 0.10583,0.02646 0.68792,-0.05292 0.60854,0.15875 -0.0529,0.132292 0.15875,0.15875 0.21167,0.02646 0.21166,-0.582083 -0.74084,-0.264583 -0.82021,-0.502708 -0.0265,-0.105833 -0.15875,-0.07937 -0.21167,0.02646 -0.0529,0.185209 -0.23812,0.211667 -0.39687,0.238125 -0.10584,0 -0.74084,0 -0.50271,-0.291041 0.0529,-0.07937 0.0265,-0.185209 -0.0794,-0.185209 -0.29104,0.05292 -0.5027,-0.105833 -0.52916,-0.396875 0,-0.105833 -0.0265,-0.238125 -0.10584,-0.3175 -0.13229,-0.132291 -0.29104,-0.185208 -0.42333,-0.291041 -0.15875,-0.132292 0,-0.370417 -0.0794,-0.502709 -0.21167,-0.343958 -0.71438,-0.449791 -1.05834,-0.608541 -0.47625,-0.238125 -0.97896,-0.714375 -0.71437,-1.349375 0.0265,-0.07937 -0.15875,-0.185209 -0.21167,-0.05292 z"
       id="path1316"
       style="stroke-width:1.465;stroke-miterlimit:4;stroke-dasharray:none" />
    <path
       fill="#2c300f"
       d="m 110.54858,80.576356 c -0.26458,-0.343959 -0.37041,-0.714375 -0.34395,-1.164167 0.0265,-0.343958 0.3175,-0.767292 0.21166,-1.084792 -0.0265,-0.105833 -0.0794,-0.211666 -0.13229,-0.3175 -0.0794,-0.132291 -0.18521,-0.264583 0,-0.449791 0.0529,-0.05292 0.13229,-0.105834 0.15875,-0.185209 0.0794,-0.132291 0.0529,-0.185208 -0.0265,-0.291041 -0.10583,-0.15875 -0.60854,-0.502709 -0.0794,-0.687917 0.13229,-0.05292 0.0794,-0.238125 -0.0529,-0.211667 -0.37042,0.132292 -0.52917,0.370417 -0.34396,0.714375 0.0265,0.05292 0.10584,0.105834 0.15875,0.15875 0.18521,0.15875 0.13229,0.238125 -0.0265,0.423334 -0.10583,0.132291 -0.13229,0.264583 -0.0794,0.423333 0.0529,0.264583 0.26458,0.343958 0.23812,0.661458 -0.0265,0.264584 -0.1852,0.502709 -0.21166,0.767292 -0.0529,0.502708 0.0794,0.978958 0.37041,1.375833 0.0265,0.105834 0.21167,-0.02646 0.15875,-0.132291 z"
       id="path1318"
       style="stroke-width:1.465;stroke-miterlimit:4;stroke-dasharray:none" />
    <path
       fill="#2c300f"
       d="m 110.12525,74.940731 c 0.21167,-0.291042 0.39688,-0.635 0.55563,-0.978958 0.10583,-0.238125 0.13229,-0.582084 0.37041,-0.740834 0.13229,-0.105833 0.23813,-0.15875 0.34396,-0.291041 0.15875,-0.211667 0.18521,-0.529167 0.23813,-0.79375 0.0794,-0.502709 0.34395,-0.820209 0.66145,-1.190625 0.0794,-0.105834 0.15875,-0.211667 0.23813,-0.3175 0.13229,-0.185209 0.15875,-0.449792 0.37042,-0.582084 0.26458,-0.211666 0.21166,-0.555625 0.42333,-0.79375 0.15875,-0.185208 0.39687,-0.264583 0.635,-0.264583 0.0794,0 0.18521,-0.05292 0.26458,-0.105833 0.21167,-0.238125 0.37042,-0.555625 0.47625,-0.873125 -0.0265,0.02646 -0.0794,0.05292 -0.10583,0.07938 0.0529,0 0.13229,0.02646 0.18521,0.02646 0.13229,0.05292 0.23812,-0.132292 0.10583,-0.185208 -0.10583,-0.05292 -0.18521,-0.05292 -0.29104,-0.05292 -0.0529,0 -0.0794,0.05292 -0.10583,0.07937 -0.0794,0.185208 -0.15875,0.370417 -0.26459,0.529167 -0.13229,0.238125 -0.37041,0.264583 -0.58208,0.3175 -0.21167,0.05292 -0.42333,0.211666 -0.52917,0.396875 -0.0529,0.07937 -0.13229,0.185208 -0.15875,0.291041 -0.0529,0.211667 -0.18521,0.370417 -0.3175,0.529167 -0.10583,0.105833 -0.13229,0.291042 -0.21166,0.423333 -0.10584,0.211667 -0.29105,0.396875 -0.4498,0.582084 -0.21166,0.238125 -0.37041,0.47625 -0.47625,0.767291 -0.13229,0.423334 -0.0529,0.899584 -0.44979,1.217084 -0.23812,0.185208 -0.34396,0.291041 -0.42333,0.555625 -0.13229,0.449791 -0.37042,0.899583 -0.66146,1.296458 -0.10583,0.105833 0.0794,0.211667 0.15875,0.07937 z"
       id="path1320"
       style="stroke-width:1.465;stroke-miterlimit:4;stroke-dasharray:none" />
    <path
       fill="#2c300f"
       d="m 112.77108,72.294898 c -0.21166,0.264583 -0.42333,0.555625 -0.39687,0.899583 0.0265,0.238125 -0.15875,0.185208 -0.29104,0.291042 -0.13229,0.07937 -0.21167,0.185208 -0.23813,0.3175 -0.0265,0.105833 0.0529,0.238125 0.10584,0.3175 0.0794,0.132291 -0.0529,0.396875 -0.0529,0.555625 -0.0265,0.370416 0.23812,0.714374 0.29104,1.058333 0.0265,0.132291 0.23813,0.05292 0.21167,-0.07937 -0.0529,-0.264584 -0.15875,-0.502708 -0.23813,-0.767292 -0.0529,-0.185208 -0.0265,-0.370416 0.0265,-0.555625 0.0265,-0.07937 0.0265,-0.185208 0,-0.238125 -0.0265,-0.05292 -0.0529,-0.105833 -0.0794,-0.15875 -0.15875,-0.264583 0.26458,-0.3175 0.34395,-0.343958 0.0794,-0.02646 0.1323,-0.07937 0.15875,-0.132292 0.0529,-0.132291 0.0265,-0.238125 0,-0.370416 -0.0264,-0.211667 0.21167,-0.47625 0.34396,-0.635 0.0529,-0.132292 -0.0794,-0.264584 -0.18521,-0.15875 z"
       id="path1322"
       style="stroke-width:1.465;stroke-miterlimit:4;stroke-dasharray:none" />
    <path
       fill="#2c300f"
       d="m 117.42775,88.963647 c 0.0265,0.238125 0.15875,0.449792 0.34396,0.608542 0.10583,0.07937 0.26458,-0.07937 0.15875,-0.15875 -0.15875,-0.132292 -0.26458,-0.291042 -0.29104,-0.502708 -0.0265,-0.15875 -0.23813,-0.07937 -0.21167,0.05292 z"
       id="path1324"
       style="stroke-width:1.465;stroke-miterlimit:4;stroke-dasharray:none" />
    <path
       fill="#2c300f"
       d="m 118.90942,90.974481 c 0.23812,0.370416 0.635,0.661458 1.03187,0.238125 0.29104,-0.291042 0.55563,0.15875 0.82021,0.105833 0.26458,-0.05292 0.47625,-0.264583 0.76729,-0.343958 0.47625,-0.132292 1.05834,-0.238125 1.05834,-0.846667 0,-0.15875 0.23812,-0.291042 0.34395,-0.396875 0.10584,-0.105833 0.18521,-0.238125 0.23813,-0.370417 0.10583,-0.238125 0.10583,-0.529166 0,-0.740833 -0.0529,-0.132292 -0.26458,-0.05292 -0.21167,0.07938 0.10584,0.264583 0.0794,0.555625 -0.13229,0.820208 -0.10583,0.132292 -0.3175,0.211667 -0.39687,0.370417 -0.1323,0.238125 -0.0529,0.502708 -0.3175,0.661458 -0.21167,0.15875 -0.52917,0.15875 -0.7673,0.238125 -0.21166,0.05292 -0.44979,0.3175 -0.66145,0.3175 -0.15875,-0.02646 -0.29105,-0.15875 -0.4498,-0.211666 -0.10583,-0.02646 -0.21166,-0.02646 -0.3175,0.02646 -0.0794,0.05292 -0.10583,0.07937 -0.1852,0.132292 -0.34396,0.3175 -0.55563,0.02646 -0.71438,-0.211667 0.0265,-0.105833 -0.15875,0.02646 -0.10583,0.132292 z"
       id="path1326"
       style="stroke-width:1.465;stroke-miterlimit:4;stroke-dasharray:none" />
    <path
       fill="#2c300f"
       d="m 123.19567,90.180731 c 0,0.291041 0.26458,0.47625 0.55562,0.370416 0.29104,-0.07937 0.47625,-0.343958 0.79375,-0.211666 0.13229,0.05292 0.26459,0.05292 0.39688,-0.05292 0.13229,-0.07937 0.0265,-0.264583 -0.10584,-0.185208 -0.1852,0.132291 -0.39687,-0.132292 -0.60854,-0.05292 -0.18521,0.07937 -0.79375,0.582083 -0.82021,0.07937 0,-0.105833 -0.21166,-0.07937 -0.21166,0.05292 z"
       id="path1328"
       style="stroke-width:1.465;stroke-miterlimit:4;stroke-dasharray:none" />
    <path
       fill="#2c300f"
       d="m 127.64067,63.166773 c -0.13229,0 -0.18521,-0.291042 -0.23813,-0.396875 -0.0529,-0.07937 -0.13229,-0.132292 -0.23812,-0.15875 -0.21167,-0.05292 -0.44979,0.238125 -0.55563,0.396875 0.0529,0 0.10584,-0.02646 0.15875,-0.02646 -0.23812,-0.211666 -0.52916,-0.396875 -0.87312,-0.211666 -0.18521,0.105833 -0.18521,0.291041 -0.42334,0.343958 -0.15875,0.02646 -0.3175,0.02646 -0.44979,0.05292 -0.39687,0.02646 -0.76729,0.02646 -1.13771,-0.105834 -0.23812,-0.07937 -0.71437,-0.555625 -1.00541,-0.15875 -0.0794,0.105834 -0.13229,0.185209 -0.18521,0.291042 -0.10583,0.211667 -0.26458,0.238125 -0.44979,0.264583 -0.18521,0.05292 -0.34396,0.07937 -0.44979,0.238125 -0.0794,0.105834 0.0529,0.264584 0.15875,0.132292 0.21166,-0.264583 0.60854,-0.185208 0.84666,-0.449792 0.0529,-0.05292 0.0794,-0.132291 0.13229,-0.211666 0.18521,-0.343959 0.42334,-0.185209 0.55563,-0.07937 0.21167,0.132291 0.39687,0.211666 0.66146,0.264583 0.42333,0.07937 0.89958,0.02646 1.34937,-0.02646 0.10584,-0.02646 0.23813,-0.07937 0.3175,-0.15875 0.29104,-0.3175 0.55563,-0.238125 0.82021,0 0.0529,0.05292 0.13229,0.02646 0.15875,-0.02646 0.0529,-0.105833 0.23813,-0.343958 0.39688,-0.238125 0.0794,0.05292 0.10583,0.238125 0.15875,0.343959 0.0529,0.105833 0.13229,0.185208 0.26458,0.185208 0.10583,-0.05292 0.15875,-0.264583 0.0265,-0.264583 z"
       id="path1330"
       style="stroke-width:1.465;stroke-miterlimit:4;stroke-dasharray:none" />
    <path
       fill="#2c300f"
       d="m 120.7615,64.383856 c -0.21167,-0.132292 -0.42333,-0.211667 -0.68792,-0.15875 -0.23812,0.05292 -0.44979,0.264583 -0.60854,0.449792 -0.10583,0.105833 0.0529,0.238125 0.15875,0.132291 0.13229,-0.132291 0.26459,-0.291041 0.42334,-0.370416 0.21166,-0.07937 0.42333,0.02646 0.60854,0.132291 0.10583,0.07937 0.21166,-0.105833 0.10583,-0.185208 z"
       id="path1332"
       style="stroke-width:1.465;stroke-miterlimit:4;stroke-dasharray:none" />
    <path
       fill="#2c300f"
       d="m 132.32379,65.389273 c 0.0265,-0.132292 -0.0265,-0.238125 -0.13229,-0.3175 -0.0529,-0.02646 -0.10583,0 -0.13229,0.05292 -0.0265,0.05292 0,0.105834 0.0265,0.132292 0,0 0,0 0,0 0,0 0,0 0.0265,0 0,0 0,0 0,0 0,0 0,0.02646 0.0264,0.02646 0,-0.02646 0,0.02646 0,0.02646 0,0 0,0.02646 0,0 0,0 0,0.02646 0,0.02646 0,0.05292 0.0265,0.105833 0.0794,0.132292 0.0265,0.02646 0.0794,-0.02646 0.10583,-0.07937 z"
       id="path1334"
       style="stroke-width:1.465;stroke-miterlimit:4;stroke-dasharray:none" />
    <path
       fill="#2c300f"
       d="m 135.63108,81.423022 c 0.10584,0.02646 0.58209,0.132292 0.37042,0.396875 -0.0529,0.07937 -0.15875,0.105834 -0.23812,0.185209 -0.1323,0.15875 -0.18521,0.3175 -0.23813,0.502708 -0.0529,0.264583 -0.0529,0.529167 -0.26458,0.740833 -0.13229,0.15875 -0.34396,0.238125 -0.39688,0.449792 -0.10583,0.343958 0.21167,0.661458 0.0794,0.9525 -0.10584,0.238125 -0.76729,0.15875 -0.97896,0.264583 -0.29104,0.15875 -0.37042,0.449792 -0.39688,0.740834 -0.0265,0.15875 -0.0265,0.343958 -0.26458,0.396875 -0.10583,0.02646 -0.21167,0 -0.3175,0.02646 -0.18521,0.05292 -0.34396,0.132292 -0.47625,0.264583 -0.13229,0.132292 -0.23812,0.264584 -0.29104,0.423334 -0.0265,0.07937 -0.0529,0.15875 -0.0529,0.238125 -0.0529,0.291041 -0.23812,0.185208 -0.39687,0.185208 -0.18521,0.02646 -0.29104,0.105833 -0.39688,0.238125 -0.0529,0.07937 -0.37041,0.767292 -0.50271,0.555625 -0.10583,-0.132292 -0.34395,0.02646 -0.23812,0.15875 0.21167,0.3175 0.58208,0.07937 0.76729,-0.185208 0.10583,-0.15875 0.15875,-0.47625 0.42333,-0.47625 0.10584,0 0.18521,0.02646 0.26459,0 0.21166,-0.02646 0.3175,-0.264584 0.34396,-0.423334 0.0794,-0.370416 0.3175,-0.661458 0.68791,-0.714375 0.23813,-0.02646 0.42334,0 0.60854,-0.211666 0.10584,-0.132292 0.1323,-0.343959 0.15875,-0.502709 0.0529,-0.396875 0.23813,-0.502708 0.60855,-0.529166 0.26458,-0.02646 0.68791,-0.07937 0.76729,-0.423334 0.0265,-0.185208 0,-0.343958 -0.0529,-0.502708 -0.0265,-0.105833 -0.0794,-0.211667 -0.0794,-0.3175 0,-0.185208 0.3175,-0.370417 0.42333,-0.502708 0.15875,-0.15875 0.18521,-0.423334 0.23812,-0.608542 0.0265,-0.15875 0.0529,-0.291042 0.10584,-0.423333 0.0794,-0.15875 0.29104,-0.264584 0.37041,-0.396875 0.3175,-0.423334 -0.23812,-0.714375 -0.52916,-0.79375 -0.21167,-0.02646 -0.26459,0.238125 -0.10584,0.291041 z"
       id="path1336"
       style="stroke-width:1.465;stroke-miterlimit:4;stroke-dasharray:none" />
    <path
       fill="#2c300f"
       d="m 136.55713,77.533647 c 0.42333,-0.238125 1.08479,-0.820208 0.79375,-1.296458 -0.0794,-0.15875 -0.26459,-0.238125 -0.0265,-0.396875 0.0794,-0.05292 0.15875,-0.15875 0.18521,-0.238125 0.10583,-0.3175 0,-0.608541 -0.15875,-0.873125 -0.0794,-0.15875 -0.3175,0 -0.23813,0.15875 0.0529,0.105834 0.10583,0.238125 0.15875,0.343959 0.0529,0.238124 -0.10583,0.396874 -0.26458,0.529166 -0.10584,0.105833 -0.0794,0.264583 -0.0529,0.370417 0.0529,0.105833 0.26458,0.291041 0.21167,0.423333 -0.13229,0.3175 -0.42334,0.582083 -0.71438,0.767292 -0.21166,0.07938 -0.0794,0.3175 0.10584,0.211666 z"
       id="path1338"
       style="stroke-width:1.465;stroke-miterlimit:4;stroke-dasharray:none" />
    <path
       fill="#2c300f"
       d="m 126.00025,71.898023 c -0.0265,0.15875 -0.0529,0.3175 -0.0529,0.47625 0,0.07937 0.0794,0.132291 0.1323,0.132291 0.0794,0 0.13229,-0.07937 0.13229,-0.15875 0.0265,-0.15875 0.0529,-0.3175 0.0529,-0.47625 0,-0.07938 -0.0794,-0.132291 -0.13229,-0.132291 -0.0794,0 -0.13229,0.07937 -0.13229,0.15875 z"
       id="path1340"
       style="stroke-width:1.465;stroke-miterlimit:4;stroke-dasharray:none" />
    <path
       fill="#2c300f"
       d="m 116.3165,76.157814 c -0.44979,0.07937 -0.79375,0.47625 -0.76729,0.926042 0,0.185208 0.29104,0.15875 0.29104,-0.02646 0,-0.291041 0.21167,-0.555625 0.50271,-0.608541 0.13229,-0.05292 0.15875,-0.343959 -0.0265,-0.291042 z"
       id="path1342"
       style="stroke-width:1.465;stroke-miterlimit:4;stroke-dasharray:none" />
    <path
       fill="#2c300f"
       d="m 114.46442,78.353856 c -0.0265,0.05292 -0.0794,0.132291 -0.10584,0.185208 -0.0264,0.07937 -0.0264,0.15875 0.0529,0.185208 0.0794,0.02646 0.15875,0 0.18521,-0.07937 0.0265,-0.05292 0.0794,-0.132291 0.10583,-0.185208 0.0265,-0.07937 0.0265,-0.15875 -0.0529,-0.185208 -0.0529,-0.02646 -0.15875,0 -0.18521,0.07937 z"
       id="path1344"
       style="stroke-width:1.465;stroke-miterlimit:4;stroke-dasharray:none" />
    <path
       fill="#2c300f"
       d="m 116.9515,78.777189 c -0.47625,0.529167 -0.79375,1.217083 -0.3175,1.74625 0.23813,0.238125 0.60854,0.343958 0.9525,0.396875 0.23813,0.05292 0.50271,0.07937 0.74083,0.132292 0.1323,0.02646 0.26459,0.05292 0.39688,0.07937 0.15875,0.02646 0.79375,0.264583 0.39687,0.502708 -0.0529,0.02646 -0.0794,0.105833 -0.0794,0.15875 0.0794,0.211667 0.18521,0.343958 0.37042,0.449792 0.15875,0.07937 0.29104,-0.185209 0.13229,-0.264584 -0.10584,-0.05292 -0.18521,-0.15875 -0.23813,-0.264583 -0.0265,0.05292 -0.0529,0.105833 -0.0794,0.15875 0.23812,-0.132292 0.29104,-0.396875 0.21166,-0.635 -0.13229,-0.370417 -0.71437,-0.396875 -1.05833,-0.449792 -0.50271,-0.07937 -1.08479,-0.132291 -1.48167,-0.423333 -0.5027,-0.370417 -0.13229,-1.005417 0.23813,-1.402292 0.15875,-0.132291 -0.0529,-0.3175 -0.18521,-0.185208 z"
       id="path1346"
       style="stroke-width:1.465;stroke-miterlimit:4;stroke-dasharray:none" />
    <path
       fill="#2c300f"
       d="m 110.919,79.491564 c 0.23813,-0.211667 0.52917,-0.15875 0.635,0.105833 0.0794,0.185209 -0.0794,0.396875 -0.18521,0.582084 -0.0794,0.185208 -0.0529,0.343958 0.0265,0.502708 0.10583,0.211667 0.39688,0.291042 0.60854,0.370417 0.42334,0.15875 -0.18521,0.79375 -0.34396,1.031875 -0.0264,0.05292 -0.0264,0.132291 0.0265,0.15875 0.34396,0.3175 0.76729,0.502708 1.27,0.529166 -0.0265,-0.05292 -0.0529,-0.105833 -0.10583,-0.15875 -0.18521,0.555625 0.15875,1.11125 0.71437,1.137709 -0.0264,-0.07937 -0.0529,-0.132292 -0.0794,-0.211667 -0.21167,0.3175 -0.0794,0.661458 0.26458,0.740833 0.15875,0.05292 0.23813,-0.238125 0.0794,-0.291041 -0.0265,-0.105834 -0.0529,-0.238125 -0.0794,-0.343959 0.0529,-0.07937 0,-0.185208 -0.0794,-0.211666 -0.42334,-0.02646 -0.66146,-0.396875 -0.52917,-0.820209 0.0265,-0.07937 -0.0265,-0.15875 -0.10583,-0.15875 -0.44979,-0.02646 -0.82021,-0.185208 -1.13771,-0.47625 0,0.05292 0,0.105834 0.0265,0.15875 0.18521,-0.264583 0.68791,-0.767291 0.58208,-1.11125 -0.0529,-0.15875 -0.18521,-0.238125 -0.34396,-0.291041 -0.10583,-0.05292 -0.23812,-0.105834 -0.37041,-0.15875 -0.29105,-0.132292 -0.1323,-0.449792 0,-0.687917 0.15875,-0.291042 0.0264,-0.635 -0.21167,-0.79375 -0.26458,-0.185208 -0.635,-0.07937 -0.87313,0.15875 -0.13229,0.185208 0.0794,0.370417 0.21167,0.238125 z"
       id="path1348"
       style="stroke-width:1.465;stroke-miterlimit:4;stroke-dasharray:none" />
    <path
       fill="#2c300f"
       d="m 131.63588,79.094689 c 0.26458,0.185208 0.635,0.185208 0.79375,-0.211667 0.13229,-0.370416 -0.0529,-0.687916 -0.42334,-0.740833 0.0265,0.05292 0.0794,0.07937 0.10584,0.132292 0,-0.132292 0.39687,-0.3175 0.47625,-0.423334 0.15875,-0.185208 0.0794,-0.449791 0.0794,-0.661458 -0.0265,-0.291042 0.34396,-0.529167 0.3175,-0.846667 0,-0.07937 -0.0529,-0.15875 -0.0794,-0.211666 -0.1323,-0.238125 0.0529,-0.396875 0.10583,-0.635 0.0529,-0.15875 0.0529,-0.396875 -0.10583,-0.47625 -0.15875,-0.07937 -0.47625,0.105833 -0.60855,0.185208 -0.37041,0.211667 -0.47625,0.79375 -0.10583,0.9525 0.15875,0.07937 0.29104,-0.185208 0.13229,-0.264583 -0.37041,-0.185209 0.10584,-0.47625 0.23813,-0.529167 0.10583,-0.05292 0.18521,-0.05292 0.29104,-0.07937 -0.0529,0 -0.0794,-0.02646 -0.13229,-0.02646 0.13229,0.132291 -0.0794,0.370416 -0.13229,0.47625 -0.0529,0.132291 -0.0529,0.238125 -0.0265,0.370416 0.0529,0.185209 0.21166,0.211667 0.0794,0.47625 -0.0529,0.132292 -0.18521,0.264584 -0.23812,0.423334 -0.10584,0.3175 0.0794,0.661458 -0.26459,0.873125 -0.1852,0.105833 -0.34395,0.211666 -0.34395,0.449791 0,0.05292 0.0529,0.105834 0.10583,0.132292 0.44979,0.05292 0.21167,0.635 -0.13229,0.396875 -0.13229,-0.105833 -0.29104,0.15875 -0.13229,0.238125 z"
       id="path1350"
       style="stroke-width:1.465;stroke-miterlimit:4;stroke-dasharray:none" />
    <path
       fill="#2c300f"
       d="m 121.58171,66.368231 c -0.21167,-0.02646 -0.37042,-0.105833 -0.55563,-0.211667 0,0.07937 0.0265,0.15875 0.0265,0.211667 0.18521,-0.211667 0.55563,-0.291042 0.66146,-0.582083 0.0265,-0.105834 0.0265,-0.211667 0.0265,-0.3175 -0.0265,-0.132292 -0.13229,-0.370417 -0.0265,-0.502709 0.13229,-0.132291 -0.0529,-0.3175 -0.18521,-0.185208 -0.18521,0.185208 -0.13229,0.423333 -0.0794,0.635 0.0529,0.211667 0.0265,0.343958 -0.18521,0.47625 -0.13229,0.07937 -0.26458,0.15875 -0.39688,0.291042 -0.0529,0.07937 -0.0529,0.185208 0.0265,0.211666 0.18521,0.105834 0.39688,0.185209 0.60854,0.238125 0.18521,0.05292 0.26459,-0.211666 0.0794,-0.264583 z"
       id="path1352"
       style="stroke-width:1.465;stroke-miterlimit:4;stroke-dasharray:none" />
    <path
       fill="#2c300f"
       d="m 118.77713,66.235939 c -0.0794,-0.02646 -0.18521,-0.132291 -0.29105,-0.07937 -0.0794,0.02646 -0.15875,0.105834 -0.23812,0.185209 -0.13229,0.15875 -0.15875,0.370416 -0.10583,0.555625 0.0529,0.15875 0.3175,0.07937 0.26458,-0.105834 -0.0529,-0.15875 0.0265,-0.291041 0.15875,-0.396875 -0.0529,0 -0.10583,0 -0.13229,0.02646 0.0529,0.02646 0.13229,0.05292 0.18521,0.07937 0.1852,0.05292 0.3175,-0.211667 0.15875,-0.264584 z"
       id="path1354"
       style="stroke-width:1.465;stroke-miterlimit:4;stroke-dasharray:none" />
    <path
       fill="#2c300f"
       d="m 117.11025,69.225731 c 0,0.02646 -0.0265,0.05292 -0.0265,0.05292 -0.0265,0.07937 -0.0265,0.15875 0.0529,0.185208 0.0794,0.02646 0.15875,0 0.18521,-0.07938 0,-0.02646 0.0265,-0.05292 0.0265,-0.05292 0.0264,-0.07937 0.0264,-0.15875 -0.0529,-0.185208 -0.0794,-0.02646 -0.13229,0 -0.18521,0.07937 z"
       id="path1356"
       style="stroke-width:1.465;stroke-miterlimit:4;stroke-dasharray:none" />
    <path
       fill="#2c300f"
       d="m 121.55525,73.220939 c 0,0.07937 0.0265,0.15875 0.0265,0.264584 0,0.07937 0.0529,0.132291 0.13229,0.132291 0.0794,0 0.15875,-0.07937 0.13229,-0.15875 0,-0.07937 -0.0265,-0.15875 -0.0265,-0.264583 0,-0.07937 -0.0529,-0.132292 -0.13229,-0.132292 -0.0794,0 -0.15875,0.07937 -0.13229,0.15875 z"
       id="path1358"
       style="stroke-width:1.465;stroke-miterlimit:4;stroke-dasharray:none" />
    <path
       fill="#2c300f"
       d="m 123.06338,81.211356 c 0.13229,0.07937 0.29104,0.132291 0.42333,0.211666 0.15875,0.07937 0.29104,-0.185208 0.13229,-0.264583 -0.13229,-0.07937 -0.29104,-0.132292 -0.42333,-0.211667 -0.15875,-0.05292 -0.29104,0.185209 -0.13229,0.264584 z"
       id="path1360"
       style="stroke-width:1.465;stroke-miterlimit:4;stroke-dasharray:none" />
    <path
       fill="#2c300f"
       d="m 122.05796,86.053231 c 0.23812,0.07937 0.44979,0.132291 0.58208,0.3175 0.10584,0.132291 0.13229,0.370416 0.15875,0.529166 0.0794,0.238125 0.23813,0.423334 0.50271,0.449792 0.18521,0.02646 0.26458,-0.264583 0.0794,-0.291042 -0.37042,-0.02646 -0.37042,-0.608541 -0.50271,-0.873125 -0.13229,-0.264583 -0.47625,-0.370416 -0.76729,-0.449791 -0.15875,-0.02646 -0.23813,0.264583 -0.0529,0.3175 z"
       id="path1362"
       style="stroke-width:1.465;stroke-miterlimit:4;stroke-dasharray:none" />
  </g>
</svg>
