<?xml version="1.0" encoding="UTF-8" standalone="no"?>
<svg
   xmlns:dc="http://purl.org/dc/elements/1.1/"
   xmlns:cc="http://creativecommons.org/ns#"
   xmlns:rdf="http://www.w3.org/1999/02/22-rdf-syntax-ns#"
   xmlns:svg="http://www.w3.org/2000/svg"
   xmlns="http://www.w3.org/2000/svg"
   xmlns:sodipodi="http://sodipodi.sourceforge.net/DTD/sodipodi-0.dtd"
   xmlns:inkscape="http://www.inkscape.org/namespaces/inkscape"
   contentScriptType="text/ecmascript"
   width="100pt"
   zoomAndPan="magnify"
   contentStyleType="text/css"
   height="100.0pt"
   viewBox="0 0 464.01659 464.01659"
   preserveAspectRatio="xMidYMid meet"
   version="1.0"
   id="svg12"
   sodipodi:docname="PlantNewSpeciesl.svg"
   inkscape:version="1.0.2-2 (e86c870879, 2021-01-15)"
   inkscape:export-filename="./PlantationNewSpecies.png"
   inkscape:export-xdpi="11.52"
   inkscape:export-ydpi="11.52">
  <metadata
     id="metadata18">
    <rdf:RDF>
      <cc:Work
         rdf:about="">
        <dc:format>image/svg+xml</dc:format>
        <dc:type
           rdf:resource="http://purl.org/dc/dcmitype/StillImage" />
        <dc:title></dc:title>
      </cc:Work>
    </rdf:RDF>
  </metadata>
  <defs
     id="defs16" />
  <sodipodi:namedview
     pagecolor="#ffffff"
     bordercolor="#666666"
     borderopacity="1"
     objecttolerance="10"
     gridtolerance="10"
     guidetolerance="10"
     inkscape:pageopacity="0"
     inkscape:pageshadow="2"
     inkscape:window-width="1920"
     inkscape:window-height="1009"
     id="namedview14"
     showgrid="true"
     inkscape:zoom="6.45"
     inkscape:cx="66.666667"
     inkscape:cy="85.271318"
     inkscape:window-x="341"
     inkscape:window-y="1432"
     inkscape:window-maximized="1"
     inkscape:current-layer="svg12">
    <inkscape:grid
       type="xygrid"
       id="grid843" />
  </sodipodi:namedview>
  <path
     style="fill:#f58967;"
     d="m161.671875 358.9375c3.125-3.125 3.125-8.191406 0-11.3125l-45.277344-45.28125c-3.125-3.121094-8.191406-3.121094-11.3125 0l-93.363281 93.359375c-15.625 15.628906-15.625 40.964844 0 56.59375 15.628906 15.625 40.964844 15.625 56.59375 0zm0 0"
     id="path2" />
  <path
     style="fill:#90a4ae;"
     d="m206.929688 291.03125c3.121093-3.125 3.121093-8.1875 0-11.3125l-22.632813-22.628906c-3.175781-3.003906-8.140625-3.003906-11.3125 0l-33.9375 33.941406c-3.121094 3.125-3.121094 8.1875 0 11.3125l22.625 22.625c3.125 3.121094 8.1875 3.121094 11.3125 0zm0 0"
     id="path4" />
  <path
     style="fill:#cfd8dc;"
     d="m464.015625 8c0-4.417969-3.582031-8-8-8-117.359375 0-221.597656 66.238281-253.679687 98.320312-32.800782 32.878907-31.917969 151.199219-31.679688 164.558594.015625 2.074219.851562 4.058594 2.320312 5.519532l22.640626 22.640624c1.460937 1.46875 3.445312 2.304688 5.519531 2.320313 1.359375 0 3.839843.082031 7.199219.082031 29.441406 0 127.839843-2.242187 157.359374-31.761718 32.082032-32.078126 98.320313-136.320313 98.320313-253.679688zm0 0"
     id="path6" />
  <path
     style="fill:#fcb64d;"
     d="m184.3125 336.296875c3.125-3.125 3.125-8.1875 0-11.3125l-45.28125-45.28125c-3.121094-3.121094-8.1875-3.121094-11.3125 0l-28.292969 28.296875 56.589844 56.59375zm0 0"
     id="path8" />
  <path
     style="fill:#1e5f30;"
     d="m456.015625 0c-117.351563 0-221.597656 66.257812-253.65625 98.34375-30.933594 30.9375-31.917969 137.601562-31.757813 161.121094l-25.898437 25.910156-5.671875-5.671875c-3.121094-3.121094-8.1875-3.121094-11.3125 0l-22.636719 22.640625-93.363281 93.359375c-15.625 15.628906-15.625 40.964844 0 56.59375 15.628906 15.625 40.964844 15.625 56.59375 0l116-116c3.125-3.125 3.125-8.1875 0-11.3125l-5.671875-5.671875 25.910156-25.90625c39.929688.25 132.738281-3.367188 161.121094-31.75 32.089844-32.054688 98.34375-136.304688 98.34375-253.65625 0-4.417969-3.582031-8-8-8zm-399.015625 440.984375c-9.515625 9.046875-24.453125 9.046875-33.96875 0-9.359375-9.390625-9.359375-24.578125 0-33.96875l87.707031-87.703125 11.328125 11.328125-16.960937 16.960937c-3.03125 3.136719-2.988281 8.128907.097656 11.214844 3.085937 3.085938 8.074219 3.128906 11.214844.09375l16.957031-16.957031 11.328125 11.328125zm99.015625-99.015625-33.96875-33.96875 11.328125-11.328125 33.96875 33.96875zm11.3125-33.96875-11.3125-11.3125 22.625-22.632812 11.320313 11.320312zm187.03125-57.65625c-23.078125 23.070312-112.964844 27.25-149.734375 27.070312l-3.351562-3.359374 192.519531-192.519532c2.078125-2.007812 2.914062-4.980468 2.179687-7.777344-.730468-2.800781-2.914062-4.984374-5.710937-5.714843-2.796875-.734375-5.773438.101562-7.78125 2.179687l-192.519531 192.519532-3.359376-3.351563c-.265624-36.796875 4-126.65625 27.070313-149.734375 29.824219-29.824219 125.242187-90.632812 234.234375-93.542969-2.914062 108.992188-63.722656 204.40625-93.546875 234.230469zm0 0"
     id="path10" />
  <path
     style="fill:none;stroke:#00b835;stroke-width:27.841;stroke-linecap:round;stroke-linejoin:miter;stroke-miterlimit:4;stroke-dasharray:none;stroke-opacity:1"
     d="M 353.94937,435.01557 V 261.8223"
     id="path845" />
  <path
     style="fill:none;stroke:#00b835;stroke-width:27.841;stroke-linecap:round;stroke-linejoin:miter;stroke-miterlimit:4;stroke-dasharray:none;stroke-opacity:1"
     d="M 267.35273,348.41893 H 440.546"
     id="path847" />
</svg>
