<?xml version="1.0" encoding="UTF-8" standalone="no"?>
<svg
   xmlns:dc="http://purl.org/dc/elements/1.1/"
   xmlns:cc="http://creativecommons.org/ns#"
   xmlns:rdf="http://www.w3.org/1999/02/22-rdf-syntax-ns#"
   xmlns:svg="http://www.w3.org/2000/svg"
   xmlns="http://www.w3.org/2000/svg"
   xmlns:sodipodi="http://sodipodi.sourceforge.net/DTD/sodipodi-0.dtd"
   xmlns:inkscape="http://www.inkscape.org/namespaces/inkscape"
   width="53.386139mm"
   height="50.436657mm"
   viewBox="0 0 53.386139 50.436657"
   version="1.1"
   id="svg10290"
   inkscape:version="1.0.2-2 (e86c870879, 2021-01-15)"
   sodipodi:docname="shurb.svg">
  <defs
     id="defs10284" />
  <sodipodi:namedview
     id="base"
     pagecolor="#ffffff"
     bordercolor="#666666"
     borderopacity="1.0"
     inkscape:pageopacity="0.0"
     inkscape:pageshadow="2"
     inkscape:zoom="1.979899"
     inkscape:cx="83.805668"
     inkscape:cy="197.65329"
     inkscape:document-units="mm"
     inkscape:current-layer="layer1"
     inkscape:document-rotation="0"
     showgrid="false"
     fit-margin-top="0"
     fit-margin-left="0"
     fit-margin-right="0"
     fit-margin-bottom="0"
     inkscape:window-width="1278"
     inkscape:window-height="1360"
     inkscape:window-x="-7"
     inkscape:window-y="0"
     inkscape:window-maximized="0" />
  <metadata
     id="metadata10287">
    <rdf:RDF>
      <cc:Work
         rdf:about="">
        <dc:format>image/svg+xml</dc:format>
        <dc:type
           rdf:resource="http://purl.org/dc/dcmitype/StillImage" />
        <dc:title />
      </cc:Work>
    </rdf:RDF>
  </metadata>
  <g
     inkscape:label="Calque 1"
     inkscape:groupmode="layer"
     id="layer1"
     transform="translate(-150.19979,-89.686434)">
    <path
       fill-rule="evenodd"
       clip-rule="evenodd"
       fill="#62bc13"
       d="m 172.26678,90.200757 c 0,0.02646 0,0.05292 0,0.07937 0,-0.02646 0,-0.05292 0,-0.07937 z"
       id="path3740"
       style="stroke-width:0.264583" />
    <path
       fill-rule="evenodd"
       clip-rule="evenodd"
       fill="#62bc13"
       d="m 202.77324,113.0343 c 0,0 0,0 0,0 -0.13229,0.42333 -0.29104,0.82021 -0.42333,1.21708 0,0.0265 -0.0265,0.0529 -0.0265,0.10583 0.0265,0 0.0529,0 0.0794,0 0.0265,0 0.0265,0 0.0529,0 0.0265,0 0.0529,0 0.0794,0 0,0 0,0 0.0265,0 0.0265,0 0.0529,0 0.0529,-0.0264 0,0 0.0265,0 0.0265,-0.0265 0.0265,-0.0265 0.0529,-0.0529 0.0529,-0.0794 0,0 0,0 0,0 0,0 0,0.0265 0,0.0265 0,0.0265 0,0.0265 -0.0265,0.0529 -0.0265,0.0794 -0.0794,0.13229 -0.1323,0.15875 -0.0794,0.0529 -0.15875,0.0529 -0.23812,0.0794 -0.0529,0 -0.10583,0.0265 -0.15875,0.0529 l -0.26458,-0.0265 c 0.10583,0.15875 0.15875,0.29104 0.15875,0.42333 v 0 c 0.0529,0.29105 -0.0529,0.55563 -0.18521,0.82021 -0.21167,0.42334 -0.47625,0.84667 -0.34396,1.29646 0.0529,0.0794 0.0529,0.15875 0,0.21167 0.10583,0.37041 0,0.71437 -0.0529,1.05833 0,0.0265 0,0.0529 0,0.0794 -0.0265,0.21166 -0.0265,0.39687 0.0529,0.58208 0.0265,0.0529 0.0529,0.0794 0.0794,0.13229 -0.0529,0 -0.10583,0 -0.13229,0 -0.39687,0.0265 -0.52916,0.34396 -0.52916,0.66146 0,0.0794 0,0.13229 0,0.21167 0,0.0264 0,0.0529 0,0.0529 0.10583,0.13229 0.1852,0.52917 0.5027,0.18521 0,0.0794 -0.0264,0.13229 -0.0794,0.21167 -0.0529,0.0794 -0.10583,0.15875 -0.15875,0.23812 -0.13229,0.21167 -0.23813,0.39688 -0.0529,0.635 0.10584,0.13229 0.26459,-0.0794 0.52917,-0.0529 -0.15875,0.10583 -0.21167,0.47625 -0.21167,0.60854 0.37042,0.18521 0.68792,0.58208 0.50271,0.9525 -0.15875,0.21166 -0.44979,0.55562 -0.76729,0.23812 0.39687,0.44979 0.52917,0.66146 0.37042,0.74084 0.42333,0.15875 0.1852,0.13229 -0.89959,0 0.55563,0.1852 0.23813,0.21166 -0.0529,0.26458 -0.23813,0.0265 -0.4498,0.0794 -0.21167,0.21167 0.23812,0.15875 0.21167,0.29104 -0.52917,0.42333 0.44979,0.29104 -0.0529,0.50271 0.0794,0.92604 0.21166,0.44979 -0.26459,0.44979 -0.50271,0.68792 -0.18521,-0.13229 -0.37042,-0.23813 -0.55563,-0.29104 -0.21166,-0.0529 -0.39687,0.0264 -0.42333,0.26458 v 0 c -0.15875,0.60854 0.0265,1.11125 0.0529,1.5875 v 0 c 0,0.29104 -0.0529,0.58208 -0.29104,0.89958 0.10583,0.13229 0.0794,0.26459 0.34395,0.29104 -0.29104,0.26459 -0.52916,0.21167 -0.71437,0.0794 0.0794,0.29104 0.0529,0.58208 -0.18521,0.82021 -0.76729,0.89958 -0.34396,2.32833 -1.82562,2.64583 -0.10584,0.0265 -0.23813,0.0265 -0.3175,0 -0.10584,-0.0529 -0.15875,-0.13229 -0.15875,-0.26458 -0.0794,1.21708 -1.29646,1.66687 -2.32834,1.66687 -0.66146,0.0529 -1.24354,-0.29104 -1.69333,0.26459 -0.34396,0.44979 -0.44979,1.08479 -0.84667,1.27 -0.29104,0.21166 -0.97896,-0.37042 -1.42875,-0.0529 -0.3175,0.18521 -0.58208,0.39687 -0.82021,0.635 -0.23812,0.23812 -0.47625,0.50271 -0.71437,0.71437 0,0 -0.0265,0.0265 -0.0265,0.0265 -0.21167,0.18521 -0.44979,0.34396 -0.71437,0.42334 -0.29105,0.10583 -0.66146,0.10583 -1.0848,-0.0265 -0.23812,0.13229 -0.44979,0.29104 -0.60854,0.50271 -0.44979,0.52916 -0.74083,1.24354 -1.29646,1.66687 -0.0794,0.0529 -0.15875,0.10583 -0.26458,0.15875 -0.21167,0.0794 -0.39687,-0.0265 -0.52917,-0.18521 -0.21166,-0.21166 -0.37041,-0.52916 -0.52916,-0.47625 -1.32292,0.21167 -2.64584,0.39688 -3.94229,0.37042 -0.37042,-0.0529 -0.71438,0.47625 -0.87313,0.68792 -0.0529,0.0529 -0.10583,0.10583 -0.13229,0.0529 0,0 -0.0265,-0.0265 -0.0265,-0.0265 -0.635,-0.44979 -1.32292,-0.635 -2.01083,-0.74083 -2.01084,-0.15875 -4.02167,-0.37042 -5.58271,-1.27 -0.18521,-0.10583 -0.37042,-0.23812 -0.55563,-0.34396 -0.23812,-0.13229 -0.47625,-0.26458 -0.71437,-0.39687 0,0 0,0 0,0 -0.18521,-0.0794 -0.34396,-0.18521 -0.52917,-0.26459 -0.0265,0 -0.0265,-0.0264 -0.0529,-0.0264 v 0 c -0.71438,-0.37042 -1.42875,-0.71438 -2.11667,-1.05834 -1.905,-0.89958 -3.73063,-1.66687 -5.58271,-2.59291 -1.93146,-1.0848 -3.43958,-2.77813 -4.23333,-5.00063 -0.0265,-0.0794 -0.0529,-0.18521 -0.0794,-0.26458 0,-0.44979 -0.0529,-0.68792 -0.13229,-0.71438 -0.0794,0 -0.18521,0.21167 -0.34396,0.68792 0,0.0265 0,0.0265 -0.0265,0.0529 0,-0.0265 0,-0.0529 0,-0.0529 -0.0529,-0.74083 -0.23812,-0.42333 -0.3175,-1.00542 -0.10583,-0.87312 -0.39687,0.55563 -0.44979,-0.0794 0.18521,-1.16417 -0.0529,-0.84667 -0.71437,-1.13771 -0.0794,0.74083 -0.37042,0.79375 -0.42334,0.23812 -0.0529,-0.0529 -0.10583,-0.13229 -0.1852,-0.23812 0.42333,-0.37042 -0.92605,-1.19063 0,-1.32292 0.52916,-0.18521 -0.37042,-0.82021 -0.21167,-1.11125 0,-0.0794 -0.15875,-0.18521 -0.3175,-0.23812 l -0.0529,-0.0265 c -0.15875,-0.0529 -0.34396,-0.0794 -0.44979,-0.0529 0.10583,-0.3175 0.23813,-0.74083 0,-1.13771 -0.15875,-0.1852 0.50271,-0.37041 -0.42333,-1.11125 0.0794,0 0.55562,-0.34395 -0.15875,-0.42333 -0.0265,0 -0.0265,0 -0.0529,0 -0.15875,-0.44979 -0.10583,-0.76729 -0.0265,-0.9525 0.0265,-0.0529 0.0265,-0.0794 0.0529,-0.10583 0.0529,-0.10584 0.0529,-0.15875 -0.0529,-0.10584 0,0 -0.0265,0 -0.0265,0 0,0 0,0 0,0 -0.10583,-0.13229 -0.21166,-0.29104 -0.26458,-0.42333 0,-0.0265 -0.0265,-0.0529 -0.0265,-0.0794 0,0 0,0 0,0 0,-0.0265 0,-0.0794 0,-0.10584 0,-0.0265 0,-0.0265 0.0265,-0.0529 0.0265,-0.0265 0.0529,-0.0794 0.0794,-0.10584 0.0794,-0.0794 0.21166,-0.13229 0.42333,-0.15875 0.68792,-0.21166 0.13229,-0.44979 -0.52917,-0.44979 0.47625,-0.21167 0.68792,-0.52917 0.39688,-0.82021 0.44979,-0.21166 0.10583,-0.44979 -0.58209,-0.58208 -1.48166,-0.55563 0.89959,-0.37042 -0.10583,-0.71438 -0.26458,-0.0794 -0.44979,-0.15875 -0.55562,-0.21166 -0.15875,-0.0794 -0.15875,-0.18521 -0.0529,-0.26459 0,0 0.0265,-0.0264 0.0529,-0.0264 0.23812,-0.15875 0.42333,-0.37042 0.58208,-0.68792 0.26458,-0.15875 0.39687,-0.44979 0,-0.84667 0.3175,-0.3175 0.87312,-0.635 0.0529,-1.08479 -0.23813,-0.37042 0.0529,-0.635 0.0794,-0.97896 0.42333,-0.26458 0.58208,-0.58208 0.13229,-0.97896 1.85209,-0.26458 -0.47625,-0.3175 0.18521,-1.03187 -0.87312,-0.29104 0.9525,-0.87313 0.23813,-1.13771 -1.03188,-0.97896 0.34395,-0.26458 0.21166,-0.66146 -0.0265,-0.0794 0,-0.15875 0.0529,-0.23812 0.15875,-0.21167 0.52917,-0.3175 0.55562,-0.47625 1.00542,-0.0794 -0.29104,-0.44979 -0.23812,-0.71438 -0.74083,0 -0.29104,-0.0265 0.34396,-0.82021 -0.15875,-0.37041 0.26458,0.15875 0.42333,-1.16416 0.18521,-0.18521 0.42333,0.42333 0.37042,-0.50271 0,-0.18521 0.0265,-0.42333 -0.29104,-0.68792 -0.21167,-0.26458 0.15875,-0.44979 0.635,-0.55562 -0.50271,-0.42334 0.9525,-0.39688 0.21166,-0.15875 0.21167,0 0.52917,-0.13229 0.66146,-0.3175 0,0 0,0 0,-0.0265 0.0265,-0.0265 0.0265,-0.0529 0.0529,-0.0794 v 0 c 0,0 0,-0.0264 0,-0.0264 0,-1.05834 0.47625,-1.87855 1.16416,-2.619378 0.18521,-0.211667 0.39688,-0.396875 0.60855,-0.582084 0,0 0,0 0,0 0.8202,-0.714375 1.74625,-1.402291 2.38125,-2.169583 0.0265,-0.05292 0.0794,-0.105833 0.10583,-0.15875 0,0 0,0 0,0 0.26458,-0.423333 0.47625,-0.978958 0.66146,-1.508125 0.13229,0.02646 0.21166,0.291042 0.34396,0.291042 0.10583,0 0.34395,-0.15875 0.34395,-0.370417 0.0265,0.05292 0.0794,0.07937 0.0794,0.15875 0.55562,-0.185208 0.89958,-0.767292 1.42875,-1.058333 0.23812,-0.15875 0.44979,-0.291042 0.71437,-0.343959 0.26459,-0.05292 0.55563,-0.05292 0.89959,0.05292 0.18521,-1.243542 1.40229,-1.561042 2.27541,-2.2225 0.4498,-0.449792 1.24355,-0.47625 1.7198,-1.031875 0.0794,0.396875 0.37041,1.058333 0.8202,0.608542 0.0265,-0.132292 0.0529,-0.370417 0.23813,-0.635 0.13229,-0.291042 0.26458,-0.555625 0.58208,-0.529167 1.34938,0.185208 2.61938,0.767292 3.88938,0.978958 v 0 c 0.42333,0.07937 0.87312,0.105834 1.29646,0.07937 0.0265,0 0.0529,0 0.0794,0 0.18521,-0.02646 0.39688,-0.05292 0.58208,-0.105833 0.1323,0.02646 0.60855,0.3175 0.87313,0.238125 0.15875,-0.105833 0.18521,-0.343958 0.3175,-0.343958 0.26458,0.02646 0.21167,0.396875 0.3175,0.529166 0.23812,0.15875 0.15875,-0.105833 0.15875,-0.238125 0.10583,0.132292 0.10583,0.132292 0.21167,0.291042 0.3175,-0.343958 0.26458,-0.846667 0.55562,-1.190625 0.47625,-0.555625 1.29646,-0.07937 1.905,0.238125 0.13229,0.02646 0.29104,-0.211667 0.42333,-0.370417 0.26459,-0.05292 0.47625,0.185209 0.71438,0.370417 0.23812,0.15875 0.47625,0.264583 0.76729,-0.07937 0.29104,-0.291042 0.52917,-0.211667 0.76729,-0.05292 0.0794,0.343959 0.18521,0.370417 0.3175,0.343959 0.13229,-0.02646 0.26459,-0.132292 0.39688,0 0.26458,0.370416 0.50271,0.635 0.82021,0.687916 0.1852,0.02646 0.39687,-0.05292 0.60854,-0.291041 0.26458,-0.238125 0.44979,0.343958 0.74083,-0.07937 0.42333,-1.164167 0.42333,0.343958 0.635,0.529166 0.26458,-0.15875 0.58208,-0.608541 0.76729,-0.370416 0.26459,-0.132292 0.3175,0.978958 0.60854,0.714375 0.3175,1.137708 0.92605,0.05292 1.27,0.79375 0.37042,0.608541 0.71438,1.375833 1.27,0.687916 0.39688,0.3175 0.74084,1.058334 1.21709,0.740834 0.37041,-0.185209 0.58208,0.79375 0.97896,0.396875 0.3175,0.185208 0.47625,1.243541 0.87312,0.899583 0.18521,0.3175 0.44979,0.185208 0.66146,0.396875 0.0794,0.07937 0.13229,0.238125 0.18521,0.47625 0.39687,-0.502708 0.50271,0.926042 0.84666,0.582083 0.21167,0.47625 0.82021,-1.508125 0.79375,0.47625 0,0.105834 0,0.185209 0,0.3175 0.34396,-0.370416 0.37042,1.402292 0.74084,0.820209 0.0265,0.02646 0.0529,0.05292 0.0794,0.105833 0.0529,0.05292 0.0794,0.07937 0.0794,0.07937 0.26458,-0.07937 0.21166,-0.449792 0.42333,-0.555625 0,0 0.0265,0 0.0529,-0.02646 0,0.05292 0,0.105833 0,0.15875 0,0.105833 0,0.185208 0,0.291041 0,0.608542 0.10583,1.243542 0.18521,1.878539 0.0529,0.42334 0.10583,0.82021 0.13229,1.24355 0,0.0794 0,0.15875 0.0265,0.21166 0,-0.0529 0.0265,-0.0794 0.0529,-0.10583 0.13229,-0.18521 0.50271,0.0265 0.66146,-0.18521 0,0 0,0 0,0 0,0 0,0 0,0 0.0265,0.15875 0.0265,0.34396 0.0265,0.50271 0,0.15875 0,0.29104 0,0.44979 0,0.15875 0,0.34396 0.0265,0.50271 0.0265,0.37042 0.13229,0.74083 0.42333,1.05833 0,0 0,0.0265 0.0265,0.0265 0,0 0.0265,0.0265 0.0265,0.0265 0.0265,0 0.0529,0 0.0794,-0.0529 0.0529,-0.0794 0.0794,-0.21166 0.10584,-0.3175 0.0529,0.10584 0.10583,0.18521 0.15875,0.29104 0.39687,0.7673 0.55562,1.64042 1.27,2.27542 0.23812,0.15875 0.15875,-0.10583 0.15875,-0.23812 0.34395,0.29104 0.26458,0.79375 0.60854,1.08479 l 0.15875,-0.10584 c 0.34396,0.29105 0.13229,0.89959 0.50271,1.05834 0.0264,0 0.0264,0.0265 0.0529,0.0265 0.15875,0.0794 0.15875,0.0529 0.15875,-0.0265 -0.0265,-0.10584 -0.15875,-0.34396 -0.0265,-0.23813 0.10584,0.0529 0.15875,0.15875 0.21167,0.23813 0.18521,0.39687 0.0529,1.03187 0.13229,1.45521 0.0529,0 0.0529,0.26458 0.0529,0.52916 v 0 c 0,0.18521 0,0.37042 0.0529,0.39688 0,0.39687 0.13229,-0.0794 0.10583,0.42333 v 0 c 0,0.10583 0,0.26458 -0.0265,0.44979 v 0 c 0.0265,0.10584 0.10583,0.15875 0.21167,0.21167 0.13229,0.0529 0.29104,0.0529 0.44979,0 0.21167,-0.0265 0.39687,-0.10583 0.44979,-0.21167 0.0265,-0.13229 0.0529,-0.23812 0.15875,-0.23812 0.0265,0.84666 -0.10583,1.37583 -0.29104,1.905 z"
       id="path3752"
       style="stroke-width:0.264583;fill:#449200;fill-opacity:1" />
    <path
       fill-rule="evenodd"
       clip-rule="evenodd"
       fill="#62bc13"
       d="m 159.22282,101.86888 c 0.0529,-0.0265 0.0794,-0.0265 0.13229,-0.0265 0.0265,0.13229 0.0265,0.29104 0,0.39688 0.0265,-0.15875 -0.52916,-0.23813 -0.13229,-0.37042 z"
       id="path3786"
       style="stroke-width:0.264583" />
    <path
       fill-rule="evenodd"
       clip-rule="evenodd"
       fill="#62bc13"
       d="m 200.17283,113.2356 c 0,0 0,0 0,0 -0.11906,0.381 -0.26193,0.73818 -0.381,1.09537 0,0.0238 -0.0238,0.0476 -0.0238,0.0953 0.0238,0 0.0476,0 0.0714,0 0.0238,0 0.0238,0 0.0476,0 0.0238,0 0.0476,0 0.0714,0 0,0 0,0 0.0238,0 0.0238,0 0.0476,0 0.0476,-0.0238 0,0 0.0238,0 0.0238,-0.0238 0.0238,-0.0238 0.0476,-0.0476 0.0476,-0.0714 0,0 0,0 0,0 0,0 0,0.0238 0,0.0238 0,0.0238 0,0.0238 -0.0238,0.0476 -0.0238,0.0714 -0.0714,0.11906 -0.11906,0.14287 -0.0714,0.0476 -0.14287,0.0476 -0.21431,0.0714 -0.0476,0 -0.0953,0.0238 -0.14288,0.0476 l -0.23812,-0.0238 c 0.0952,0.14288 0.14287,0.26194 0.14287,0.381 v 0 c 0.0476,0.26194 -0.0476,0.50006 -0.16668,0.73819 -0.1905,0.381 -0.42863,0.762 -0.30957,1.16681 0.0476,0.0714 0.0476,0.14288 0,0.1905 0.0952,0.33338 0,0.64294 -0.0476,0.9525 0,0.0238 0,0.0476 0,0.0714 -0.0238,0.1905 -0.0238,0.35719 0.0476,0.52387 0.0238,0.0476 0.0476,0.0714 0.0714,0.11907 -0.0476,0 -0.0952,0 -0.11906,0 -0.35719,0.0238 -0.47625,0.30956 -0.47625,0.59531 0,0.0714 0,0.11906 0,0.1905 0,0.0238 0,0.0476 0,0.0476 0.0953,0.11907 0.16669,0.47625 0.45244,0.16669 0,0.0714 -0.0238,0.11906 -0.0714,0.1905 -0.0476,0.0714 -0.0952,0.14288 -0.14288,0.21431 -0.11906,0.1905 -0.21431,0.35719 -0.0476,0.5715 0.0952,0.11907 0.23812,-0.0714 0.47625,-0.0476 -0.14288,0.0952 -0.1905,0.42862 -0.1905,0.54769 0.33337,0.16668 0.61912,0.52387 0.45244,0.85725 -0.14288,0.1905 -0.40482,0.50006 -0.69057,0.21431 0.35719,0.40481 0.47625,0.59531 0.33338,0.66675 0.381,0.14287 0.16669,0.11906 -0.80963,0 0.50007,0.16669 0.21432,0.1905 -0.0476,0.23812 -0.21431,0.0238 -0.40481,0.0714 -0.1905,0.1905 0.21431,0.14288 0.1905,0.26194 -0.47625,0.381 0.40481,0.26194 -0.0476,0.45244 0.0714,0.83344 0.1905,0.40481 -0.23813,0.40481 -0.45244,0.61913 -0.16669,-0.11907 -0.33338,-0.21432 -0.50006,-0.26194 -0.1905,-0.0476 -0.35719,0.0238 -0.381,0.23812 v 0 c -0.14288,0.54769 0.0238,1.00013 0.0476,1.42875 v 0 c 0,0.26194 -0.0476,0.52388 -0.26194,0.80963 0.0952,0.11906 0.0714,0.23812 0.30957,0.26194 -0.26194,0.23812 -0.47625,0.1905 -0.64294,0.0714 0.0714,0.26194 0.0476,0.52388 -0.16669,0.73819 -0.69056,0.80963 -0.30956,2.0955 -1.64306,2.38125 -0.0953,0.0238 -0.21431,0.0238 -0.28575,0 -0.0952,-0.0476 -0.14288,-0.11906 -0.14288,-0.23812 -0.0714,1.09537 -1.16681,1.50018 -2.0955,1.50018 -0.59531,0.0476 -1.11918,-0.26193 -1.524,0.23813 -0.30956,0.40481 -0.40481,0.97631 -0.762,1.143 -0.26193,0.1905 -0.88106,-0.33338 -1.28587,-0.0476 -0.28575,0.16669 -0.52387,0.35719 -0.73819,0.5715 -0.21431,0.21432 -0.42862,0.45244 -0.64293,0.64294 0,0 -0.0238,0.0238 -0.0238,0.0238 -0.1905,0.16669 -0.40481,0.30957 -0.64293,0.381 -0.26194,0.0952 -0.59532,0.0952 -0.97632,-0.0238 -0.21431,0.11906 -0.40481,0.26194 -0.54768,0.45244 -0.40482,0.47625 -0.66675,1.11919 -1.16682,1.50019 -0.0714,0.0476 -0.14287,0.0952 -0.23812,0.14287 -0.1905,0.0714 -0.35719,-0.0238 -0.47625,-0.16669 -0.1905,-0.1905 -0.33338,-0.47625 -0.47625,-0.42862 -1.19063,0.1905 -2.38125,0.35719 -3.54806,0.33337 -0.33338,-0.0476 -0.64294,0.42863 -0.78582,0.61913 -0.0476,0.0476 -0.0952,0.0952 -0.11906,0.0476 0,0 -0.0238,-0.0238 -0.0238,-0.0238 -0.5715,-0.40481 -1.19063,-0.5715 -1.80975,-0.66675 -1.80975,-0.14287 -3.6195,-0.33337 -5.02444,-1.143 -0.16669,-0.0953 -0.33337,-0.21431 -0.50006,-0.30956 -0.21431,-0.11906 -0.42863,-0.23813 -0.64294,-0.35719 0,0 0,0 0,0 -0.16669,-0.0714 -0.30956,-0.16669 -0.47625,-0.23812 -0.0238,0 -0.0238,-0.0238 -0.0476,-0.0238 v 0 c -0.64294,-0.33337 -1.28588,-0.64293 -1.905,-0.9525 -1.7145,-0.80962 -3.35757,-1.50018 -5.02444,-2.33362 -1.73831,-0.97631 -3.09563,-2.50031 -3.81,-4.50056 -0.0238,-0.0714 -0.0476,-0.16669 -0.0714,-0.23813 0,-0.40481 -0.0476,-0.61912 -0.11906,-0.64294 -0.0714,0 -0.16669,0.1905 -0.30956,0.61913 0,0.0238 0,0.0238 -0.0238,0.0476 0,-0.0238 0,-0.0476 0,-0.0476 -0.0476,-0.66675 -0.21431,-0.381 -0.28575,-0.90488 -0.0952,-0.78581 -0.35718,0.50007 -0.40481,-0.0714 0.16669,-1.04775 -0.0476,-0.762 -0.64294,-1.02394 -0.0714,0.66675 -0.33337,0.71437 -0.381,0.21431 -0.0476,-0.0476 -0.0953,-0.11906 -0.16668,-0.21431 0.381,-0.33338 -0.83344,-1.07156 0,-1.19063 0.47625,-0.16668 -0.33338,-0.73818 -0.1905,-1.00012 0,-0.0714 -0.14288,-0.16669 -0.28575,-0.21431 l -0.0476,-0.0238 c -0.14287,-0.0476 -0.30956,-0.0714 -0.40481,-0.0476 0.0952,-0.28575 0.21431,-0.66675 0,-1.02394 -0.14288,-0.16669 0.45244,-0.33337 -0.381,-1.00012 0.0714,0 0.50006,-0.30957 -0.14288,-0.381 -0.0238,0 -0.0238,0 -0.0476,0 -0.14288,-0.40482 -0.0952,-0.69057 -0.0238,-0.85725 0.0238,-0.0476 0.0238,-0.0714 0.0476,-0.0953 0.0476,-0.0952 0.0476,-0.14288 -0.0476,-0.0952 0,0 -0.0238,0 -0.0238,0 0,0 0,0 0,0 -0.0952,-0.11907 -0.1905,-0.26194 -0.23812,-0.381 0,-0.0238 -0.0238,-0.0476 -0.0238,-0.0714 0,0 0,0 0,0 0,-0.0238 0,-0.0714 0,-0.0953 0,-0.0238 0,-0.0238 0.0238,-0.0476 0.0238,-0.0238 0.0476,-0.0714 0.0714,-0.0953 0.0714,-0.0714 0.1905,-0.11906 0.381,-0.14287 0.61912,-0.1905 0.11906,-0.40481 -0.47625,-0.40481 0.42862,-0.1905 0.61912,-0.47625 0.35718,-0.73819 0.40482,-0.1905 0.0953,-0.40481 -0.52387,-0.52388 -1.3335,-0.50006 0.80962,-0.33337 -0.0952,-0.64293 -0.23813,-0.0714 -0.40481,-0.14288 -0.50006,-0.1905 -0.14288,-0.0714 -0.14288,-0.16669 -0.0476,-0.23813 0,0 0.0238,-0.0238 0.0476,-0.0238 0.21431,-0.14288 0.381,-0.33338 0.52387,-0.61913 0.23813,-0.14287 0.35719,-0.40481 0,-0.762 0.28575,-0.28575 0.78581,-0.5715 0.0476,-0.97631 -0.21432,-0.33337 0.0476,-0.5715 0.0714,-0.88106 0.381,-0.23813 0.52388,-0.52388 0.11907,-0.88106 1.66687,-0.23813 -0.42863,-0.28575 0.16668,-0.92869 -0.78581,-0.26194 0.85725,-0.78581 0.21432,-1.02394 -0.92869,-0.88106 0.30956,-0.23812 0.1905,-0.59531 -0.0238,-0.0714 0,-0.14288 0.0476,-0.21431 0.14288,-0.1905 0.47625,-0.28575 0.50006,-0.42863 0.90488,-0.0714 -0.26193,-0.40481 -0.21431,-0.64294 -0.66675,0 -0.26194,-0.0238 0.30956,-0.73818 -0.14287,-0.33338 0.23813,0.14287 0.381,-1.04775 0.16669,-0.16669 0.381,0.381 0.33338,-0.45244 0,-0.16669 0.0238,-0.381 -0.26194,-0.61913 -0.1905,-0.23812 0.14288,-0.40481 0.5715,-0.50006 -0.45244,-0.381 0.85725,-0.35719 0.1905,-0.14287 0.1905,0 0.47625,-0.11907 0.59531,-0.28575 0,0 0,0 0,-0.0238 0.0238,-0.0238 0.0238,-0.0476 0.0476,-0.0714 v 0 c 0,0 0,-0.0238 0,-0.0238 0,-0.9525 0.42862,-1.69068 1.04775,-2.35743 0.16669,-0.1905 0.35719,-0.35719 0.54769,-0.52388 0,0 0,0 0,0 0.73818,-0.642937 1.57162,-1.262062 2.14312,-1.952624 0.0238,-0.04763 0.0714,-0.09525 0.0952,-0.142875 0,0 0,0 0,0 0.23813,-0.381 0.42863,-0.881063 0.59531,-1.357313 0.11907,0.02381 0.1905,0.261938 0.30957,0.261938 0.0952,0 0.30956,-0.142875 0.30956,-0.333375 0.0238,0.04763 0.0714,0.07144 0.0714,0.142875 0.50006,-0.166688 0.80962,-0.690563 1.28587,-0.9525 0.21431,-0.142875 0.40481,-0.261938 0.64294,-0.309563 0.23812,-0.04762 0.50006,-0.04762 0.80962,0.04762 0.16669,-1.119187 1.26207,-1.404937 2.04788,-2.000249 0.40481,-0.404813 1.11919,-0.428625 1.54781,-0.928688 0.0714,0.357188 0.33338,0.9525 0.73819,0.547688 0.0238,-0.119063 0.0476,-0.333375 0.21431,-0.5715 0.11906,-0.261938 0.23813,-0.500063 0.52388,-0.47625 1.21443,0.166687 2.35743,0.690562 3.50043,0.881062 v 0 c 0.381,0.07144 0.78582,0.09525 1.16682,0.07144 0.0238,0 0.0476,0 0.0714,0 0.16669,-0.02381 0.35719,-0.04762 0.52388,-0.09525 0.11906,0.02381 0.54769,0.28575 0.78581,0.214312 0.14288,-0.09525 0.16669,-0.309562 0.28575,-0.309562 0.23813,0.02381 0.1905,0.357187 0.28575,0.47625 0.21431,0.142875 0.14288,-0.09525 0.14288,-0.214313 0.0952,0.119063 0.0952,0.119063 0.1905,0.261938 0.28575,-0.309563 0.23812,-0.762 0.50006,-1.071563 0.42862,-0.500062 1.16681,-0.07144 1.7145,0.214313 0.11906,0.02381 0.26194,-0.1905 0.381,-0.333375 0.23812,-0.04762 0.42862,0.166687 0.64294,0.333375 0.21431,0.142875 0.42862,0.238125 0.69056,-0.07144 0.26194,-0.261937 0.47625,-0.1905 0.69056,-0.04762 0.0714,0.309563 0.16669,0.333375 0.28575,0.309563 0.11906,-0.02381 0.23813,-0.119063 0.35719,0 0.23812,0.333375 0.45244,0.5715 0.73819,0.619125 0.16668,0.02381 0.35718,-0.04762 0.54768,-0.261938 0.23813,-0.214312 0.40482,0.309563 0.66675,-0.07144 0.381,-1.04775 0.381,0.309562 0.5715,0.47625 0.23813,-0.142875 0.52388,-0.547688 0.69057,-0.333375 0.23812,-0.119063 0.28575,0.881062 0.54768,0.642937 0.28575,1.023937 0.83344,0.04762 1.143,0.714375 0.33338,0.547687 0.64294,1.23825 1.143,0.619125 0.35719,0.28575 0.66675,0.9525 1.09538,0.66675 0.33337,-0.166688 0.52387,0.714375 0.88106,0.357187 0.28575,0.166688 0.42862,1.119188 0.78581,0.809625 0.16669,0.28575 0.40481,0.166688 0.59531,0.357188 0.0714,0.07144 0.11907,0.214312 0.16669,0.428625 0.35719,-0.452438 0.45244,0.833437 0.762,0.523875 0.1905,0.428625 0.73819,-1.357313 0.71438,0.428625 0,0.09525 0,0.166687 0,0.28575 0.30956,-0.333375 0.33337,1.262062 0.66675,0.738192 0.0238,0.0238 0.0476,0.0476 0.0714,0.0953 0.0476,0.0476 0.0714,0.0714 0.0714,0.0714 0.23813,-0.0714 0.1905,-0.40482 0.381,-0.50007 0,0 0.0238,0 0.0476,-0.02381 0,0.04762 0,0.09525 0,0.142875 0,0.09525 0,0.166685 0,0.261935 0,0.54769 0.0952,1.11919 0.16668,1.69069 0.0476,0.381 0.0953,0.73819 0.11907,1.11919 0,0.0714 0,0.14287 0.0238,0.1905 0,-0.0476 0.0238,-0.0714 0.0476,-0.0952 0.11907,-0.16669 0.45244,0.0238 0.59532,-0.16669 0,0 0,0 0,0 0,0 0,0 0,0 0.0238,0.14288 0.0238,0.30956 0.0238,0.45244 0,0.14287 0,0.26194 0,0.40481 0,0.14288 0,0.30956 0.0238,0.45244 0.0238,0.33337 0.11906,0.66675 0.381,0.9525 0,0 0,0.0238 0.0238,0.0238 0,0 0.0238,0.0238 0.0238,0.0238 0.0238,0 0.0476,0 0.0714,-0.0476 0.0476,-0.0714 0.0714,-0.1905 0.0952,-0.28575 0.0476,0.0953 0.0952,0.16669 0.14288,0.26194 0.35719,0.69056 0.50006,1.47637 1.143,2.04787 0.21431,0.14288 0.14287,-0.0952 0.14287,-0.21431 0.30957,0.26194 0.23813,0.71437 0.54769,0.97631 l 0.14288,-0.0952 c 0.30956,0.26194 0.11906,0.80963 0.45243,0.9525 0.0238,0 0.0238,0.0238 0.0476,0.0238 0.14287,0.0714 0.14287,0.0476 0.14287,-0.0238 -0.0238,-0.0953 -0.14287,-0.30956 -0.0238,-0.21431 0.0953,0.0476 0.14288,0.14287 0.1905,0.21431 0.16669,0.35719 0.0476,0.92869 0.11906,1.30969 0.0476,0 0.0476,0.23812 0.0476,0.47625 v 0 c 0,0.16669 0,0.33337 0.0476,0.35719 0,0.35718 0.11907,-0.0714 0.0953,0.381 v 0 c 0,0.0952 0,0.23812 -0.0238,0.40481 v 0 c 0.0238,0.0952 0.0952,0.14287 0.1905,0.1905 0.11906,0.0476 0.26194,0.0476 0.40481,0 0.1905,-0.0238 0.35719,-0.0953 0.40482,-0.1905 0.0238,-0.11906 0.0476,-0.21431 0.14287,-0.21431 0.0238,0.762 -0.0952,1.23825 -0.26194,1.7145 z"
       id="path10181"
       style="fill:#59bc01;fill-opacity:1;stroke-width:0.238125" />
    <g
       id="g3998"
       transform="matrix(0.26458333,0,0,0.26458333,-125.94509,-89.186741)">
      <path
         fill="#43440d"
         d="m 1140.1,774.8 c -1.8,-1.2 -3.8,-0.3 -5,1.3 -1.4,1.8 -0.1,4.4 1.4,5.6 3.9,2.9 10.3,0 8.9,-5.2 -0.5,-1.9 -3.4,-1.1 -2.9,0.8 0.6,2.1 -1.7,2.9 -3.3,2.5 -0.7,-0.2 -1.4,-0.8 -1.6,-1.5 -0.2,-0.6 0.5,-1.2 1.1,-0.9 1.4,1.1 2.9,-1.5 1.4,-2.6 z"
         id="path3996" />
    </g>
    <g
       id="g4046"
       transform="matrix(0.26458333,0,0,0.26458333,-125.94509,-89.186741)">
      <path
         fill="#43440d"
         d="m 1128,679 c -2.1,2 -5.6,-1.8 -7.4,-2.4 -1.8,-0.6 -2.9,-0.8 -4.7,-0.1 -1,0.4 -1.7,1.5 -2.3,2.3 -1.2,1.7 -3,-0.2 -4.6,-0.4 -0.7,-0.1 -1.7,0.2 -1.8,1 -0.6,3.5 -5.5,4.3 -8.2,5.6 -4,1.8 -4.9,5.8 -9.7,6.5 -3.2,0.5 -4.7,2.2 -5.7,5.2 -1.1,3.2 -2.6,4.8 -5.6,6.3 -1.2,0.6 -2.3,1.8 -3,2.8 -1.1,1.6 -2.1,3.3 -3.1,5 -1.9,3.1 -3.8,2.3 -6.8,3.4 -2.9,1 -3.7,2.7 -3.8,5.7 -0.1,2.9 -1.2,4.7 -4,5.9 -0.9,0.4 -1.8,1.6 -2.1,2.4 -1.1,2.7 -0.6,5.3 1.5,7.3 0.1,-0.8 0.2,-1.6 0.3,-2.4 -3.4,2 -6.9,5.3 -4.6,9.3 1,1.7 3.5,0.2 2.6,-1.5 -1.3,-2.4 2.1,-4.4 3.6,-5.2 0.8,-0.5 1,-1.7 0.3,-2.4 -3.8,-3.7 1.2,-5.3 3.6,-6.8 0.9,-0.6 1.3,-1.8 1.6,-2.8 0.4,-1.2 0.2,-2.7 0.2,-3.9 0,-3.6 4,-2.5 5.8,-3.4 2.7,-1.3 4.1,-3.7 5.6,-6.1 1.1,-1.8 2.1,-3.5 3.8,-4.7 1.7,-1.2 3.6,-1.5 5,-3.2 2.7,-3.2 1.1,-7.7 6.6,-8 3,-0.2 4.8,-1.1 6.3,-3.8 2.9,-5.1 11.8,-3.8 12.9,-10.4 -0.6,0.3 -1.2,0.7 -1.8,1 2.3,0.4 2.7,2.6 5,1.9 1.4,-0.4 2.2,-1.8 2.9,-2.9 1.8,-2.7 7.3,1.6 9.5,2.2 1.8,0.5 3.2,-0.3 4.4,-1.4 1.3,-1.2 -0.9,-3.3 -2.3,-2 z"
         id="path4044" />
    </g>
    <g
       id="g4052"
       transform="matrix(0.26458333,0,0,0.26458333,-125.94509,-89.186741)">
      <path
         fill="#43440d"
         d="m 1047,749.9 c -0.8,3 -3.4,5.1 -3.3,8.3 0,0.6 0.4,1.5 0.8,2 2.5,2.5 0.9,4.4 -0.1,7 -1.1,2.9 -0.4,5.3 0.9,8 1.3,2.7 2.9,5 1.7,8.1 -0.6,1.7 -0.9,2.6 -0.5,4.4 0.1,0.6 0.8,1.3 1.3,1.7 2.5,1.8 2.5,4.1 2.3,6.8 -0.2,2.7 -0.4,5.3 1.6,7.4 0.7,0.7 1.7,0.9 2.6,1.1 3.5,0.9 0.8,6.1 0.3,8 -0.7,2.7 0,5 2.2,6.6 1.4,1.1 4.8,-0.3 5.2,2.7 0.2,1.6 -0.1,3.3 0,4.9 0.1,1.7 1.1,3.3 2.9,3.8 1.9,0.5 3.5,0 4.7,2 0.9,1.4 1.5,3 2.4,4.4 2.5,3.7 5.8,1.7 9.3,3.2 3,1.3 4.2,5.7 7.4,7.3 4.5,2.2 9.2,0.9 10.7,6.9 0.6,2.2 1.4,4.6 3.8,5.2 3.4,0.9 5.5,-3.1 8.6,-3.5 -0.6,-0.2 -1.1,-0.5 -1.7,-0.7 0.7,1.2 1.3,2.4 2,3.5 1,1.7 3.5,0.2 2.6,-1.5 -0.7,-1.2 -1.3,-2.4 -2,-3.5 -0.4,-0.6 -1,-0.8 -1.7,-0.7 -2.9,0.4 -7.4,5.6 -8.8,0.3 -0.7,-2.8 -1.7,-4.8 -4.2,-6.4 -2.7,-1.6 -6.1,-1.5 -8.9,-2.9 -3.2,-1.6 -3.9,-5.8 -7.4,-7.2 -1.1,-0.5 -2.4,-0.4 -3.5,-0.4 -3.2,0.1 -3.9,-1.6 -5.1,-3.9 -0.9,-1.8 -2.1,-4.5 -4.3,-5 -1.4,-0.3 -3.7,0.3 -3.9,-2 -0.1,-1.3 0.1,-2.7 0,-4 0,-1.6 -0.8,-3.9 -2.6,-4.5 -2.7,-0.9 -5.5,-1.8 -4.7,-5.2 0.3,-1.3 0.9,-2.5 1.1,-3.9 0.3,-2.7 -0.1,-4.6 -2.4,-6.2 -1.6,-1.1 -3.6,-1.4 -3.6,-3.9 0,-1.5 0.2,-2.9 0.3,-4.4 0.1,-2.1 -0.4,-4.6 -2.2,-5.9 -3.1,-2.3 0.2,-5.1 -0.6,-8.2 -1.1,-4.3 -5.1,-8 -2.7,-12.6 1.1,-2.2 2.6,-4.4 1.2,-6.8 -1,-1.8 -2.5,-2.9 -1.2,-5.2 0.9,-1.5 1.7,-2.8 2.1,-4.5 0.8,-1.6 -2.1,-2.4 -2.6,-0.6 z"
         id="path4050" />
    </g>
    <g
       id="g4058"
       transform="matrix(0.26458333,0,0,0.26458333,-125.94509,-89.186741)">
      <path
         fill="#43440d"
         d="m 1133,865.2 c 7.6,0 15.2,-0.1 22.8,-0.1 3.5,0 7,-0.3 10.3,0.8 1.4,0.5 3,1.2 4.4,0.3 1.4,-0.9 2.3,-2 3.3,-3.3 2.4,-3.2 4.9,-1.8 8.1,-2.7 4,-1.2 4.1,-6.8 7,-9.1 1.5,-1.2 4.7,1.2 6.6,0.7 1.8,-0.4 3.1,-1.3 4.5,-2.4 3.1,-2.4 4.8,-4.4 9.1,-4.7 2.2,-0.2 4.7,-0.5 6.3,-2.1 3.5,-3.5 3.4,-8.9 6.8,-12.5 1.2,-1.3 3.3,-2.6 3.6,-4.6 0.5,-2.8 -1.3,-6.8 0.4,-9.1 1.1,-1.6 -1.5,-3.1 -2.6,-1.5 -0.9,1.3 -1.2,2.3 -1.2,3.9 0,3.6 0.6,6.4 -2.4,9.2 -3.2,3 -3.6,7.4 -5.6,11.1 -1.7,3.1 -5.9,2.6 -8.8,3 -2,0.3 -3.6,1.5 -5.1,2.7 -3,2.4 -4.6,4.7 -9.1,3.2 -1.5,-0.5 -2.9,-0.2 -4.2,0.4 -2.9,1.3 -3.7,5.9 -5.6,8.2 -1.3,1.6 -4.9,0.4 -6.8,1.1 -1.3,0.5 -2.3,1.7 -3.1,2.8 -2.5,3.2 -4.5,2.4 -8.1,1.8 -2.6,-0.4 -5.4,-0.1 -8,-0.1 -7.6,0 -15.2,0.1 -22.8,0.1 -1.7,0 -1.7,3 0.2,2.9 z"
         id="path4056" />
    </g>
    <g
       id="g4064"
       transform="matrix(0.26458333,0,0,0.26458333,-125.94509,-89.186741)">
      <path
         fill="#43440d"
         d="m 1230.2,810.4 c 3.8,-1.9 5.3,-5.9 3.9,-9.9 -0.2,0.6 -0.5,1.1 -0.7,1.7 2.7,-1.2 3.4,-3.5 3.3,-6.2 -0.1,-3.5 -2.1,-5.2 -1.4,-9 0.6,-3.1 2.9,-6.3 4.3,-9.1 2.1,-4 10,-16.2 3.1,-19.3 -4.9,-2.2 -4.2,-8.7 -5.5,-13.2 -1,-3.8 -2.6,-7.3 -6,-9.3 -1.6,-0.9 -4.1,-0.9 -5.8,-1.2 -4.7,-0.8 -0.7,-5.2 -0.1,-6.8 0.8,-2.1 -0.6,-4.1 -2.5,-4.7 -1.8,-0.6 -2.6,2.3 -0.8,2.9 0.6,0.2 -2.5,5.7 -2.2,6.9 0.7,2.6 2.2,3.7 4.7,4.6 0.9,0.3 3.5,0.5 4.1,0.6 3.6,0.6 4.7,5 5.6,7.8 1.2,3.9 1.1,8.1 2.7,11.9 0.6,1.3 1.8,2.8 3.3,3.1 5.3,1 -2.2,12.9 -3.4,15.2 -1.7,3.2 -3.4,6.4 -4.6,9.8 -1,3.1 2.8,12 -0.6,13.5 -0.6,0.2 -0.9,1.1 -0.7,1.7 1,2.8 0.2,5.1 -2.5,6.5 -1.5,0.8 0,3.4 1.8,2.5 z"
         id="path4062" />
    </g>
    <g
       id="g4070"
       transform="matrix(0.26458333,0,0,0.26458333,-125.94509,-89.186741)">
      <path
         fill="#43440d"
         d="m 1219.7,722.1 c 1.4,-1 2.7,-2.7 2.2,-4.6 -1,-3.7 -6.7,-4.5 -4,-9.1 0.3,-0.4 0.3,-1.1 0,-1.5 -0.7,-1 -1.4,-1.6 -2.6,-2.2 -1.1,-0.6 -5.3,-1 -5,-3 0.3,-1.9 -2.6,-2.7 -2.9,-0.8 -0.3,1.8 0.1,2.8 1.3,4.2 0.9,1 6.1,2.3 5.9,2.9 -0.7,1.9 -0.6,3.5 0,5.4 0.4,1.3 5.1,4.9 3.5,6.1 -1.4,1.1 0,3.7 1.6,2.6 z"
         id="path4068" />
    </g>
    <g
       id="g4076"
       transform="matrix(0.26458333,0,0,0.26458333,-125.94509,-89.186741)">
      <path
         fill="#43440d"
         d="m 1204.4,703.2 c 0.9,-1.3 0.8,-3.5 -0.9,-4.2 -1.6,-0.7 -4.7,-0.4 -5.3,-2.4 -0.4,-1.3 -0.8,-2.2 -1.9,-3.2 -0.7,-0.6 -1.8,-0.8 -2.6,-0.7 -3.3,0.2 -4.5,-1.5 -6.4,-3.9 -2.3,-2.9 -4.4,-4.5 -8.2,-4.8 -2.1,-0.1 -4.5,0.6 -6.4,0.9 -2.7,0.3 -5,-1.4 -7.5,-1.7 -1.8,-0.2 -3.2,-0.1 -4.9,0.7 -2.8,1.3 -4.5,-1.8 -6.2,-3.1 -2.7,-2 -7,-0.9 -9.9,-0.1 -1.3,0.4 -4.5,-1.3 -5.9,-1.6 -1.8,-0.3 -3.5,0 -5.2,0.3 -1.9,0.4 -1.1,3.2 0.8,2.9 2.7,-0.5 4.9,-0.3 7.4,0.8 0.7,0.3 1.5,1.2 2.4,0.9 2,-0.6 4,-1.1 6.1,-1.2 3.1,-0.1 4,2.2 5.6,4.2 1.2,1.4 3.4,0.7 4.8,0.2 4.5,-1.7 7.9,0.6 12.4,0.7 4.5,0.1 8.2,-2 11.8,2.1 1.5,1.8 2.8,4.2 5.2,5.1 0.7,0.3 1.5,0.6 2.4,0.6 3.3,-0.2 3.3,2 4.2,3.8 0.5,1.1 5,3 5.6,2 -1.1,1.8 1.5,3.3 2.6,1.7 z"
         id="path4074" />
    </g>
    <g
       id="g4334"
       transform="matrix(0.26458333,0,0,0.26458333,-125.94509,-89.186741)">
      <path
         fill="#43440d"
         d="m 1207.7,755.8 c 1.5,1.1 0.1,2.9 -0.4,4.1 -0.3,0.9 0,2 0.5,2.8 0.9,1.4 3.8,1.9 4.1,3.5 0.3,1.9 3.2,1.1 2.9,-0.8 -0.2,-1.1 -0.8,-1.9 -1.7,-2.5 -0.8,-0.5 -2.5,-1.1 -2.9,-2 -0.2,-0.5 0.9,-1.9 1,-2.4 0.2,-0.7 0.3,-1.3 0.1,-2 -0.3,-1.5 -1,-2.5 -2.2,-3.3 -1.5,-1.2 -3,1.4 -1.4,2.6 z"
         id="path4332" />
    </g>
    <g
       id="g4340"
       transform="matrix(0.26458333,0,0,0.26458333,-125.94509,-89.186741)">
      <path
         fill="#43440d"
         d="m 1206.2,812.6 c -2.2,1.3 -3.1,3.2 -3.4,5.7 -0.2,1.2 -0.2,2.4 -0.2,3.5 0,2.7 -4.1,2.2 -5.8,2.8 -1,0.4 -1.8,1.1 -2.6,1.8 -1.4,1.3 -1.5,4 -3.1,5 -2.4,1.6 -5.2,0.8 -6.7,3.7 -0.9,1.7 1.7,3.2 2.6,1.5 1,-1.9 4.7,-2 6.4,-3.1 3.3,-2.1 1.7,-6.7 7.4,-6.5 7.8,0.2 2.3,-9.2 7,-11.9 1.6,-0.9 0.1,-3.5 -1.6,-2.5 z"
         id="path4338" />
    </g>
    <g
       id="g4346"
       transform="matrix(0.26458333,0,0,0.26458333,-125.94509,-89.186741)">
      <path
         fill="#43440d"
         d="m 1078.7,748.7 c -2.5,1 -4.8,2.5 -5.9,5.1 -1.7,4.2 -0.6,9.4 -3.5,13.1 -0.5,0.6 -0.1,1.7 0.5,2.1 1.4,0.7 4.8,1.6 4.3,3.7 -0.3,1.4 -1.1,2.7 -1.2,4.2 0,2.3 0.7,3.8 2.6,5.1 0.9,0.7 2.5,0.9 3.6,1.2 3.8,1 3.7,3.8 3,6.8 -0.6,2.5 -0.7,4.5 0.3,6.8 0.9,1.9 1.8,3.6 1.8,5.9 0,1.5 0.1,2.7 0.6,4.1 0.8,2.4 3.5,3.1 5.6,3.4 3.9,0.6 2.5,5.1 3.7,7.9 1.3,2.9 5.7,2.8 8.2,2.5 1.9,-0.2 1.9,-3.2 0,-3 -1.9,0.2 -6.6,-0.3 -5.4,-3.5 0.5,-1.4 0.6,-1.4 0.4,-2.7 -0.2,-1.7 -1.8,-2.7 -3.2,-3.4 -3,-1.5 -6.8,-0.2 -6.9,-5.4 0,-2.1 0.1,-4.4 -1.3,-6.2 -3.1,-4 2.3,-10.2 -1.5,-13.9 -1.7,-1.6 -3.5,-2.1 -5.7,-2.7 -4.5,-1.2 -1.5,-6.3 -1.3,-9.5 0,-0.5 -0.3,-1.1 -0.7,-1.3 -1.8,-0.9 -3.5,-1.9 -5.3,-2.8 0.2,0.7 0.4,1.4 0.5,2.1 3.9,-5.1 0.5,-14.1 7.5,-16.8 1.9,-0.6 1.1,-3.5 -0.7,-2.8 z"
         id="path4344" />
    </g>
    <g
       id="g4352"
       transform="matrix(0.26458333,0,0,0.26458333,-125.94509,-89.186741)">
      <path
         fill="#43440d"
         d="m 1131.2,759.3 c -0.8,-0.6 4.1,-1.9 4.2,-2 1,-0.5 5.4,-4.4 5.4,-1.1 0,1.8 2.5,2.7 3.9,2.9 1.5,0.1 2.9,0.1 4.3,0.2 2.9,0.1 1.2,4.3 2,5.6 0.6,1 1.2,1.8 2.5,2.1 3.9,0.9 5.8,4.6 3.6,8.1 0.9,0.3 1.9,0.5 2.8,0.8 0.1,-0.4 0.2,-0.8 0.3,-1.3 1.1,-1.6 -1.5,-3.1 -2.6,-1.5 -0.8,1.2 -0.9,1.3 -0.7,2.8 0.1,1.5 2,2.1 2.8,0.8 2.4,-3.8 1.5,-10.1 -3.2,-11.8 -2.6,-0.9 -2.7,-1.7 -2.6,-4.1 0,-1 -0.4,-1.9 -0.9,-2.7 -1.2,-1.9 -4.2,-1.7 -6.1,-1.7 -3.5,0 -2.6,-2.5 -4.7,-4.4 -1.4,-1.3 -4.6,-0.8 -5.8,0.6 -1.6,1.9 -12.8,5.2 -6.7,9.6 1.5,0.8 3,-1.8 1.5,-2.9 z"
         id="path4350" />
    </g>
    <g
       id="g4358"
       transform="matrix(0.26458333,0,0,0.26458333,-125.94509,-89.186741)">
      <path
         fill="#43440d"
         d="m 1140.1,698.8 c 3.5,-3.5 7.6,0 11.6,0.9 4.1,0.9 8.4,0.3 12.5,-0.2 1.9,-0.2 1.9,-3.2 0,-3 -6.9,0.8 -12.2,0.5 -18.6,-2.4 -2.9,-1.4 -5.6,0.5 -7.7,2.5 -1.3,1.5 0.8,3.6 2.2,2.2 z"
         id="path4356" />
    </g>
  </g>
</svg>
