<?xml version="1.0" encoding="UTF-8" standalone="no"?>
<svg
   xmlns:dc="http://purl.org/dc/elements/1.1/"
   xmlns:cc="http://creativecommons.org/ns#"
   xmlns:rdf="http://www.w3.org/1999/02/22-rdf-syntax-ns#"
   xmlns:svg="http://www.w3.org/2000/svg"
   xmlns="http://www.w3.org/2000/svg"
   xmlns:sodipodi="http://sodipodi.sourceforge.net/DTD/sodipodi-0.dtd"
   xmlns:inkscape="http://www.inkscape.org/namespaces/inkscape"
   width="18.520681mm"
   height="18.52103mm"
   viewBox="0 0 18.520681 18.52103"
   version="1.1"
   id="svg1292"
   inkscape:version="1.0.2-2 (e86c870879, 2021-01-15)"
   sodipodi:docname="understory_wireframe.svg">
  <defs
     id="defs1286" />
  <sodipodi:namedview
     id="base"
     pagecolor="#ffffff"
     bordercolor="#666666"
     borderopacity="1.0"
     inkscape:pageopacity="0.0"
     inkscape:pageshadow="2"
     inkscape:zoom="7.9195959"
     inkscape:cx="32.795832"
     inkscape:cy="23.169043"
     inkscape:document-units="mm"
     inkscape:current-layer="layer1"
     inkscape:document-rotation="0"
     showgrid="false"
     fit-margin-top="0"
     fit-margin-left="0"
     fit-margin-right="0"
     fit-margin-bottom="0"
     inkscape:window-width="1920"
     inkscape:window-height="1009"
     inkscape:window-x="341"
     inkscape:window-y="1432"
     inkscape:window-maximized="1" />
  <metadata
     id="metadata1289">
    <rdf:RDF>
      <cc:Work
         rdf:about="">
        <dc:format>image/svg+xml</dc:format>
        <dc:type
           rdf:resource="http://purl.org/dc/dcmitype/StillImage" />
        <dc:title />
      </cc:Work>
    </rdf:RDF>
  </metadata>
  <g
     inkscape:label="Calque 1"
     inkscape:groupmode="layer"
     id="layer1"
     transform="translate(-17.197992,-25.513295)">
    <path
       style="fill:none;stroke:#585050;stroke-width:0.129083;stroke-linecap:round;stroke-linejoin:round;stroke-miterlimit:4;stroke-dasharray:none;stroke-opacity:0.72549021"
       d="m 33.283617,38.559154 0.475178,0.564181 -0.43049,0.23653 0.23312,0.202019 -0.264587,0.227901 0.189736,0.418419 -0.244385,0.09301 -0.282462,-0.09238 0.131455,0.367913 -0.448365,-0.08375 0.05,0.398916 -0.331805,0.01725 0.07914,0.42417 -0.253323,-0.06713 -0.06359,0.351286 -0.425184,-0.165263 -0.03975,0.778334 -0.70234,-0.659439 -0.362621,0.955729 -0.326498,-0.384538 -0.180147,0.250279 -0.294379,-0.305906 -0.468567,0.05113 0.413919,0.460295 -0.529828,-0.05275 0.105296,0.396041 -0.393064,-0.08663 0.05893,0.559058 -0.521542,-0.401163 -0.258629,0.334663 -0.297358,-0.359286 -0.220551,0.520058 -0.317563,-0.224397 -0.05167,0.564811 -0.349681,-0.303029 -0.232468,0.306535 -0.189737,-0.418419 -0.552356,0.537313 -0.117212,-0.609565 -0.183779,-0.311656 -0.127825,0.194021 -0.17484,-0.151514 -0.255649,0.388044 -0.274177,-0.440796 -0.340091,0.365667 -0.128479,-0.314532 -0.558314,0.430551 -0.02383,-0.427045 -0.474526,-0.05563 -6.57e-4,-0.508554 -0.43049,0.236529 -0.154639,-0.286404 -0.511951,0.267533 0.08379,-0.486178 -0.63447,0.05976 0.0083,-0.348412 -0.477506,-0.109009 0.331154,-0.525808 -0.317561,-0.224395 -0.422205,-0.111884 0.264587,-0.227901 -0.626185,-0.288651 0.349029,-0.205524 -0.428163,-0.218644 0.261607,-0.281283 -0.594065,-0.210018 -0.762296,0.253784 0.05763,-0.458049 -0.538764,-0.212893 0.505993,-0.374295 -0.611942,-0.5303 0.153987,-0.222151 -0.564925,-0.184764 0.101663,-0.165893 -0.477506,-0.109008 0.290749,-0.256031 -0.422205,-0.111883 0.37221,-0.287033 -0.570885,-0.291527 0.410289,-0.101639 -0.160596,-0.393165 0.218224,-0.06488 -0.611941,-0.530303 0.267565,-0.17452 -0.422855,-0.620438 0.448365,0.08376 -0.111255,-0.502802 0.308623,0.06425 -0.355638,-0.409791 0.442407,-0.02301 -0.41392,-0.460296 0.308625,0.06426 -0.134437,-0.421295 0.506646,0.13426 -0.02979,-0.533806 0.322868,-0.177397 -0.611941,-0.530301 0.267567,-0.174521 -0.280135,-0.547556 0.57619,-0.110267 -0.186758,-0.365037 0.387106,-0.02013 -0.08807,-0.584313 0.494728,-0.07926 -0.378821,-0.328282 0.357966,-0.04538 -0.192716,-0.471798 0.360947,0.008 -0.07616,-0.37079 0.713607,0.364409 0.222878,-0.975231 0.402002,0.246772 0.03445,-0.37654 0.576843,0.398288 0.258629,-0.334663 0.195694,0.525179 -0.245688,-0.924096 0.477506,0.109008 -0.224836,-0.550432 0.337763,0.08951 -0.105295,-0.396042 c 0,0 0.48579,-0.239405 0.631491,-0.113143 0.1457,0.126263 0.09273,-0.326035 0.09273,-0.326035 l 0.460283,0.297278 0.13313,-0.595815 0.402004,0.246773 0.368578,-0.848969 0.390737,0.541804 0.296053,-0.657821 0.227814,0.603811 0.715281,-0.59932 0.227815,0.603812 0.30797,-0.4443 0.201654,0.631942 0.366251,-0.393795 0.271199,0.387413 0.263934,-0.736456 0.212918,0.336909 0.223531,-0.466676 0.437101,0.378786 0.489423,0.32253 0.331153,-0.525808 0.384779,0.435041 0.08975,-0.379414 0.297357,0.359284 0.232469,-0.306534 0.169534,0.553307 0.363272,-0.447177 0.09403,0.691074 0.878855,-0.152774 -0.142069,0.435673 0.439427,-0.07639 -0.180146,0.250277 0.765274,-0.200402 -0.500034,0.481055 0.748703,0.496421 0.669569,0.07225 -0.418573,0.450052 0.419226,0.0585 -0.06061,0.404669 0.745071,-0.06551 -0.151006,0.275529 0.343724,0.196268 -0.151008,0.275531 0.320539,0.277777 -0.235447,0.253154 0.471549,0.0022 -0.130805,0.140641 0.399024,0.193393 -0.151007,0.27553 0.32352,0.331158 -0.444734,0.47818 0.413919,0.460295 -0.375189,0.233652 0.277155,0.494176 -0.357965,0.04538 0.387758,0.488423 -0.177167,0.303658 0.762948,0.254773 -0.267567,0.17452 0.375842,0.2749 -0.290748,0.25603 0.236099,0.2554 -0.352008,0.152144 0.378821,0.328282 -0.491748,0.132643 0.541744,0.266275 -0.206308,0.278406 0.326498,0.384538 -0.622552,0.273284 -0.04636,0.163018 0.227815,0.603812 -0.783151,-0.119881 0.239732,0.817335 -0.69275,0.0093 0.172513,0.606686 -0.437101,-0.378785 -0.10399,0.621066 z"
       id="path3022"
       inkscape:connector-curvature="0" />
    <path
       style="fill:none;stroke:#585050;stroke-width:0.103267;stroke-linecap:round;stroke-linejoin:round;stroke-miterlimit:4;stroke-dasharray:none;stroke-opacity:0.72549021"
       d="m 32.073689,38.43271 -0.164767,0.617572 -0.427249,-0.218178 0.01962,0.35156 -0.357462,-0.157701 0.0563,0.413758 -0.23712,-0.08383 -0.08645,0.533367 -0.343582,-0.206503 -0.07257,0.484566 -0.228591,-0.228509 0.01288,0.528201 -0.28093,-0.273865 -0.111034,0.390407 -0.326137,-0.191383 0.01605,0.28764 -0.33288,-0.01474 -0.0099,0.417203 -0.411588,-0.235019 0.124301,0.442274 -0.333269,-0.319223 -0.210364,0.395573 -0.463535,0.0241 0.233162,-0.284573 c 0,0 -0.296204,0.04746 -0.217889,-0.03675 0.07831,-0.08421 0.231377,-0.316535 0.231377,-0.316535 l -0.472064,0.168787 -0.312869,0.641299 -0.220062,-0.37319 -0.301165,0.256058 c 0,0 -0.230374,-0.260469 -0.150276,-0.312715 0.0801,-0.05224 0.252392,-0.237492 0.252392,-0.237492 l -0.602719,0.207632 -0.02915,0.370123 -0.312258,-0.240183 -0.335667,0.530298 -0.270619,-0.386586 -0.0452,0.08248 -0.273016,0.462936 -0.02319,-0.415479 -0.355287,0.178738 -0.08049,-0.252236 -0.365599,0.291461 -0.143142,-0.184873 -0.250608,0.269455 -0.02319,-0.415481 -0.34637,0.338539 -0.199047,-0.294149 -0.304732,0.192135 -0.211144,-0.213387 0.325354,-0.417579 -0.388397,0.18046 0.17547,-0.425809 -0.560691,0.36571 -0.07018,-0.364957 -0.334665,-0.0467 0.383047,-0.276341 -0.523011,-0.149093 0.484158,-0.249547 -0.341798,-0.174543 v 0"
       id="path3020"
       inkscape:connector-curvature="0" />
    <path
       inkscape:connector-curvature="0"
       id="path3010"
       d="m 21.736898,30.203508 -0.368289,-0.198365 0.102657,0.216756 -0.259066,-0.0159 -0.102587,0.261977 -0.185546,-0.05764 0.01915,0.447525 -0.222475,-0.138546 0.03824,0.416318 -0.30352,-0.194394 0.03885,0.344663 -0.212767,-0.05237 0.204972,0.229972 -0.194917,0.05973 0.153951,0.08577 0.0025,0.192109 -0.427103,-0.164971 0.127684,0.222915 -0.287858,-0.07086 0.05478,0.193005 -0.207431,0.05665 0.281022,0.380337 -0.293808,-0.108225 -0.01375,0.140231 -0.26283,-0.0647 0.152721,0.229078 -0.178637,0.111609 0.168036,0.149077 -0.350095,0.117276 0.284443,0.225598 -0.305023,0.224114 0.317267,0.05416 -0.317538,0.221035 0.214339,0.112598 -0.0541,0.214073 0.192112,0.02335 -0.132956,0.146789 0.247509,0.144699 -0.107917,0.152955 0.299759,0.145592 -0.339767,0.131787 0.10546,0.13367 -0.387026,0.03638 0.411787,0.244974 -0.316925,0.149379 0.17898,0.09193 -0.235878,0.20523 0.256877,0.02733 -0.131371,0.207022 0.273157,0.0792 -0.05628,0.225503 0.225281,0.05545 -0.09663,0.299343 0.309128,0.02822 -0.07755,0.268137 0.36138,0.02911 -0.07536,0.256709 0.297228,-0.04651 0.06511,0.207509 0.207431,-0.05665 -0.0541,0.214072 0.204626,0.02643 -0.166742,0.186343 0.229046,0.104249 -0.120443,0.149868 0.460888,0.125416 -0.122278,0.36484 0.298803,0.01371 -0.06442,0.199564 0.261252,0.0045 -0.08945,0.193401 0.303793,-0.0808 0.112985,0.231264 0.155796,-0.1292 0.0085,0.229476 0.243401,-0.107635 0.0041,0.252333 0.138903,-0.109424 0.0079,0.301134 0.162983,-0.235139 0.09828,0.239614 0.154838,-0.261081 0.0329,0.307291 0.233694,-0.193799 0.119549,0.196975 0.141699,-0.192509 0.09014,0.213673 0.178637,-0.11161 -0.01716,0.294971 0.20866,-0.199964 0.08577,0.236532 0.08412,-0.302425 0.245315,0.156138 v 0"
       style="fill:none;stroke:#585050;stroke-width:0.0903583;stroke-linecap:round;stroke-linejoin:round;stroke-miterlimit:4;stroke-dasharray:none;stroke-opacity:0.72549021" />
    <path
       style="fill:none;stroke:#585050;stroke-width:0.103267;stroke-linecap:round;stroke-linejoin:round;stroke-miterlimit:4;stroke-dasharray:none;stroke-opacity:0.72549021"
       d="m 21.992062,28.848354 0.239155,-0.245997 0.248507,0.303997 0.07476,-0.234243 0.387008,0.02201 -0.211431,-0.287212 0.472037,-0.06397 -0.439405,-0.294675 0.29692,3.81e-4 0.08013,-0.26054 0.37613,0.141555 0.08549,-0.286835 c 0,0 0.148002,0.201047 0.211735,0.153304 0.06374,-0.04774 0.223837,-0.501873 0.223837,-0.501873 l 0.285584,0.320783 0.165005,-0.279562 0.168991,0.296723 0.287265,-0.415708 0.147544,0.401909 0.260606,-0.351178 v 0"
       id="path3016"
       inkscape:connector-curvature="0" />
    <path
       style="fill:none;stroke:#585050;stroke-width:0.103267;stroke-linecap:round;stroke-linejoin:round;stroke-miterlimit:4;stroke-dasharray:none;stroke-opacity:0.72549021"
       d="m 32.475014,37.604308 -0.253797,-0.487852 0.611953,-0.0062 -0.251891,-0.279682 0.383632,-0.186606 -0.273374,-0.149922 0.361391,-0.140119 -0.114823,-0.163086 0.498462,-0.02352 -0.297139,-0.269971 0.611763,-0.02698 -0.342192,-0.239445 0.36158,-0.119302 -0.363865,-0.130503 0.585715,-0.396835 -0.159884,-0.132554 0.360253,-0.265021 -0.249802,-0.05069 0.315387,-0.213681 -0.362917,-0.02642 0.405309,-0.295543 -0.701872,0.08803 0.426592,-0.446125 -0.203605,0.04369 0.222419,-0.464885 -0.429067,0.175499 -0.318052,-0.07776 0.337628,-0.260166 -0.340099,-0.01045 0.47298,-0.330925 -0.204174,-0.01877 0.224516,-0.235895 -0.316908,0.04714 0.359301,-0.369105 -0.451692,0.180354 0.109308,-0.440615 -0.337244,0.301803 0.01996,-0.296291 -0.315766,0.172044 0.132882,-0.341384 -0.473172,0.31011 0.471079,-0.539099 -0.452644,0.07627 0.79008,-0.357252 -0.38611,-0.08402 0.338199,-0.197717 -0.430782,-0.01186 0.38173,-0.394777 -0.361581,0.1193 0.266713,-0.578679 -0.496365,0.252511 0.222039,-0.506519 -0.293143,0.16719 0.426022,-0.508571 -0.791792,0.169895 0.335913,-0.447521 -0.565187,0.162988 0.38097,-0.478045 -0.496555,0.231693 -0.09601,-0.584278 -0.383252,0.228238 0.109878,-0.378163 -0.45093,0.263624 0.06387,-0.451724 -0.268997,0.328872 0.06292,-0.555808 -0.247136,0.240751 0.06368,-0.472542 -0.270522,0.162338 0.0652,-0.306002 -0.2709,0.120702 0.04239,-0.321968 -0.518419,0.31982 0.01958,-0.33793 -0.179268,0.226189 -0.02491,-0.244951 -0.24942,-0.0091 -0.0251,-0.265768 -0.225089,0.173441 0.01996,-0.296295 -0.495986,0.294148 v 0"
       id="path3018"
       inkscape:connector-curvature="0" />
    <path
       style="fill:none;stroke:#585050;stroke-width:0.0903583;stroke-linecap:round;stroke-linejoin:round;stroke-miterlimit:4;stroke-dasharray:none;stroke-opacity:0.72549021"
       d="m 25.889792,39.163966 0.22549,0.370776 0.03783,-0.249016 0.235688,0.149309 0.26063,-0.182917 0.139978,0.148638 0.26091,-0.413716 0.12455,0.240856 0.223358,-0.395499 0.16656,0.333455 0.178093,-0.331177 0.169067,0.158067 -0.05093,-0.314226 0.222054,0.04763 -0.09248,-0.157556 0.117395,-0.174633 0.302077,0.37128 0.01794,-0.267611 0.228741,0.213852 0.06841,-0.202652 0.231999,0.05693 -0.02927,-0.489491 0.211082,0.25066 0.10048,-0.119351 0.208853,0.195255 -0.0019,-0.286205 0.238971,-0.0076 -0.06636,-0.222009 0.405068,0.07654 -0.12901,-0.351672 0.428958,-0.04332 -0.267039,-0.214105 0.438902,-0.03402 -0.133006,-0.213217 0.184783,-0.164954 -0.167589,-0.121121 0.217594,-0.06318 -0.144437,-0.259452 0.1977,-0.08178 -0.193425,-0.28747 0.404326,0.05806 -0.01663,-0.175517 0.389636,0.168752 -0.237664,-0.435477 0.393635,0.0303 -0.112373,-0.176151 0.351624,-0.0623 -0.226514,-0.158443 0.253657,-0.118337 -0.209596,-0.213724 0.193985,-0.174126 -0.17902,-0.167358 0.27829,-0.219728 -0.2755,-0.186459 0.240738,-0.201512 -0.324477,-0.214487 0.231536,-0.192342 -0.310819,-0.11284 0.06767,-0.22112 -0.231999,-0.05693 0.184783,-0.164954 -0.177531,-0.130423 0.274293,-0.08127 -0.152155,-0.213343 0.207647,-0.07248 -0.358774,-0.35319 0.343446,-0.265456 -0.274751,-0.168001 0.185527,-0.146485 -0.244918,-0.1401 0.205417,-0.127891 -0.338423,-0.08532 0.03709,-0.267483 -0.228281,0.03542 0.135056,-0.211443 -0.297897,-0.02967 0.153456,-0.229787 -0.199931,0.02638 0.180326,-0.275768 -0.301155,0.127257 0.05624,-0.267358 -0.309612,0.154897 0.160432,-0.294363 -0.342421,0.05313 0.0095,-0.239971 -0.254401,0.09987 0.04778,-0.239717 -0.238968,0.0076 0.200214,-0.257172 -0.322533,0.07172 0.06618,-0.258061 -0.268344,0.229026 -0.135237,-0.268623 v 0"
       id="path3006"
       inkscape:connector-curvature="0" />
  </g>
</svg>
